0
SECTION
2
HEADER
9
$INSUNITS
70
4
9
$ACADVER
1
AC1014
9
$HANDSEED
5
FFFF
0
ENDSEC
0
SECTION
2
TABLES
0
TABLE
2
VPORT
5
8
100
AcDbSymbolTable
0
ENDTAB
0
TABLE
2
LTYPE
5
5
100
AcDbSymbolTable
0
LTYPE
5
14
100
AcDbSymbolTableRecord
100
AcDbLinetypeTableRecord
2
BYBLOCK
70
0
0
LTYPE
5
15
100
AcDbSymbolTableRecord
100
AcDbLinetypeTableRecord
2
BYLAYER
70
0
0
LTYPE
5
16
100
AcDbSymbolTableRecord
100
AcDbLinetypeTableRecord
2
DASHED
70
0
3
Dashed __ __ __ __ __ __ __ __ __ __ __ __ __ _
72
65
73
2
40
0.75
49
0.5
74
0
49
-0.25
74
0
0
ENDTAB
0
TABLE
2
LAYER
5
2
100
AcDbSymbolTable
70
2
0
LAYER
5
50
100
AcDbSymbolTableRecord
100
AcDbLayerTableRecord
2
0
70
0
62
7
6
CONTINUOUS
0
ENDTAB
0
TABLE
2
STYLE
5
3
100
AcDbSymbolTable
70
1
0
STYLE
5
11
100
AcDbSymbolTableRecord
100
AcDbTextStyleTableRecord
2
STANDARD
70
0
0
ENDTAB
0
TABLE
2
VIEW
5
6
100
AcDbSymbolTable
70
0
0
ENDTAB
0
TABLE
2
UCS
5
7
100
AcDbSymbolTable
70
0
0
ENDTAB
0
TABLE
2
APPID
5
9
100
AcDbSymbolTable
70
2
0
APPID
5
12
100
AcDbSymbolTableRecord
100
AcDbRegAppTableRecord
2
ACAD
70
0
0
ENDTAB
0
TABLE
2
DIMSTYLE
5
A
100
AcDbSymbolTable
70
1
0
ENDTAB
0
TABLE
2
BLOCK_RECORD
5
1
100
AcDbSymbolTable
70
1
0
BLOCK_RECORD
5
1F
100
AcDbSymbolTableRecord
100
AcDbBlockTableRecord
2
*MODEL_SPACE
0
BLOCK_RECORD
5
1B
100
AcDbSymbolTableRecord
100
AcDbBlockTableRecord
2
*PAPER_SPACE
0
ENDTAB
0
ENDSEC
0
SECTION
2
BLOCKS
0
BLOCK
5
20
100
AcDbEntity
100
AcDbBlockBegin
2
*MODEL_SPACE
0
ENDBLK
5
21
100
AcDbEntity
100
AcDbBlockEnd
0
BLOCK
5
1C
100
AcDbEntity
100
AcDbBlockBegin
2
*PAPER_SPACE
0
ENDBLK
5
1D
100
AcDbEntity
100
AcDbBlockEnd
0
ENDSEC
0
SECTION
2
ENTITIES
0
POINT
5
100
100
AcDbEntity
8
0
100
AcDbPoint
10
-12.989136990775524
20
12.79732050216554
30
0
0
LINE
5
101
100
AcDbEntity
8
0
100
AcDbLine
10
-7.6391369907755369
20
8.5499999999999865
30
0
11
-7.6391369907755369
21
10.849999999999991
31
0
0
LINE
5
102
100
AcDbEntity
8
0
100
AcDbLine
10
-7.6391369907755369
20
10.849999999999991
30
0
11
-2.3391369907755477
21
10.85
31
0
0
LINE
5
103
100
AcDbEntity
8
0
100
AcDbLine
10
-2.3391369907755477
20
10.85
30
0
11
-2.3391369907755495
21
61.620284100801939
31
0
0
LINE
5
104
100
AcDbEntity
8
0
100
AcDbLine
10
-2.3391369907755495
20
61.620284100801939
30
0
11
-19.727549443195205
21
61.620284100801939
31
0
0
LINE
5
105
100
AcDbEntity
8
0
100
AcDbLine
10
-19.727549443195205
20
61.620284100801939
30
0
11
-19.727549443195205
21
73.566778354052275
31
0
0
LINE
5
106
100
AcDbEntity
8
0
100
AcDbLine
10
-19.727549443195205
20
73.566778354052275
30
0
11
-47.36805516276327
21
73.566778354052417
31
0
0
LINE
5
107
100
AcDbEntity
8
0
100
AcDbLine
10
-47.36805516276327
20
73.566778354052417
30
0
11
-57.0752041093195
21
80.657001152341095
31
0
0
LINE
5
108
100
AcDbEntity
8
0
100
AcDbLine
10
-57.0752041093195
20
80.657001152341095
30
0
11
-109.84746806849941
21
84.347196870276093
31
0
0
LINE
5
109
100
AcDbEntity
8
0
100
AcDbLine
10
-109.84746806849941
20
84.347196870276093
30
0
11
-125.79221365178671
21
87.736357408216406
31
0
0
LINE
5
110
100
AcDbEntity
8
0
100
AcDbLine
10
-125.79221365178671
20
87.736357408216406
30
0
11
-131.44741159976147
21
61.130742659272279
31
0
0
LINE
5
111
100
AcDbEntity
8
0
100
AcDbLine
10
-131.44741159976147
20
61.130742659272279
30
0
11
-114.18986153210128
21
57.462536894224442
31
0
0
LINE
5
112
100
AcDbEntity
8
0
100
AcDbLine
10
-114.18986153210128
20
57.462536894224442
30
0
11
-114.18986153210126
21
13.825000000000074
31
0
0
LINE
5
113
100
AcDbEntity
8
0
100
AcDbLine
10
-114.18986153210126
20
13.825000000000074
30
0
11
-109.43986153210125
21
13.825000000000074
31
0
0
LINE
5
114
100
AcDbEntity
8
0
100
AcDbLine
10
-109.43986153210125
20
13.825000000000074
30
0
11
-109.43986153210125
21
0.049999999999998934
31
0
0
LINE
5
115
100
AcDbEntity
8
0
100
AcDbLine
10
-109.43986153210125
20
0.049999999999998934
30
0
11
-43.795029398874377
21
0.049999999999981171
31
0
0
LINE
5
116
100
AcDbEntity
8
0
100
AcDbLine
10
-43.795029398874377
20
0.049999999999981171
30
0
11
-35.295029398874348
21
8.5499999999999954
31
0
0
LINE
5
117
100
AcDbEntity
8
0
100
AcDbLine
10
-35.295029398874348
20
8.5499999999999954
30
0
11
-7.6391369907755369
21
8.5499999999999865
31
0
0
LWPOLYLINE
5
118
100
AcDbEntity
8
0
100
AcDbPolyline
90
21
70
1
43
0.0
10
-19.727549443195201
20
61.620284100801939
10
-19.727549443195194
20
73.566778354052275
10
-47.36805516276327
20
73.566778354052417
10
-57.0752041093195
20
80.657001152341095
10
-109.84746806849941
20
84.347196870276093
10
-125.79221365178671
20
87.736357408216406
10
-131.44741159976147
20
61.130742659272279
10
-114.18986153210128
20
57.462536894224442
10
-114.18986153210125
20
33.390000000000008
10
-110.88986153210124
20
33.390000000000008
10
-110.88986153210124
20
26.790000000000006
10
-114.18986153210125
20
26.790000000000006
10
-114.18986153210126
20
13.825000000000076
10
-109.43986153210125
20
13.825000000000076
10
-109.43986153210125
20
0.049999999999996714
10
-43.795029398874377
20
0.049999999999976924
10
-35.295029398874348
20
8.5499999999999972
10
-7.6391369907755369
20
8.5499999999999883
10
-7.639136990775536
20
10.849999999999993
10
-2.3391369907755468
20
10.849999999999998
10
-2.3391369907755495
20
61.620284100801939
0
LWPOLYLINE
5
119
100
AcDbEntity
8
0
100
AcDbPolyline
90
4
70
1
43
0.0
10
-115.9648615321013
20
79.920000000000002
10
-115.9648615321013
20
83.52000000000001
10
-109.36486153210127
20
83.52000000000001
10
-109.36486153210127
20
79.920000000000002
0
CIRCLE
5
120
100
AcDbEntity
8
0
100
AcDbCircle
10
-104.68568525000002
20
23.955162500000004
30
0
40
3.4751085032791247
210
0
220
0
230
1
0
CIRCLE
5
121
100
AcDbEntity
8
0
100
AcDbCircle
10
-103.43006825000001
20
40.913752250000002
30
0
40
2.5026794386797668
210
0
220
0
230
1
0
CIRCLE
5
122
100
AcDbEntity
8
0
100
AcDbCircle
10
-102.17445300000001
20
57.872340250000001
30
0
40
3.4492266915864351
210
0
220
0
230
1
0
CIRCLE
5
123
100
AcDbEntity
8
0
100
AcDbCircle
10
-100.91883600000001
20
74.83092975000001
30
0
40
3.0049697075732063
210
0
220
0
230
1
0
CIRCLE
5
124
100
AcDbEntity
8
0
100
AcDbCircle
10
-120.38565217826959
20
72.529973987116293
30
0
40
3.7656525124719762
210
0
220
0
230
1
0
CIRCLE
5
125
100
AcDbEntity
8
0
100
AcDbCircle
10
-82.962683999999996
20
73.645069499999991
30
0
40
2.8251360000000147
210
0
220
0
230
1
0
CIRCLE
5
126
100
AcDbEntity
8
0
100
AcDbCircle
10
-84.532202999999996
20
52.446834500000001
30
0
40
3.7997303454074065
210
0
220
0
230
1
0
CIRCLE
5
127
100
AcDbEntity
8
0
100
AcDbCircle
10
-85.787820000000011
20
35.4882445
30
0
40
3.347038196732866
210
0
220
0
230
1
0
CIRCLE
5
128
100
AcDbEntity
8
0
100
AcDbCircle
10
-87.043436999999983
20
18.529656500000002
30
0
40
3.8527744882285235
210
0
220
0
230
1
0
CIRCLE
5
129
100
AcDbEntity
8
0
100
AcDbCircle
10
-66.599999999999994
20
8.5
30
0
40
3.716181849693132
210
0
220
0
230
1
0
CIRCLE
5
130
100
AcDbEntity
8
0
100
AcDbCircle
10
-66.599999999999994
20
25.5
30
0
40
2.8301954247471786
210
0
220
0
230
1
0
CIRCLE
5
131
100
AcDbEntity
8
0
100
AcDbCircle
10
-66.599999999999994
20
42.5
30
0
40
3.6353940244017124
210
0
220
0
230
1
0
CIRCLE
5
132
100
AcDbEntity
8
0
100
AcDbCircle
10
-48.600000000000001
20
34
30
0
40
3.9446175245286685
210
0
220
0
230
1
0
CIRCLE
5
133
100
AcDbEntity
8
0
100
AcDbCircle
10
-48.600000000000001
20
17
30
0
40
2.6000008046627023
210
0
220
0
230
1
0
CIRCLE
5
134
100
AcDbEntity
8
0
100
AcDbCircle
10
-48.600000000000001
20
51
30
0
40
2.6000009995240765
210
0
220
0
230
1
0
CIRCLE
5
135
100
AcDbEntity
8
0
100
AcDbCircle
10
-29.690922499999999
20
47.967915500000004
30
0
40
3.4662944303268466
210
0
220
0
230
1
0
CIRCLE
5
136
100
AcDbEntity
8
0
100
AcDbCircle
10
-29.376779500000005
20
30.97050475
30
0
40
1.9221622571584274
210
0
220
0
230
1
0
CIRCLE
5
137
100
AcDbEntity
8
0
100
AcDbCircle
10
-30.005065500000001
20
64.965326500000003
30
0
40
3.1686253946303355
210
0
220
0
230
1
0
CIRCLE
5
138
100
AcDbEntity
8
0
100
AcDbCircle
10
-12.019124575850666
20
44.008202730434114
30
0
40
3.0474022215049574
210
0
220
0
230
1
0
LWPOLYLINE
5
139
100
AcDbEntity
8
0
100
AcDbPolyline
90
4
70
1
43
0.0
10
-3.8641369907755241
20
11.349999999999991
10
-22.114136990775528
20
11.349999999999991
10
-22.114136990775528
20
34.099999999999994
10
-3.8641369907755241
20
34.099999999999994
0
CIRCLE
5
140
100
AcDbEntity
8
0
100
AcDbCircle
10
115.70737819671851
20
72.529973987116307
30
0
40
3.7656525124719762
210
0
220
0
230
1
0
LWPOLYLINE
5
141
100
AcDbEntity
8
0
100
AcDbPolyline
90
21
70
1
43
0.0
10
109.51158755055019
20
57.462536894224449
10
109.51158755055016
20
33.390000000000015
10
106.21158755055015
20
33.390000000000015
10
106.21158755055015
20
57.434967912579907
10
109.51158755055019
20
57.462536894224449
10
109.51158755055017
20
13.825000000000081
10
104.76158755055016
20
13.825000000000081
10
104.76158755055016
20
0.050000000000005956
10
39.11675541732329
20
0.049999999999983891
10
30.616755417323247
20
8.5499999999999972
10
2.9608630092244415
20
8.5499999999999865
10
2.9608630092244415
20
10.849999999999991
10
-2.3391369907755477
20
10.85
10
-2.3391369907755495
20
61.620284100801939
10
15.049275461644104
20
61.620284100801939
10
15.049275461644104
20
73.566778354052275
10
42.689781181212183
20
73.566778354052417
10
52.396930127768414
20
80.657001152341095
10
105.16919408694832
20
84.347196870276093
10
121.11393967023562
20
87.736357408216406
10
126.76913761821039
20
61.130742659272286
0
CIRCLE
5
142
100
AcDbEntity
8
0
100
AcDbCircle
10
100.00741126844893
20
23.955162500000014
30
0
40
3.4751085032791247
210
0
220
0
230
1
0
CIRCLE
5
143
100
AcDbEntity
8
0
100
AcDbCircle
10
98.751794268448919
20
40.913752250000009
30
0
40
2.5026794386797668
210
0
220
0
230
1
0
CIRCLE
5
144
100
AcDbEntity
8
0
100
AcDbCircle
10
97.496179018448927
20
57.872340250000008
30
0
40
3.4492266915864351
210
0
220
0
230
1
0
CIRCLE
5
145
100
AcDbEntity
8
0
100
AcDbCircle
10
96.240562018448927
20
74.830929750000024
30
0
40
3.0049697075732063
210
0
220
0
230
1
0
CIRCLE
5
146
100
AcDbEntity
8
0
100
AcDbCircle
10
78.284410018448909
20
73.645069500000005
30
0
40
2.8251360000000147
210
0
220
0
230
1
0
CIRCLE
5
147
100
AcDbEntity
8
0
100
AcDbCircle
10
79.853929018448909
20
52.446834500000008
30
0
40
3.7997303454074065
210
0
220
0
230
1
0
CIRCLE
5
148
100
AcDbEntity
8
0
100
AcDbCircle
10
81.109546018448924
20
35.488244500000008
30
0
40
3.347038196732866
210
0
220
0
230
1
0
CIRCLE
5
149
100
AcDbEntity
8
0
100
AcDbCircle
10
82.365163018448897
20
18.529656500000009
30
0
40
3.8527744882285235
210
0
220
0
230
1
0
CIRCLE
5
150
100
AcDbEntity
8
0
100
AcDbCircle
10
61.921726018448915
20
8.5000000000000036
30
0
40
3.716181849693132
210
0
220
0
230
1
0
CIRCLE
5
151
100
AcDbEntity
8
0
100
AcDbCircle
10
61.921726018448915
20
25.500000000000004
30
0
40
2.8301954247471786
210
0
220
0
230
1
0
CIRCLE
5
152
100
AcDbEntity
8
0
100
AcDbCircle
10
61.921726018448915
20
42.5
30
0
40
3.6353940244017124
210
0
220
0
230
1
0
CIRCLE
5
153
100
AcDbEntity
8
0
100
AcDbCircle
10
43.921726018448915
20
17
30
0
40
2.6000008046627023
210
0
220
0
230
1
0
CIRCLE
5
154
100
AcDbEntity
8
0
100
AcDbCircle
10
43.921726018448915
20
34
30
0
40
3.9446175245286685
210
0
220
0
230
1
0
CIRCLE
5
155
100
AcDbEntity
8
0
100
AcDbCircle
10
43.921726018448915
20
51
30
0
40
2.6000009995240765
210
0
220
0
230
1
0
CIRCLE
5
156
100
AcDbEntity
8
0
100
AcDbCircle
10
25.012648518448906
20
47.967915500000004
30
0
40
3.4662944303268466
210
0
220
0
230
1
0
CIRCLE
5
157
100
AcDbEntity
8
0
100
AcDbCircle
10
25.326791518448903
20
64.965326500000003
30
0
40
3.1686253946303355
210
0
220
0
230
1
0
CIRCLE
5
158
100
AcDbEntity
8
0
100
AcDbCircle
10
24.698505518448908
20
30.97050475
30
0
40
1.9221622571584274
210
0
220
0
230
1
0
CIRCLE
5
159
100
AcDbEntity
8
0
100
AcDbCircle
10
7.3408505942995683
20
44.008202730434114
30
0
40
3.0474022215049574
210
0
220
0
230
1
0
LWPOLYLINE
5
160
100
AcDbEntity
8
0
100
AcDbPolyline
90
4
70
1
43
0.0
10
-0.81413699077557156
20
11.349999999999991
10
17.43586300922443
20
11.349999999999991
10
17.43586300922443
20
34.099999999999994
10
-0.81413699077557244
20
34.099999999999994
0
CIRCLE
5
161
100
AcDbEntity
8
0
100
AcDbCircle
10
-12.989136990775521
20
22.724999999999991
30
0
40
2.3810075289138446
210
0
220
0
230
1
0
CIRCLE
5
162
100
AcDbEntity
8
0
100
AcDbCircle
10
8.3108630092244269
20
22.724999999999991
30
0
40
2.3810075289138446
210
0
220
0
230
1
0
CIRCLE
5
163
100
AcDbEntity
8
0
100
AcDbCircle
10
-96.669861532101237
20
6.3199999999999985
30
0
40
4.7700000000000067
210
0
220
0
230
1
0
CIRCLE
5
164
100
AcDbEntity
8
0
100
AcDbCircle
10
91.99158755055015
20
6.3200000000000056
30
0
40
4.7700000000000067
210
0
220
0
230
1
0
CIRCLE
5
165
100
AcDbEntity
8
0
100
AcDbCircle
10
-107.06486153210123
20
2.4249999999999989
30
0
40
0.87500000000000011
210
0
220
0
230
1
0
CIRCLE
5
166
100
AcDbEntity
8
0
100
AcDbCircle
10
-107.06486153210123
20
5.6749999999999989
30
0
40
0.87500000000000011
210
0
220
0
230
1
0
CIRCLE
5
167
100
AcDbEntity
8
0
100
AcDbCircle
10
102.38658755055015
20
2.4250000000000056
30
0
40
0.87500000000000011
210
0
220
0
230
1
0
CIRCLE
5
168
100
AcDbEntity
8
0
100
AcDbCircle
10
102.38658755055015
20
5.675000000000006
30
0
40
0.87500000000000011
210
0
220
0
230
1
0
ENDSEC
0
SECTION
2
OBJECTS
0
DICTIONARY
5
C
100
AcDbDictionary
3
ACAD_GROUP
350
D
3
ACAD_MLINESTYLE
350
17
0
DICTIONARY
5
D
100
AcDbDictionary
0
DICTIONARY
5
1A
330
C
100
AcDbDictionary
0
DICTIONARY
5
17
100
AcDbDictionary
0
ENDSEC
0
EOF
