0
SECTION
2
HEADER
9
$INSUNITS
70
4
9
$ACADVER
1
AC1014
9
$HANDSEED
5
FFFF
0
ENDSEC
0
SECTION
2
TABLES
0
TABLE
2
VPORT
5
8
100
AcDbSymbolTable
0
ENDTAB
0
TABLE
2
LTYPE
5
5
100
AcDbSymbolTable
0
LTYPE
5
14
100
AcDbSymbolTableRecord
100
AcDbLinetypeTableRecord
2
BYBLOCK
70
0
0
LTYPE
5
15
100
AcDbSymbolTableRecord
100
AcDbLinetypeTableRecord
2
BYLAYER
70
0
0
LTYPE
5
16
100
AcDbSymbolTableRecord
100
AcDbLinetypeTableRecord
2
DASHED
70
0
3
Dashed __ __ __ __ __ __ __ __ __ __ __ __ __ _
72
65
73
2
40
0.75
49
0.5
74
0
49
-0.25
74
0
0
ENDTAB
0
TABLE
2
LAYER
5
2
100
AcDbSymbolTable
70
2
0
LAYER
5
50
100
AcDbSymbolTableRecord
100
AcDbLayerTableRecord
2
0
70
0
62
7
6
CONTINUOUS
0
ENDTAB
0
TABLE
2
STYLE
5
3
100
AcDbSymbolTable
70
1
0
STYLE
5
11
100
AcDbSymbolTableRecord
100
AcDbTextStyleTableRecord
2
STANDARD
70
0
0
ENDTAB
0
TABLE
2
VIEW
5
6
100
AcDbSymbolTable
70
0
0
ENDTAB
0
TABLE
2
UCS
5
7
100
AcDbSymbolTable
70
0
0
ENDTAB
0
TABLE
2
APPID
5
9
100
AcDbSymbolTable
70
2
0
APPID
5
12
100
AcDbSymbolTableRecord
100
AcDbRegAppTableRecord
2
ACAD
70
0
0
ENDTAB
0
TABLE
2
DIMSTYLE
5
A
100
AcDbSymbolTable
70
1
0
ENDTAB
0
TABLE
2
BLOCK_RECORD
5
1
100
AcDbSymbolTable
70
1
0
BLOCK_RECORD
5
1F
100
AcDbSymbolTableRecord
100
AcDbBlockTableRecord
2
*MODEL_SPACE
0
BLOCK_RECORD
5
1B
100
AcDbSymbolTableRecord
100
AcDbBlockTableRecord
2
*PAPER_SPACE
0
ENDTAB
0
ENDSEC
0
SECTION
2
BLOCKS
0
BLOCK
5
20
100
AcDbEntity
100
AcDbBlockBegin
2
*MODEL_SPACE
0
ENDBLK
5
21
100
AcDbEntity
100
AcDbBlockEnd
0
BLOCK
5
1C
100
AcDbEntity
100
AcDbBlockBegin
2
*PAPER_SPACE
0
ENDBLK
5
1D
100
AcDbEntity
100
AcDbBlockEnd
0
ENDSEC
0
SECTION
2
ENTITIES
0
POINT
5
100
100
AcDbEntity
8
0
100
AcDbPoint
10
-10.560863009224466
20
-61.620284100801939
30
-2.7755575615628914e-16
0
POINT
5
101
100
AcDbEntity
8
0
100
AcDbPoint
10
-10.560863009224466
20
-8.5499999999999901
30
-2.7755575615628914e-16
0
LINE
5
102
100
AcDbEntity
8
0
100
AcDbLine
10
-28.849275461644133
20
-61.620284100801939
30
-2.7755575615628914e-16
11
-28.849275461644133
21
-73.566778354052275
31
-2.7755575615628914e-16
0
LINE
5
103
100
AcDbEntity
8
0
100
AcDbLine
10
-28.849275461644133
20
-73.566778354052275
30
-2.7755575615628914e-16
11
-56.489781181212194
21
-73.566778354052417
31
-2.7755575615628914e-16
0
LINE
5
104
100
AcDbEntity
8
0
100
AcDbLine
10
-56.489781181212194
20
-73.566778354052417
30
-2.7755575615628914e-16
11
-66.196930127768425
21
-80.657001152341095
31
-2.7755575615628914e-16
0
LINE
5
105
100
AcDbEntity
8
0
100
AcDbLine
10
-66.196930127768425
20
-80.657001152341095
30
-2.7755575615628914e-16
11
-118.96919408694835
21
-84.347196870276093
31
-2.7755575615628914e-16
0
LINE
5
106
100
AcDbEntity
8
0
100
AcDbLine
10
-118.96919408694835
20
-84.347196870276093
30
-2.7755575615628914e-16
11
-134.91393967023566
21
-87.736357408216406
31
-2.7755575615628914e-16
0
LINE
5
107
100
AcDbEntity
8
0
100
AcDbLine
10
-134.91393967023566
20
-87.736357408216406
30
-2.7755575615628914e-16
11
-140.56913761821042
21
-61.130742659272279
31
-2.7755575615628914e-16
0
LINE
5
108
100
AcDbEntity
8
0
100
AcDbLine
10
-140.56913761821042
20
-61.130742659272279
30
-2.7755575615628914e-16
11
-123.31158755055021
21
-57.462536894224442
31
-2.7755575615628914e-16
0
LINE
5
109
100
AcDbEntity
8
0
100
AcDbLine
10
-118.56158755055017
20
-13.225000000000065
30
-2.7755575615628914e-16
11
-118.56158755055017
21
-0.049999999999998934
31
-2.7755575615628914e-16
0
LINE
5
110
100
AcDbEntity
8
0
100
AcDbLine
10
-118.56158755055017
20
-0.049999999999998934
30
-2.7755575615628914e-16
11
-52.916755417323301
21
-0.049999999999981171
31
-2.7755575615628914e-16
0
LINE
5
111
100
AcDbEntity
8
0
100
AcDbLine
10
-52.916755417323301
20
-0.049999999999981171
30
-2.7755575615628914e-16
11
-44.416755417323273
21
-8.5499999999999954
31
-2.7755575615628914e-16
0
LINE
5
112
100
AcDbEntity
8
0
100
AcDbLine
10
-123.3115875505502
20
-13.22500000000006
30
-2.7755575615628914e-16
11
-118.56158755055017
21
-13.225000000000065
31
-2.7755575615628914e-16
0
LINE
5
113
100
AcDbEntity
8
0
100
AcDbLine
10
-123.31158755055021
20
-57.462536894224442
30
-2.7755575615628914e-16
11
-123.3115875505502
21
-13.22500000000006
31
-2.7755575615628914e-16
0
LWPOLYLINE
5
114
100
AcDbEntity
8
0
100
AcDbPolyline
90
4
70
1
43
0.0
10
1.4391369907755367
20
-17.085142050400961
10
-10.560863009224466
20
-17.085142050400961
10
-10.560863009224466
20
-23.085142050400968
10
1.4391369907755367
20
-23.085142050400968
0
LWPOLYLINE
5
115
100
AcDbEntity
8
0
100
AcDbPolyline
90
4
70
1
43
0.0
10
-10.560863009224466
20
-47.085142050400961
10
1.4391369907755358
20
-47.085142050400961
10
1.4391369907755367
20
-53.085142050400968
10
-10.560863009224466
20
-53.085142050400968
0
LINE
5
116
100
AcDbEntity
8
0
100
AcDbLine
10
-10.560863009224466
20
-8.5499999999999901
30
-2.7755575615628914e-16
11
-44.416755417323273
21
-8.5499999999999954
31
-2.7755575615628914e-16
0
LINE
5
117
100
AcDbEntity
8
0
100
AcDbLine
10
-28.849275461644133
20
-61.620284100801939
30
-2.7755575615628914e-16
11
-10.560863009224466
21
-61.620284100801939
31
-2.7755575615628914e-16
0
LINE
5
118
100
AcDbEntity
8
0
100
AcDbLine
10
-10.560863009224466
20
-61.620284100801939
30
-2.7755575615628914e-16
11
-10.560863009224466
21
-8.5499999999999901
31
-2.7755575615628914e-16
0
LINE
5
119
100
AcDbEntity
8
0
100
AcDbLine
10
114.18986153210128
20
-57.462536894224442
30
-2.7755575615628914e-16
11
114.18986153210126
21
-13.22500000000006
31
-2.7755575615628914e-16
0
LINE
5
120
100
AcDbEntity
8
0
100
AcDbLine
10
114.18986153210126
20
-13.22500000000006
30
-2.7755575615628914e-16
11
109.43986153210122
21
-13.225000000000065
31
-2.7755575615628914e-16
0
LINE
5
121
100
AcDbEntity
8
0
100
AcDbLine
10
109.43986153210122
20
-13.225000000000065
30
-2.7755575615628914e-16
11
109.43986153210122
21
-0.049999999999998934
31
-2.7755575615628914e-16
0
LINE
5
122
100
AcDbEntity
8
0
100
AcDbLine
10
43.795029398874377
20
-0.049999999999981171
30
-2.7755575615628914e-16
11
35.295029398874348
21
-8.5499999999999954
31
-2.7755575615628914e-16
0
LINE
5
123
100
AcDbEntity
8
0
100
AcDbLine
10
109.43986153210122
20
-0.049999999999998934
30
-2.7755575615628914e-16
11
43.795029398874377
21
-0.049999999999981171
31
-2.7755575615628914e-16
0
LINE
5
124
100
AcDbEntity
8
0
100
AcDbLine
10
19.727549443195205
20
-61.620284100801939
30
-2.7755575615628914e-16
11
19.727549443195205
21
-73.566778354052275
31
-2.7755575615628914e-16
0
LINE
5
125
100
AcDbEntity
8
0
100
AcDbLine
10
19.727549443195205
20
-73.566778354052275
30
-2.7755575615628914e-16
11
47.36805516276327
21
-73.566778354052417
31
-2.7755575615628914e-16
0
LINE
5
126
100
AcDbEntity
8
0
100
AcDbLine
10
47.36805516276327
20
-73.566778354052417
30
-2.7755575615628914e-16
11
57.0752041093195
21
-80.657001152341095
31
-2.7755575615628914e-16
0
LINE
5
127
100
AcDbEntity
8
0
100
AcDbLine
10
109.84746806849941
20
-84.347196870276093
30
-2.7755575615628914e-16
11
125.79221365178671
21
-87.736357408216406
31
-2.7755575615628914e-16
0
LINE
5
128
100
AcDbEntity
8
0
100
AcDbLine
10
125.79221365178671
20
-87.736357408216406
30
-2.7755575615628914e-16
11
131.44741159976147
21
-61.130742659272279
31
-2.7755575615628914e-16
0
LINE
5
129
100
AcDbEntity
8
0
100
AcDbLine
10
131.44741159976147
20
-61.130742659272279
30
-2.7755575615628914e-16
11
114.18986153210128
21
-57.462536894224442
31
-2.7755575615628914e-16
0
LINE
5
130
100
AcDbEntity
8
0
100
AcDbLine
10
57.0752041093195
20
-80.657001152341095
30
-2.7755575615628914e-16
11
109.84746806849941
21
-84.347196870276093
31
-2.7755575615628914e-16
0
LINE
5
131
100
AcDbEntity
8
0
100
AcDbLine
10
1.439136990775538
20
-61.620284100801939
30
-2.7755575615628914e-16
11
1.439136990775538
21
-8.5499999999999954
31
-2.7755575615628914e-16
0
LINE
5
132
100
AcDbEntity
8
0
100
AcDbLine
10
19.727549443195205
20
-61.620284100801939
30
-2.7755575615628914e-16
11
1.439136990775538
21
-61.620284100801939
31
-2.7755575615628914e-16
0
LINE
5
133
100
AcDbEntity
8
0
100
AcDbLine
10
1.439136990775538
20
-8.5499999999999954
30
-2.7755575615628914e-16
11
35.295029398874348
21
-8.5499999999999954
31
-2.7755575615628914e-16
0
ENDSEC
0
SECTION
2
OBJECTS
0
DICTIONARY
5
C
100
AcDbDictionary
3
ACAD_GROUP
350
D
3
ACAD_MLINESTYLE
350
17
0
DICTIONARY
5
D
100
AcDbDictionary
0
DICTIONARY
5
1A
330
C
100
AcDbDictionary
0
DICTIONARY
5
17
100
AcDbDictionary
0
ENDSEC
0
EOF
