0
SECTION
2
HEADER
9
$INSUNITS
70
4
9
$ACADVER
1
AC1014
9
$HANDSEED
5
FFFF
0
ENDSEC
0
SECTION
2
TABLES
0
TABLE
2
VPORT
5
8
100
AcDbSymbolTable
0
ENDTAB
0
TABLE
2
LTYPE
5
5
100
AcDbSymbolTable
0
LTYPE
5
14
100
AcDbSymbolTableRecord
100
AcDbLinetypeTableRecord
2
BYBLOCK
70
0
0
LTYPE
5
15
100
AcDbSymbolTableRecord
100
AcDbLinetypeTableRecord
2
BYLAYER
70
0
0
LTYPE
5
16
100
AcDbSymbolTableRecord
100
AcDbLinetypeTableRecord
2
DASHED
70
0
3
Dashed __ __ __ __ __ __ __ __ __ __ __ __ __ _
72
65
73
2
40
0.75
49
0.5
74
0
49
-0.25
74
0
0
ENDTAB
0
TABLE
2
LAYER
5
2
100
AcDbSymbolTable
70
2
0
LAYER
5
50
100
AcDbSymbolTableRecord
100
AcDbLayerTableRecord
2
0
70
0
62
7
6
CONTINUOUS
0
ENDTAB
0
TABLE
2
STYLE
5
3
100
AcDbSymbolTable
70
1
0
STYLE
5
11
100
AcDbSymbolTableRecord
100
AcDbTextStyleTableRecord
2
STANDARD
70
0
0
ENDTAB
0
TABLE
2
VIEW
5
6
100
AcDbSymbolTable
70
0
0
ENDTAB
0
TABLE
2
UCS
5
7
100
AcDbSymbolTable
70
0
0
ENDTAB
0
TABLE
2
APPID
5
9
100
AcDbSymbolTable
70
2
0
APPID
5
12
100
AcDbSymbolTableRecord
100
AcDbRegAppTableRecord
2
ACAD
70
0
0
ENDTAB
0
TABLE
2
DIMSTYLE
5
A
100
AcDbSymbolTable
70
1
0
ENDTAB
0
TABLE
2
BLOCK_RECORD
5
1
100
AcDbSymbolTable
70
1
0
BLOCK_RECORD
5
1F
100
AcDbSymbolTableRecord
100
AcDbBlockTableRecord
2
*MODEL_SPACE
0
BLOCK_RECORD
5
1B
100
AcDbSymbolTableRecord
100
AcDbBlockTableRecord
2
*PAPER_SPACE
0
ENDTAB
0
ENDSEC
0
SECTION
2
BLOCKS
0
BLOCK
5
20
100
AcDbEntity
100
AcDbBlockBegin
2
*MODEL_SPACE
0
ENDBLK
5
21
100
AcDbEntity
100
AcDbBlockEnd
0
BLOCK
5
1C
100
AcDbEntity
100
AcDbBlockBegin
2
*PAPER_SPACE
0
ENDBLK
5
1D
100
AcDbEntity
100
AcDbBlockEnd
0
ENDSEC
0
SECTION
2
ENTITIES
0
CIRCLE
5
100
100
AcDbEntity
8
0
100
AcDbCircle
10
11.615128500000003
20
-44.015254499999998
30
0
40
3.102713407201851
210
0
220
0
230
1
0
CIRCLE
5
101
100
AcDbEntity
8
0
100
AcDbCircle
10
29.376779500000005
20
-30.97050475
30
0
40
2.5987880361819391
210
0
220
0
230
1
0
CIRCLE
5
102
100
AcDbEntity
8
0
100
AcDbCircle
10
29.690922499999999
20
-47.967915500000004
30
0
40
3.0759082473794717
210
0
220
0
230
1
0
CIRCLE
5
103
100
AcDbEntity
8
0
100
AcDbCircle
10
30.005065500000001
20
-64.965326500000003
30
0
40
2.2472910021992951
210
0
220
0
230
1
0
CIRCLE
5
104
100
AcDbEntity
8
0
100
AcDbCircle
10
48.600000000000001
20
-51
30
0
40
2.6000009995240765
210
0
220
0
230
1
0
CIRCLE
5
105
100
AcDbEntity
8
0
100
AcDbCircle
10
48.600000000000001
20
-34
30
0
40
3.4000007748604166
210
0
220
0
230
1
0
CIRCLE
5
106
100
AcDbEntity
8
0
100
AcDbCircle
10
48.600000000000001
20
-17
30
0
40
2.400000759959231
210
0
220
0
230
1
0
CIRCLE
5
107
100
AcDbEntity
8
0
100
AcDbCircle
10
66.599999999999994
20
-8.5
30
0
40
2.7562988692428991
210
0
220
0
230
1
0
CIRCLE
5
108
100
AcDbEntity
8
0
100
AcDbCircle
10
66.599999999999994
20
-25.5
30
0
40
3.0071036110810478
210
0
220
0
230
1
0
CIRCLE
5
109
100
AcDbEntity
8
0
100
AcDbCircle
10
66.599999999999994
20
-42.5
30
0
40
2.8399004498556213
210
0
220
0
230
1
0
CIRCLE
5
110
100
AcDbEntity
8
0
100
AcDbCircle
10
87.043436999999983
20
-18.529656500000002
30
0
40
2.4474588550079743
210
0
220
0
230
1
0
CIRCLE
5
111
100
AcDbEntity
8
0
100
AcDbCircle
10
85.787820000000011
20
-35.4882445
30
0
40
3.347038196732866
210
0
220
0
230
1
0
CIRCLE
5
112
100
AcDbEntity
8
0
100
AcDbCircle
10
84.532202999999996
20
-52.446834500000001
30
0
40
2.7120415559354338
210
0
220
0
230
1
0
CIRCLE
5
113
100
AcDbEntity
8
0
100
AcDbCircle
10
82.962683999999996
20
-73.645069499999991
30
0
40
3.1896205100502684
210
0
220
0
230
1
0
CIRCLE
5
114
100
AcDbEntity
8
0
100
AcDbCircle
10
100.91883600000001
20
-74.83092975000001
30
0
40
2.2810664683851476
210
0
220
0
230
1
0
CIRCLE
5
115
100
AcDbEntity
8
0
100
AcDbCircle
10
102.17445300000001
20
-57.872340250000001
30
0
40
2.6022040920614842
210
0
220
0
230
1
0
CIRCLE
5
116
100
AcDbEntity
8
0
100
AcDbCircle
10
103.43006825000001
20
-40.913752250000002
30
0
40
2.6109620756086183
210
0
220
0
230
1
0
CIRCLE
5
117
100
AcDbEntity
8
0
100
AcDbCircle
10
104.68568525000002
20
-23.955162500000004
30
0
40
4.0355936063424718
210
0
220
0
230
1
0
CIRCLE
5
118
100
AcDbEntity
8
0
100
AcDbCircle
10
120.6797905
20
-73.758612500000012
30
0
40
2.6013036973542309
210
0
220
0
230
1
0
LINE
5
119
100
AcDbEntity
8
0
100
AcDbLine
10
15.63808793720932
20
-18.100865801837564
30
0
11
24.063411448108482
21
-18.101008179353144
31
0
0
LINE
5
120
100
AcDbEntity
8
0
100
AcDbLine
10
24.063411448108482
20
-18.101008179353144
30
0
11
24.063496752433402
21
-13.053044451898048
31
0
0
LINE
5
121
100
AcDbEntity
8
0
100
AcDbLine
10
2.5027541524218035
20
-74.077700847578143
30
0
11
2.5027541524218089
21
0.50000000000000711
31
0
6
DASHED
0
CIRCLE
5
122
100
AcDbEntity
8
0
100
AcDbCircle
10
-43.594491695156393
20
-16.999999999999993
30
0
40
2.400000759959231
210
0
220
0
230
1
0
CIRCLE
5
123
100
AcDbEntity
8
0
100
AcDbCircle
10
-6.609620195156392
20
-44.015254499999998
30
0
40
3.102713407201851
210
0
220
0
230
1
0
CIRCLE
5
124
100
AcDbEntity
8
0
100
AcDbCircle
10
-98.424559945156389
20
-40.913752249999987
30
0
40
2.6109620756086183
210
0
220
0
230
1
0
CIRCLE
5
125
100
AcDbEntity
8
0
100
AcDbCircle
10
-61.594491695156393
20
-25.499999999999989
30
0
40
3.0071036110810478
210
0
220
0
230
1
0
CIRCLE
5
126
100
AcDbEntity
8
0
100
AcDbCircle
10
-61.594491695156378
20
-8.4999999999999876
30
0
40
2.7562988692428991
210
0
220
0
230
1
0
CIRCLE
5
127
100
AcDbEntity
8
0
100
AcDbCircle
10
-97.168944695156398
20
-57.872340249999979
30
0
40
2.6022040920614842
210
0
220
0
230
1
0
CIRCLE
5
128
100
AcDbEntity
8
0
100
AcDbCircle
10
-77.95717569515638
20
-73.645069499999977
30
0
40
3.1896205100502684
210
0
220
0
230
1
0
CIRCLE
5
129
100
AcDbEntity
8
0
100
AcDbCircle
10
-80.782311695156395
20
-35.488244499999986
30
0
40
3.347038196732866
210
0
220
0
230
1
0
CIRCLE
5
130
100
AcDbEntity
8
0
100
AcDbCircle
10
-99.680176945156404
20
-23.955162499999982
30
0
40
4.0355936063424718
210
0
220
0
230
1
0
CIRCLE
5
131
100
AcDbEntity
8
0
100
AcDbCircle
10
-61.594491695156393
20
-42.499999999999993
30
0
40
2.8399004498556213
210
0
220
0
230
1
0
CIRCLE
5
132
100
AcDbEntity
8
0
100
AcDbCircle
10
-95.913327695156397
20
-74.830929749999996
30
0
40
2.2810664683851476
210
0
220
0
230
1
0
CIRCLE
5
133
100
AcDbEntity
8
0
100
AcDbCircle
10
-79.526694695156394
20
-52.44683449999998
30
0
40
2.7120415559354338
210
0
220
0
230
1
0
LINE
5
134
100
AcDbEntity
8
0
100
AcDbLine
10
-19.057903143264863
20
-18.101008179353144
30
0
11
-19.057988447589782
21
-13.053044451898046
31
0
0
CIRCLE
5
135
100
AcDbEntity
8
0
100
AcDbCircle
10
-115.67428219515639
20
-73.758612499999984
30
0
40
2.6013036973542309
210
0
220
0
230
1
0
CIRCLE
5
136
100
AcDbEntity
8
0
100
AcDbCircle
10
-24.999557195156392
20
-64.965326500000003
30
0
40
2.2472910021992951
210
0
220
0
230
1
0
CIRCLE
5
137
100
AcDbEntity
8
0
100
AcDbCircle
10
-82.037928695156381
20
-18.529656499999987
30
0
40
2.4474588550079743
210
0
220
0
230
1
0
LINE
5
138
100
AcDbEntity
8
0
100
AcDbLine
10
-10.632579632365701
20
-18.100865801837564
30
0
11
-19.057903143264863
21
-18.101008179353144
31
0
0
CIRCLE
5
139
100
AcDbEntity
8
0
100
AcDbCircle
10
-24.371271195156385
20
-30.970504749999996
30
0
40
2.5987880361819391
210
0
220
0
230
1
0
CIRCLE
5
140
100
AcDbEntity
8
0
100
AcDbCircle
10
-43.594491695156393
20
-50.999999999999986
30
0
40
2.6000009995240765
210
0
220
0
230
1
0
CIRCLE
5
141
100
AcDbEntity
8
0
100
AcDbCircle
10
-43.594491695156393
20
-33.999999999999993
30
0
40
3.4000007748604166
210
0
220
0
230
1
0
CIRCLE
5
142
100
AcDbEntity
8
0
100
AcDbCircle
10
-24.68541419515639
20
-47.967915500000004
30
0
40
3.0759082473794717
210
0
220
0
230
1
0
ENDSEC
0
SECTION
2
OBJECTS
0
DICTIONARY
5
C
100
AcDbDictionary
3
ACAD_GROUP
350
D
3
ACAD_MLINESTYLE
350
17
0
DICTIONARY
5
D
100
AcDbDictionary
0
DICTIONARY
5
1A
330
C
100
AcDbDictionary
0
DICTIONARY
5
17
100
AcDbDictionary
0
ENDSEC
0
EOF
