0
SECTION
2
HEADER
9
$INSUNITS
70
4
9
$ACADVER
1
AC1014
9
$HANDSEED
5
FFFF
0
ENDSEC
0
SECTION
2
TABLES
0
TABLE
2
VPORT
5
8
100
AcDbSymbolTable
0
ENDTAB
0
TABLE
2
LTYPE
5
5
100
AcDbSymbolTable
0
LTYPE
5
14
100
AcDbSymbolTableRecord
100
AcDbLinetypeTableRecord
2
BYBLOCK
70
0
0
LTYPE
5
15
100
AcDbSymbolTableRecord
100
AcDbLinetypeTableRecord
2
BYLAYER
70
0
0
LTYPE
5
16
100
AcDbSymbolTableRecord
100
AcDbLinetypeTableRecord
2
DASHED
70
0
3
Dashed __ __ __ __ __ __ __ __ __ __ __ __ __ _
72
65
73
2
40
0.75
49
0.5
74
0
49
-0.25
74
0
0
ENDTAB
0
TABLE
2
LAYER
5
2
100
AcDbSymbolTable
70
2
0
LAYER
5
50
100
AcDbSymbolTableRecord
100
AcDbLayerTableRecord
2
0
70
0
62
7
6
CONTINUOUS
0
ENDTAB
0
TABLE
2
STYLE
5
3
100
AcDbSymbolTable
70
1
0
STYLE
5
11
100
AcDbSymbolTableRecord
100
AcDbTextStyleTableRecord
2
STANDARD
70
0
0
ENDTAB
0
TABLE
2
VIEW
5
6
100
AcDbSymbolTable
70
0
0
ENDTAB
0
TABLE
2
UCS
5
7
100
AcDbSymbolTable
70
0
0
ENDTAB
0
TABLE
2
APPID
5
9
100
AcDbSymbolTable
70
2
0
APPID
5
12
100
AcDbSymbolTableRecord
100
AcDbRegAppTableRecord
2
ACAD
70
0
0
ENDTAB
0
TABLE
2
DIMSTYLE
5
A
100
AcDbSymbolTable
70
1
0
ENDTAB
0
TABLE
2
BLOCK_RECORD
5
1
100
AcDbSymbolTable
70
1
0
BLOCK_RECORD
5
1F
100
AcDbSymbolTableRecord
100
AcDbBlockTableRecord
2
*MODEL_SPACE
0
BLOCK_RECORD
5
1B
100
AcDbSymbolTableRecord
100
AcDbBlockTableRecord
2
*PAPER_SPACE
0
ENDTAB
0
ENDSEC
0
SECTION
2
BLOCKS
0
BLOCK
5
20
100
AcDbEntity
100
AcDbBlockBegin
2
*MODEL_SPACE
0
ENDBLK
5
21
100
AcDbEntity
100
AcDbBlockEnd
0
BLOCK
5
1C
100
AcDbEntity
100
AcDbBlockBegin
2
*PAPER_SPACE
0
ENDBLK
5
1D
100
AcDbEntity
100
AcDbBlockEnd
0
ENDSEC
0
SECTION
2
ENTITIES
0
POINT
5
100
100
AcDbEntity
8
0
100
AcDbPoint
10
-12.989136990775528
20
11.497320502165547
30
0
0
LINE
5
101
100
AcDbEntity
8
0
100
AcDbLine
10
-2.3391369907755495
20
61.620284100801939
30
0
11
-19.727549443195205
21
61.620284100801939
31
0
0
LINE
5
102
100
AcDbEntity
8
0
100
AcDbLine
10
-19.727549443195205
20
61.620284100801939
30
0
11
-19.727549443195205
21
73.566778354052275
31
0
0
LINE
5
103
100
AcDbEntity
8
0
100
AcDbLine
10
-19.727549443195205
20
73.566778354052275
30
0
11
-47.36805516276327
21
73.566778354052417
31
0
0
LINE
5
104
100
AcDbEntity
8
0
100
AcDbLine
10
-47.36805516276327
20
73.566778354052417
30
0
11
-57.0752041093195
21
80.657001152341095
31
0
0
LINE
5
105
100
AcDbEntity
8
0
100
AcDbLine
10
-57.0752041093195
20
80.657001152341095
30
0
11
-109.84746806849941
21
84.347196870276093
31
0
0
LINE
5
106
100
AcDbEntity
8
0
100
AcDbLine
10
-109.84746806849941
20
84.347196870276093
30
0
11
-125.79221365178671
21
87.736357408216406
31
0
0
LINE
5
107
100
AcDbEntity
8
0
100
AcDbLine
10
-125.79221365178671
20
87.736357408216406
30
0
11
-131.44741159976147
21
61.130742659272279
31
0
0
LINE
5
108
100
AcDbEntity
8
0
100
AcDbLine
10
-131.44741159976147
20
61.130742659272279
30
0
11
-114.18986153210128
21
57.462536894224442
31
0
0
LINE
5
109
100
AcDbEntity
8
0
100
AcDbLine
10
-114.18986153210128
20
57.462536894224442
30
0
11
-114.18986153210126
21
13.22500000000006
31
0
0
LINE
5
110
100
AcDbEntity
8
0
100
AcDbLine
10
-114.18986153210126
20
13.22500000000006
30
0
11
-109.43986153210122
21
13.225000000000065
31
0
0
LINE
5
111
100
AcDbEntity
8
0
100
AcDbLine
10
-109.43986153210122
20
13.225000000000065
30
0
11
-109.43986153210122
21
0.049999999999998934
31
0
0
LINE
5
112
100
AcDbEntity
8
0
100
AcDbLine
10
-109.43986153210122
20
0.049999999999998934
30
0
11
-43.795029398874377
21
0.049999999999981171
31
0
0
LINE
5
113
100
AcDbEntity
8
0
100
AcDbLine
10
-43.795029398874377
20
0.049999999999981171
30
0
11
-35.295029398874348
21
8.5499999999999954
31
0
0
LINE
5
114
100
AcDbEntity
8
0
100
AcDbLine
10
-35.295029398874348
20
8.5499999999999954
30
0
11
-2.3391369907755433
21
8.5499999999999865
31
0
0
LINE
5
115
100
AcDbEntity
8
0
100
AcDbLine
10
-19.727549443195201
20
61.620284100801939
30
0
11
-19.727549443195194
21
73.566778354052275
31
0
0
LINE
5
116
100
AcDbEntity
8
0
100
AcDbLine
10
-19.727549443195194
20
73.566778354052275
30
0
11
-47.36805516276327
21
73.566778354052417
31
0
0
LINE
5
117
100
AcDbEntity
8
0
100
AcDbLine
10
-47.36805516276327
20
73.566778354052417
30
0
11
-57.0752041093195
21
80.657001152341095
31
0
0
LINE
5
118
100
AcDbEntity
8
0
100
AcDbLine
10
-57.0752041093195
20
80.657001152341095
30
0
11
-109.84746806849941
21
84.347196870276093
31
0
0
LINE
5
119
100
AcDbEntity
8
0
100
AcDbLine
10
-109.84746806849941
20
84.347196870276093
30
0
11
-125.79221365178671
21
87.736357408216406
31
0
0
LINE
5
120
100
AcDbEntity
8
0
100
AcDbLine
10
-125.79221365178671
20
87.736357408216406
30
0
11
-131.44741159976147
21
61.130742659272279
31
0
0
LINE
5
121
100
AcDbEntity
8
0
100
AcDbLine
10
-131.44741159976147
20
61.130742659272279
30
0
11
-114.18986153210128
21
57.462536894224442
31
0
0
LINE
5
122
100
AcDbEntity
8
0
100
AcDbLine
10
-114.18986153210128
20
57.462536894224442
30
0
11
-114.18986153210126
21
13.22500000000006
31
0
0
LINE
5
123
100
AcDbEntity
8
0
100
AcDbLine
10
-114.18986153210126
20
13.22500000000006
30
0
11
-109.43986153210122
21
13.225000000000065
31
0
0
LINE
5
124
100
AcDbEntity
8
0
100
AcDbLine
10
-109.43986153210122
20
13.225000000000065
30
0
11
-109.43986153210122
21
0.049999999999998934
31
0
0
LINE
5
125
100
AcDbEntity
8
0
100
AcDbLine
10
-109.43986153210122
20
0.049999999999998934
30
0
11
-43.795029398874377
21
0.049999999999976924
31
0
0
LINE
5
126
100
AcDbEntity
8
0
100
AcDbLine
10
-43.795029398874377
20
0.049999999999976924
30
0
11
-35.295029398874348
21
8.5499999999999972
31
0
0
LINE
5
127
100
AcDbEntity
8
0
100
AcDbLine
10
-35.295029398874348
20
8.5499999999999972
30
0
11
-2.3391369907755433
21
8.5499999999999901
31
0
0
LINE
5
128
100
AcDbEntity
8
0
100
AcDbLine
10
-2.3391369907755495
20
61.620284100801939
30
0
11
-19.727549443195201
21
61.620284100801939
31
0
0
CIRCLE
5
129
100
AcDbEntity
8
0
100
AcDbCircle
10
-104.68568525000002
20
23.955162500000004
30
0
40
3.4751085032791247
210
0
220
0
230
1
0
CIRCLE
5
130
100
AcDbEntity
8
0
100
AcDbCircle
10
-103.43006825000001
20
40.913752250000002
30
0
40
2.5026794386797668
210
0
220
0
230
1
0
CIRCLE
5
131
100
AcDbEntity
8
0
100
AcDbCircle
10
-102.17445300000001
20
57.872340250000001
30
0
40
3.4492266915864351
210
0
220
0
230
1
0
CIRCLE
5
132
100
AcDbEntity
8
0
100
AcDbCircle
10
-100.91883600000001
20
74.83092975000001
30
0
40
3.0049697075732063
210
0
220
0
230
1
0
CIRCLE
5
133
100
AcDbEntity
8
0
100
AcDbCircle
10
-120.38565217826959
20
72.529973987116293
30
0
40
3.7656525124719762
210
0
220
0
230
1
0
CIRCLE
5
134
100
AcDbEntity
8
0
100
AcDbCircle
10
-82.962683999999996
20
73.645069499999991
30
0
40
2.8251360000000147
210
0
220
0
230
1
0
CIRCLE
5
135
100
AcDbEntity
8
0
100
AcDbCircle
10
-84.532202999999996
20
52.446834500000001
30
0
40
3.7997303454074065
210
0
220
0
230
1
0
CIRCLE
5
136
100
AcDbEntity
8
0
100
AcDbCircle
10
-85.787820000000011
20
35.4882445
30
0
40
3.347038196732866
210
0
220
0
230
1
0
CIRCLE
5
137
100
AcDbEntity
8
0
100
AcDbCircle
10
-87.043436999999983
20
18.529656500000002
30
0
40
3.8527744882285235
210
0
220
0
230
1
0
CIRCLE
5
138
100
AcDbEntity
8
0
100
AcDbCircle
10
-66.599999999999994
20
8.5
30
0
40
3.716181849693132
210
0
220
0
230
1
0
CIRCLE
5
139
100
AcDbEntity
8
0
100
AcDbCircle
10
-66.599999999999994
20
25.5
30
0
40
2.8301954247471786
210
0
220
0
230
1
0
CIRCLE
5
140
100
AcDbEntity
8
0
100
AcDbCircle
10
-66.599999999999994
20
42.5
30
0
40
3.6353940244017124
210
0
220
0
230
1
0
CIRCLE
5
141
100
AcDbEntity
8
0
100
AcDbCircle
10
-48.600000000000001
20
34
30
0
40
3.9446175245286685
210
0
220
0
230
1
0
CIRCLE
5
142
100
AcDbEntity
8
0
100
AcDbCircle
10
-48.600000000000001
20
17
30
0
40
2.6000008046627023
210
0
220
0
230
1
0
CIRCLE
5
143
100
AcDbEntity
8
0
100
AcDbCircle
10
-48.600000000000001
20
51
30
0
40
2.6000009995240765
210
0
220
0
230
1
0
CIRCLE
5
144
100
AcDbEntity
8
0
100
AcDbCircle
10
-29.690922499999999
20
47.967915500000004
30
0
40
3.4662944303268466
210
0
220
0
230
1
0
CIRCLE
5
145
100
AcDbEntity
8
0
100
AcDbCircle
10
-29.376779500000005
20
30.97050475
30
0
40
1.9221622571584274
210
0
220
0
230
1
0
CIRCLE
5
146
100
AcDbEntity
8
0
100
AcDbCircle
10
-30.005065500000001
20
64.965326500000003
30
0
40
3.1686253946303355
210
0
220
0
230
1
0
CIRCLE
5
147
100
AcDbEntity
8
0
100
AcDbCircle
10
-12.019124575850666
20
44.008202730434114
30
0
40
3.0474022215049574
210
0
220
0
230
1
0
CIRCLE
5
148
100
AcDbEntity
8
0
100
AcDbCircle
10
-107.06486153210122
20
3.6999998230710993
30
0
40
0.87500000000000011
210
0
220
0
230
1
0
CIRCLE
5
149
100
AcDbEntity
8
0
100
AcDbCircle
10
-107.06486153210122
20
6.9499998230711002
30
0
40
0.87500000000000011
210
0
220
0
230
1
0
LINE
5
150
100
AcDbEntity
8
0
100
AcDbLine
10
-2.3391369907755437
20
8.5499999999999901
30
0
11
-1.9391369907755367
21
8.5499999999999901
31
0
0
LINE
5
151
100
AcDbEntity
8
0
100
AcDbLine
10
-1.9391369907755367
20
8.5499999999999901
30
0
11
-1.9391369907755367
21
61.620284100801939
31
0
0
LINE
5
152
100
AcDbEntity
8
0
100
AcDbLine
10
-1.9391369907755367
20
61.620284100801939
30
0
11
-2.3391369907755495
21
61.620284100801939
31
0
0
LINE
5
153
100
AcDbEntity
8
0
100
AcDbLine
10
-3.4391369907755371
20
10.049999999999994
30
0
11
-21.689136990775534
21
10.049999999999994
31
0
0
LINE
5
154
100
AcDbEntity
8
0
100
AcDbLine
10
-21.689136990775534
20
10.049999999999994
30
0
11
-21.689136990775534
21
32.799999999999997
31
0
0
LINE
5
155
100
AcDbEntity
8
0
100
AcDbLine
10
-21.689136990775534
20
32.799999999999997
30
0
11
-3.4391369907755371
21
32.799999999999997
31
0
0
LINE
5
156
100
AcDbEntity
8
0
100
AcDbLine
10
-3.4391369907755371
20
32.799999999999997
30
0
11
-3.4391369907755371
21
10.049999999999994
31
0
0
LWPOLYLINE
5
157
100
AcDbEntity
8
0
100
AcDbPolyline
90
4
70
1
43
0.0
10
10.060863009224466
20
47.085142050400961
10
-1.9391369907755367
20
47.085142050400961
10
-1.9391369907755367
20
53.085142050400968
10
10.060863009224466
20
53.085142050400968
0
LWPOLYLINE
5
158
100
AcDbEntity
8
0
100
AcDbPolyline
90
4
70
1
43
0.0
10
-1.9391369907755367
20
17.085142050400961
10
10.060863009224466
20
17.085142050400961
10
10.060863009224466
20
23.085142050400968
10
-1.9391369907755367
20
23.085142050400968
0
CIRCLE
5
159
100
AcDbEntity
8
0
100
AcDbCircle
10
-12.564136990775536
20
21.42499999999999
30
0
40
2.5
210
0
220
0
230
1
0
LINE
5
160
100
AcDbEntity
8
0
100
AcDbLine
10
27.84927546164413
20
61.620284100801939
30
0
11
27.84927546164413
21
73.566778354052275
31
0
0
LINE
5
161
100
AcDbEntity
8
0
100
AcDbLine
10
27.84927546164413
20
73.566778354052275
30
0
11
55.489781181212194
21
73.566778354052417
31
0
0
LINE
5
162
100
AcDbEntity
8
0
100
AcDbLine
10
55.489781181212194
20
73.566778354052417
30
0
11
65.196930127768425
21
80.657001152341095
31
0
0
LINE
5
163
100
AcDbEntity
8
0
100
AcDbLine
10
65.196930127768425
20
80.657001152341095
30
0
11
117.96919408694833
21
84.347196870276093
31
0
0
LINE
5
164
100
AcDbEntity
8
0
100
AcDbLine
10
117.96919408694833
20
84.347196870276093
30
0
11
133.91393967023564
21
87.736357408216406
31
0
0
LINE
5
165
100
AcDbEntity
8
0
100
AcDbLine
10
133.91393967023564
20
87.736357408216406
30
0
11
139.56913761821039
21
61.130742659272279
31
0
0
LINE
5
166
100
AcDbEntity
8
0
100
AcDbLine
10
139.56913761821039
20
61.130742659272279
30
0
11
122.3115875505502
21
57.462536894224442
31
0
0
LINE
5
167
100
AcDbEntity
8
0
100
AcDbLine
10
10.460863009224477
20
61.620284100801939
30
0
11
27.84927546164413
21
61.620284100801939
31
0
0
LINE
5
168
100
AcDbEntity
8
0
100
AcDbLine
10
122.31158755055019
20
13.22500000000006
30
0
11
117.56158755055014
21
13.225000000000065
31
0
0
LINE
5
169
100
AcDbEntity
8
0
100
AcDbLine
10
117.56158755055014
20
13.225000000000065
30
0
11
117.56158755055014
21
0.049999999999998934
31
0
0
LINE
5
170
100
AcDbEntity
8
0
100
AcDbLine
10
117.56158755055014
20
0.049999999999998934
30
0
11
51.916755417323301
21
0.049999999999981171
31
0
0
LINE
5
171
100
AcDbEntity
8
0
100
AcDbLine
10
51.916755417323301
20
0.049999999999981171
30
0
11
43.416755417323273
21
8.5499999999999954
31
0
0
LINE
5
172
100
AcDbEntity
8
0
100
AcDbLine
10
43.416755417323273
20
8.5499999999999954
30
0
11
10.460863009224472
21
8.5499999999999865
31
0
0
LINE
5
173
100
AcDbEntity
8
0
100
AcDbLine
10
122.3115875505502
20
57.462536894224442
30
0
11
122.31158755055019
21
13.22500000000006
31
0
0
LINE
5
174
100
AcDbEntity
8
0
100
AcDbLine
10
10.060863009224466
20
8.5499999999999954
30
0
11
10.060863009224466
21
61.620284100801939
31
0
0
LWPOLYLINE
5
175
100
AcDbEntity
8
0
100
AcDbPolyline
90
4
70
1
43
0.0
10
11.560863009224464
20
10.049999999999999
10
29.810863009224459
20
10.049999999999999
10
29.810863009224459
20
32.799999999999997
10
11.560863009224464
20
32.799999999999997
0
CIRCLE
5
176
100
AcDbEntity
8
0
100
AcDbCircle
10
20.685863009224462
20
21.42499999999999
30
0
40
2.5
210
0
220
0
230
1
0
CIRCLE
5
177
100
AcDbEntity
8
0
100
AcDbCircle
10
115.18658755055014
20
6.9499998230711046
30
0
40
0.87500000000000011
210
0
220
0
230
1
0
CIRCLE
5
178
100
AcDbEntity
8
0
100
AcDbCircle
10
115.18658755055014
20
3.6999998230711029
30
0
40
0.87500000000000011
210
0
220
0
230
1
0
CIRCLE
5
179
100
AcDbEntity
8
0
100
AcDbCircle
10
112.80741126844894
20
23.955162500000004
30
0
40
3.4751085032791247
210
0
220
0
230
1
0
CIRCLE
5
180
100
AcDbEntity
8
0
100
AcDbCircle
10
95.165163018448908
20
18.529656500000002
30
0
40
3.8527744882285235
210
0
220
0
230
1
0
CIRCLE
5
181
100
AcDbEntity
8
0
100
AcDbCircle
10
74.721726018448919
20
8.4999999999999964
30
0
40
3.716181849693132
210
0
220
0
230
1
0
CIRCLE
5
182
100
AcDbEntity
8
0
100
AcDbCircle
10
56.721726018448926
20
17
30
0
40
2.6000008046627023
210
0
220
0
230
1
0
CIRCLE
5
183
100
AcDbEntity
8
0
100
AcDbCircle
10
37.49850551844893
20
30.97050475
30
0
40
1.9221622571584274
210
0
220
0
230
1
0
CIRCLE
5
184
100
AcDbEntity
8
0
100
AcDbCircle
10
20.140850594299593
20
44.008202730434114
30
0
40
3.0474022215049574
210
0
220
0
230
1
0
CIRCLE
5
185
100
AcDbEntity
8
0
100
AcDbCircle
10
37.812648518448924
20
47.967915500000004
30
0
40
3.4662944303268466
210
0
220
0
230
1
0
CIRCLE
5
186
100
AcDbEntity
8
0
100
AcDbCircle
10
56.721726018448926
20
34
30
0
40
3.9446175245286685
210
0
220
0
230
1
0
CIRCLE
5
187
100
AcDbEntity
8
0
100
AcDbCircle
10
56.721726018448926
20
51
30
0
40
2.6000009995240765
210
0
220
0
230
1
0
CIRCLE
5
188
100
AcDbEntity
8
0
100
AcDbCircle
10
38.126791518448925
20
64.965326500000003
30
0
40
3.1686253946303355
210
0
220
0
230
1
0
CIRCLE
5
189
100
AcDbEntity
8
0
100
AcDbCircle
10
74.721726018448919
20
42.5
30
0
40
3.6353940244017124
210
0
220
0
230
1
0
CIRCLE
5
190
100
AcDbEntity
8
0
100
AcDbCircle
10
74.721726018448919
20
25.5
30
0
40
2.8301954247471786
210
0
220
0
230
1
0
CIRCLE
5
191
100
AcDbEntity
8
0
100
AcDbCircle
10
93.909546018448935
20
35.4882445
30
0
40
3.347038196732866
210
0
220
0
230
1
0
CIRCLE
5
192
100
AcDbEntity
8
0
100
AcDbCircle
10
92.65392901844892
20
52.446834500000001
30
0
40
3.7997303454074065
210
0
220
0
230
1
0
CIRCLE
5
193
100
AcDbEntity
8
0
100
AcDbCircle
10
111.55179426844893
20
40.913752250000002
30
0
40
2.5026794386797668
210
0
220
0
230
1
0
CIRCLE
5
194
100
AcDbEntity
8
0
100
AcDbCircle
10
110.29617901844894
20
57.872340250000001
30
0
40
3.4492266915864351
210
0
220
0
230
1
0
CIRCLE
5
195
100
AcDbEntity
8
0
100
AcDbCircle
10
128.50737819671852
20
72.529973987116293
30
0
40
3.7656525124719762
210
0
220
0
230
1
0
CIRCLE
5
196
100
AcDbEntity
8
0
100
AcDbCircle
10
109.04056201844894
20
74.83092975000001
30
0
40
3.0049697075732063
210
0
220
0
230
1
0
CIRCLE
5
197
100
AcDbEntity
8
0
100
AcDbCircle
10
91.084410018448921
20
73.645069499999991
30
0
40
2.8251360000000147
210
0
220
0
230
1
0
LINE
5
198
100
AcDbEntity
8
0
100
AcDbLine
10
10.060863009224466
20
61.620284100801939
30
0
11
10.460863009224477
21
61.620284100801939
31
0
0
LINE
5
199
100
AcDbEntity
8
0
100
AcDbLine
10
10.460863009224472
20
8.5499999999999954
30
0
11
10.060863009224466
21
8.5499999999999954
31
0
0
ENDSEC
0
SECTION
2
OBJECTS
0
DICTIONARY
5
C
100
AcDbDictionary
3
ACAD_GROUP
350
D
3
ACAD_MLINESTYLE
350
17
0
DICTIONARY
5
D
100
AcDbDictionary
0
DICTIONARY
5
1A
330
C
100
AcDbDictionary
0
DICTIONARY
5
17
100
AcDbDictionary
0
ENDSEC
0
EOF
