0
SECTION
2
HEADER
9
$INSUNITS
70
4
9
$ACADVER
1
AC1014
9
$HANDSEED
5
FFFF
0
ENDSEC
0
SECTION
2
TABLES
0
TABLE
2
VPORT
5
8
100
AcDbSymbolTable
0
ENDTAB
0
TABLE
2
LTYPE
5
5
100
AcDbSymbolTable
0
LTYPE
5
14
100
AcDbSymbolTableRecord
100
AcDbLinetypeTableRecord
2
BYBLOCK
70
0
0
LTYPE
5
15
100
AcDbSymbolTableRecord
100
AcDbLinetypeTableRecord
2
BYLAYER
70
0
0
LTYPE
5
16
100
AcDbSymbolTableRecord
100
AcDbLinetypeTableRecord
2
DASHED
70
0
3
Dashed __ __ __ __ __ __ __ __ __ __ __ __ __ _
72
65
73
2
40
0.75
49
0.5
74
0
49
-0.25
74
0
0
ENDTAB
0
TABLE
2
LAYER
5
2
100
AcDbSymbolTable
70
2
0
LAYER
5
50
100
AcDbSymbolTableRecord
100
AcDbLayerTableRecord
2
0
70
0
62
7
6
CONTINUOUS
0
ENDTAB
0
TABLE
2
STYLE
5
3
100
AcDbSymbolTable
70
1
0
STYLE
5
11
100
AcDbSymbolTableRecord
100
AcDbTextStyleTableRecord
2
STANDARD
70
0
0
ENDTAB
0
TABLE
2
VIEW
5
6
100
AcDbSymbolTable
70
0
0
ENDTAB
0
TABLE
2
UCS
5
7
100
AcDbSymbolTable
70
0
0
ENDTAB
0
TABLE
2
APPID
5
9
100
AcDbSymbolTable
70
2
0
APPID
5
12
100
AcDbSymbolTableRecord
100
AcDbRegAppTableRecord
2
ACAD
70
0
0
ENDTAB
0
TABLE
2
DIMSTYLE
5
A
100
AcDbSymbolTable
70
1
0
ENDTAB
0
TABLE
2
BLOCK_RECORD
5
1
100
AcDbSymbolTable
70
1
0
BLOCK_RECORD
5
1F
100
AcDbSymbolTableRecord
100
AcDbBlockTableRecord
2
*MODEL_SPACE
0
BLOCK_RECORD
5
1B
100
AcDbSymbolTableRecord
100
AcDbBlockTableRecord
2
*PAPER_SPACE
0
ENDTAB
0
ENDSEC
0
SECTION
2
BLOCKS
0
BLOCK
5
20
100
AcDbEntity
100
AcDbBlockBegin
2
*MODEL_SPACE
0
ENDBLK
5
21
100
AcDbEntity
100
AcDbBlockEnd
0
BLOCK
5
1C
100
AcDbEntity
100
AcDbBlockBegin
2
*PAPER_SPACE
0
ENDBLK
5
1D
100
AcDbEntity
100
AcDbBlockEnd
0
ENDSEC
0
SECTION
2
ENTITIES
0
LWPOLYLINE
5
100
100
AcDbEntity
8
0
100
AcDbPolyline
90
19
70
1
43
0.0
10
109.43986153210125
20
-0.049999999999996714
10
43.795029398874377
20
-0.049999999999976924
10
35.295029398874348
20
-8.5499999999999972
10
7.6391369907755369
20
-8.5499999999999901
10
7.639136990775536
20
-10.849999999999993
10
2.3391369907755468
20
-10.849999999999998
10
2.3391369907755495
20
-61.620284100801939
10
19.727549443195201
20
-61.620284100801939
10
19.727549443195194
20
-73.566778354052275
10
47.36805516276327
20
-73.566778354052417
10
57.0752041093195
20
-80.657001152341095
10
109.84746806849941
20
-84.347196870276093
10
125.79221365178671
20
-87.736357408216406
10
131.44741159976147
20
-61.130742659272279
10
114.18986153210128
20
-57.462536894224442
10
114.18986153210125
20
-33.390000000000008
10
114.18986153210125
20
-26.790000000000006
10
114.18986153210126
20
-13.825000000000076
10
109.43986153210125
20
-13.825000000000076
0
LINE
5
101
100
AcDbEntity
8
0
100
AcDbLine
10
-109.51158755055016
20
-26.790000000000017
30
0
11
-109.51158755055017
21
-13.825000000000088
31
0
0
LINE
5
102
100
AcDbEntity
8
0
100
AcDbLine
10
-109.51158755055017
20
-13.825000000000088
30
0
11
-104.76158755055016
21
-13.825000000000085
31
0
0
LINE
5
103
100
AcDbEntity
8
0
100
AcDbLine
10
-104.76158755055016
20
-13.825000000000085
30
0
11
-104.76158755055016
21
-0.050000000000005596
31
0
0
LINE
5
104
100
AcDbEntity
8
0
100
AcDbLine
10
-104.76158755055016
20
-0.050000000000005596
30
0
11
-39.11675541732329
21
-0.049999999999981171
31
0
0
LINE
5
105
100
AcDbEntity
8
0
100
AcDbLine
10
-39.11675541732329
20
-0.049999999999981171
30
0
11
-30.616755417323247
21
-8.5500000000000007
31
0
0
LINE
5
106
100
AcDbEntity
8
0
100
AcDbLine
10
-30.616755417323247
20
-8.5500000000000007
30
0
11
-2.9608630092244415
21
-8.5499999999999901
31
0
0
LINE
5
107
100
AcDbEntity
8
0
100
AcDbLine
10
-2.9608630092244415
20
-8.5499999999999901
30
0
11
-2.9608630092244419
21
-10.849999999999993
31
0
0
LINE
5
108
100
AcDbEntity
8
0
100
AcDbLine
10
-2.9608630092244419
20
-10.849999999999993
30
0
11
2.3391369907755473
21
-10.849999999999998
31
0
0
LINE
5
109
100
AcDbEntity
8
0
100
AcDbLine
10
2.3391369907755473
20
-10.849999999999998
30
0
11
2.3391369907755495
21
-61.620284100801939
31
0
0
LINE
5
110
100
AcDbEntity
8
0
100
AcDbLine
10
-15.0492754616441
20
-61.620284100801939
30
0
11
-15.049275461644097
21
-73.566778354052275
31
0
0
LINE
5
111
100
AcDbEntity
8
0
100
AcDbLine
10
-15.049275461644097
20
-73.566778354052275
30
0
11
-42.689781181212183
21
-73.566778354052417
31
0
0
LINE
5
112
100
AcDbEntity
8
0
100
AcDbLine
10
-42.689781181212183
20
-73.566778354052417
30
0
11
-52.396930127768414
21
-80.657001152341095
31
0
0
LINE
5
113
100
AcDbEntity
8
0
100
AcDbLine
10
-52.396930127768414
20
-80.657001152341095
30
0
11
-105.16919408694832
21
-84.347196870276093
31
0
0
LINE
5
114
100
AcDbEntity
8
0
100
AcDbLine
10
-105.16919408694832
20
-84.347196870276093
30
0
11
-121.11393967023562
21
-87.736357408216406
31
0
0
LINE
5
115
100
AcDbEntity
8
0
100
AcDbLine
10
-121.11393967023562
20
-87.736357408216406
30
0
11
-126.76913761821039
21
-61.130742659272286
31
0
0
LINE
5
116
100
AcDbEntity
8
0
100
AcDbLine
10
-126.76913761821039
20
-61.130742659272286
30
0
11
-109.51158755055019
21
-57.462536894224449
31
0
0
LINE
5
117
100
AcDbEntity
8
0
100
AcDbLine
10
-109.51158755055019
20
-57.462536894224449
30
0
11
-109.51158755055016
21
-33.390000000000022
31
0
0
LINE
5
118
100
AcDbEntity
8
0
100
AcDbLine
10
2.3391369907755495
20
-61.620284100801939
30
0
11
-15.0492754616441
21
-61.620284100801939
31
0
0
LINE
5
119
100
AcDbEntity
8
0
100
AcDbLine
10
-109.51158755055016
20
-26.790000000000017
30
0
11
-109.51158755055016
21
-33.390000000000022
31
0
0
ENDSEC
0
SECTION
2
OBJECTS
0
DICTIONARY
5
C
100
AcDbDictionary
3
ACAD_GROUP
350
D
3
ACAD_MLINESTYLE
350
17
0
DICTIONARY
5
D
100
AcDbDictionary
0
DICTIONARY
5
1A
330
C
100
AcDbDictionary
0
DICTIONARY
5
17
100
AcDbDictionary
0
ENDSEC
0
EOF
