%TF.GenerationSoftware,KiCad,Pcbnew,9.0.2*%
%TF.CreationDate,2025-07-04T08:31:17-06:00*%
%TF.ProjectId,Orcus,4f726375-732e-46b6-9963-61645f706362,rev?*%
%TF.SameCoordinates,Original*%
%TF.FileFunction,AssemblyDrawing,Top*%
%FSLAX46Y46*%
G04 Gerber Fmt 4.6, Leading zero omitted, Abs format (unit mm)*
G04 Created by KiCad (PCBNEW 9.0.2) date 2025-07-04 08:31:17*
%MOMM*%
%LPD*%
G01*
G04 APERTURE LIST*
%ADD10C,2.000000*%
%ADD11C,0.150000*%
%ADD12C,0.100000*%
G04 APERTURE END LIST*
D10*
X147660863Y-43063642D02*
X147660863Y-93833926D01*
D11*
X147115682Y-35048315D02*
X148115682Y-34714982D01*
X148115682Y-34714982D02*
X147115682Y-34381649D01*
X148068063Y-34095934D02*
X148115682Y-34000696D01*
X148115682Y-34000696D02*
X148115682Y-33810220D01*
X148115682Y-33810220D02*
X148068063Y-33714982D01*
X148068063Y-33714982D02*
X147972824Y-33667363D01*
X147972824Y-33667363D02*
X147925205Y-33667363D01*
X147925205Y-33667363D02*
X147829967Y-33714982D01*
X147829967Y-33714982D02*
X147782348Y-33810220D01*
X147782348Y-33810220D02*
X147782348Y-33953077D01*
X147782348Y-33953077D02*
X147734729Y-34048315D01*
X147734729Y-34048315D02*
X147639491Y-34095934D01*
X147639491Y-34095934D02*
X147591872Y-34095934D01*
X147591872Y-34095934D02*
X147496634Y-34048315D01*
X147496634Y-34048315D02*
X147449015Y-33953077D01*
X147449015Y-33953077D02*
X147449015Y-33810220D01*
X147449015Y-33810220D02*
X147496634Y-33714982D01*
X148068063Y-32810220D02*
X148115682Y-32905458D01*
X148115682Y-32905458D02*
X148115682Y-33095934D01*
X148115682Y-33095934D02*
X148068063Y-33191172D01*
X148068063Y-33191172D02*
X148020443Y-33238791D01*
X148020443Y-33238791D02*
X147925205Y-33286410D01*
X147925205Y-33286410D02*
X147639491Y-33286410D01*
X147639491Y-33286410D02*
X147544253Y-33238791D01*
X147544253Y-33238791D02*
X147496634Y-33191172D01*
X147496634Y-33191172D02*
X147449015Y-33095934D01*
X147449015Y-33095934D02*
X147449015Y-32905458D01*
X147449015Y-32905458D02*
X147496634Y-32810220D01*
X148115682Y-32238791D02*
X148068063Y-32334029D01*
X148068063Y-32334029D02*
X148020443Y-32381648D01*
X148020443Y-32381648D02*
X147925205Y-32429267D01*
X147925205Y-32429267D02*
X147639491Y-32429267D01*
X147639491Y-32429267D02*
X147544253Y-32381648D01*
X147544253Y-32381648D02*
X147496634Y-32334029D01*
X147496634Y-32334029D02*
X147449015Y-32238791D01*
X147449015Y-32238791D02*
X147449015Y-32095934D01*
X147449015Y-32095934D02*
X147496634Y-32000696D01*
X147496634Y-32000696D02*
X147544253Y-31953077D01*
X147544253Y-31953077D02*
X147639491Y-31905458D01*
X147639491Y-31905458D02*
X147925205Y-31905458D01*
X147925205Y-31905458D02*
X148020443Y-31953077D01*
X148020443Y-31953077D02*
X148068063Y-32000696D01*
X148068063Y-32000696D02*
X148115682Y-32095934D01*
X148115682Y-32095934D02*
X148115682Y-32238791D01*
X148115682Y-31476886D02*
X147449015Y-31476886D01*
X147639491Y-31476886D02*
X147544253Y-31429267D01*
X147544253Y-31429267D02*
X147496634Y-31381648D01*
X147496634Y-31381648D02*
X147449015Y-31286410D01*
X147449015Y-31286410D02*
X147449015Y-31191172D01*
X148068063Y-30476886D02*
X148115682Y-30572124D01*
X148115682Y-30572124D02*
X148115682Y-30762600D01*
X148115682Y-30762600D02*
X148068063Y-30857838D01*
X148068063Y-30857838D02*
X147972824Y-30905457D01*
X147972824Y-30905457D02*
X147591872Y-30905457D01*
X147591872Y-30905457D02*
X147496634Y-30857838D01*
X147496634Y-30857838D02*
X147449015Y-30762600D01*
X147449015Y-30762600D02*
X147449015Y-30572124D01*
X147449015Y-30572124D02*
X147496634Y-30476886D01*
X147496634Y-30476886D02*
X147591872Y-30429267D01*
X147591872Y-30429267D02*
X147687110Y-30429267D01*
X147687110Y-30429267D02*
X147782348Y-30905457D01*
X147068063Y-29286410D02*
X148353777Y-30143552D01*
X148068063Y-29000695D02*
X148115682Y-28905457D01*
X148115682Y-28905457D02*
X148115682Y-28714981D01*
X148115682Y-28714981D02*
X148068063Y-28619743D01*
X148068063Y-28619743D02*
X147972824Y-28572124D01*
X147972824Y-28572124D02*
X147925205Y-28572124D01*
X147925205Y-28572124D02*
X147829967Y-28619743D01*
X147829967Y-28619743D02*
X147782348Y-28714981D01*
X147782348Y-28714981D02*
X147782348Y-28857838D01*
X147782348Y-28857838D02*
X147734729Y-28953076D01*
X147734729Y-28953076D02*
X147639491Y-29000695D01*
X147639491Y-29000695D02*
X147591872Y-29000695D01*
X147591872Y-29000695D02*
X147496634Y-28953076D01*
X147496634Y-28953076D02*
X147449015Y-28857838D01*
X147449015Y-28857838D02*
X147449015Y-28714981D01*
X147449015Y-28714981D02*
X147496634Y-28619743D01*
X147449015Y-28286409D02*
X147449015Y-27905457D01*
X147115682Y-28143552D02*
X147972824Y-28143552D01*
X147972824Y-28143552D02*
X148068063Y-28095933D01*
X148068063Y-28095933D02*
X148115682Y-28000695D01*
X148115682Y-28000695D02*
X148115682Y-27905457D01*
X148115682Y-27143552D02*
X147591872Y-27143552D01*
X147591872Y-27143552D02*
X147496634Y-27191171D01*
X147496634Y-27191171D02*
X147449015Y-27286409D01*
X147449015Y-27286409D02*
X147449015Y-27476885D01*
X147449015Y-27476885D02*
X147496634Y-27572123D01*
X148068063Y-27143552D02*
X148115682Y-27238790D01*
X148115682Y-27238790D02*
X148115682Y-27476885D01*
X148115682Y-27476885D02*
X148068063Y-27572123D01*
X148068063Y-27572123D02*
X147972824Y-27619742D01*
X147972824Y-27619742D02*
X147877586Y-27619742D01*
X147877586Y-27619742D02*
X147782348Y-27572123D01*
X147782348Y-27572123D02*
X147734729Y-27476885D01*
X147734729Y-27476885D02*
X147734729Y-27238790D01*
X147734729Y-27238790D02*
X147687110Y-27143552D01*
X148115682Y-26667361D02*
X147449015Y-26667361D01*
X147544253Y-26667361D02*
X147496634Y-26619742D01*
X147496634Y-26619742D02*
X147449015Y-26524504D01*
X147449015Y-26524504D02*
X147449015Y-26381647D01*
X147449015Y-26381647D02*
X147496634Y-26286409D01*
X147496634Y-26286409D02*
X147591872Y-26238790D01*
X147591872Y-26238790D02*
X148115682Y-26238790D01*
X147591872Y-26238790D02*
X147496634Y-26191171D01*
X147496634Y-26191171D02*
X147449015Y-26095933D01*
X147449015Y-26095933D02*
X147449015Y-25953076D01*
X147449015Y-25953076D02*
X147496634Y-25857837D01*
X147496634Y-25857837D02*
X147591872Y-25810218D01*
X147591872Y-25810218D02*
X148115682Y-25810218D01*
X147449015Y-25334028D02*
X148449015Y-25334028D01*
X147496634Y-25334028D02*
X147449015Y-25238790D01*
X147449015Y-25238790D02*
X147449015Y-25048314D01*
X147449015Y-25048314D02*
X147496634Y-24953076D01*
X147496634Y-24953076D02*
X147544253Y-24905457D01*
X147544253Y-24905457D02*
X147639491Y-24857838D01*
X147639491Y-24857838D02*
X147925205Y-24857838D01*
X147925205Y-24857838D02*
X148020443Y-24905457D01*
X148020443Y-24905457D02*
X148068063Y-24953076D01*
X148068063Y-24953076D02*
X148115682Y-25048314D01*
X148115682Y-25048314D02*
X148115682Y-25238790D01*
X148115682Y-25238790D02*
X148068063Y-25334028D01*
X148115682Y-23667361D02*
X147115682Y-23667361D01*
X148115682Y-23238790D02*
X147591872Y-23238790D01*
X147591872Y-23238790D02*
X147496634Y-23286409D01*
X147496634Y-23286409D02*
X147449015Y-23381647D01*
X147449015Y-23381647D02*
X147449015Y-23524504D01*
X147449015Y-23524504D02*
X147496634Y-23619742D01*
X147496634Y-23619742D02*
X147544253Y-23667361D01*
X148115682Y-22619742D02*
X148068063Y-22714980D01*
X148068063Y-22714980D02*
X148020443Y-22762599D01*
X148020443Y-22762599D02*
X147925205Y-22810218D01*
X147925205Y-22810218D02*
X147639491Y-22810218D01*
X147639491Y-22810218D02*
X147544253Y-22762599D01*
X147544253Y-22762599D02*
X147496634Y-22714980D01*
X147496634Y-22714980D02*
X147449015Y-22619742D01*
X147449015Y-22619742D02*
X147449015Y-22476885D01*
X147449015Y-22476885D02*
X147496634Y-22381647D01*
X147496634Y-22381647D02*
X147544253Y-22334028D01*
X147544253Y-22334028D02*
X147639491Y-22286409D01*
X147639491Y-22286409D02*
X147925205Y-22286409D01*
X147925205Y-22286409D02*
X148020443Y-22334028D01*
X148020443Y-22334028D02*
X148068063Y-22381647D01*
X148068063Y-22381647D02*
X148115682Y-22476885D01*
X148115682Y-22476885D02*
X148115682Y-22619742D01*
X148115682Y-21714980D02*
X148068063Y-21810218D01*
X148068063Y-21810218D02*
X147972824Y-21857837D01*
X147972824Y-21857837D02*
X147115682Y-21857837D01*
X148068063Y-20953075D02*
X148115682Y-21048313D01*
X148115682Y-21048313D02*
X148115682Y-21238789D01*
X148115682Y-21238789D02*
X148068063Y-21334027D01*
X148068063Y-21334027D02*
X147972824Y-21381646D01*
X147972824Y-21381646D02*
X147591872Y-21381646D01*
X147591872Y-21381646D02*
X147496634Y-21334027D01*
X147496634Y-21334027D02*
X147449015Y-21238789D01*
X147449015Y-21238789D02*
X147449015Y-21048313D01*
X147449015Y-21048313D02*
X147496634Y-20953075D01*
X147496634Y-20953075D02*
X147591872Y-20905456D01*
X147591872Y-20905456D02*
X147687110Y-20905456D01*
X147687110Y-20905456D02*
X147782348Y-21381646D01*
X148068063Y-20524503D02*
X148115682Y-20429265D01*
X148115682Y-20429265D02*
X148115682Y-20238789D01*
X148115682Y-20238789D02*
X148068063Y-20143551D01*
X148068063Y-20143551D02*
X147972824Y-20095932D01*
X147972824Y-20095932D02*
X147925205Y-20095932D01*
X147925205Y-20095932D02*
X147829967Y-20143551D01*
X147829967Y-20143551D02*
X147782348Y-20238789D01*
X147782348Y-20238789D02*
X147782348Y-20381646D01*
X147782348Y-20381646D02*
X147734729Y-20476884D01*
X147734729Y-20476884D02*
X147639491Y-20524503D01*
X147639491Y-20524503D02*
X147591872Y-20524503D01*
X147591872Y-20524503D02*
X147496634Y-20476884D01*
X147496634Y-20476884D02*
X147449015Y-20381646D01*
X147449015Y-20381646D02*
X147449015Y-20238789D01*
X147449015Y-20238789D02*
X147496634Y-20143551D01*
D12*
X147660863Y-42563642D02*
X147660863Y-40224505D01*
X147660863Y-42563642D02*
X147074442Y-41437138D01*
X147660863Y-42563642D02*
X148247284Y-41437138D01*
X147660863Y-40224505D02*
X147660863Y-35768554D01*
D11*
X254460454Y-35019593D02*
X254460454Y-34257689D01*
X236446407Y-39176499D02*
X236446407Y-39652689D01*
X236446407Y-39652689D02*
X235446407Y-39652689D01*
X235922597Y-38843165D02*
X235922597Y-38509832D01*
X236446407Y-38366975D02*
X236446407Y-38843165D01*
X236446407Y-38843165D02*
X235446407Y-38843165D01*
X235446407Y-38843165D02*
X235446407Y-38366975D01*
X236446407Y-37938403D02*
X235446407Y-37938403D01*
X235446407Y-37938403D02*
X235446407Y-37700308D01*
X235446407Y-37700308D02*
X235494026Y-37557451D01*
X235494026Y-37557451D02*
X235589264Y-37462213D01*
X235589264Y-37462213D02*
X235684502Y-37414594D01*
X235684502Y-37414594D02*
X235874978Y-37366975D01*
X235874978Y-37366975D02*
X236017835Y-37366975D01*
X236017835Y-37366975D02*
X236208311Y-37414594D01*
X236208311Y-37414594D02*
X236303549Y-37462213D01*
X236303549Y-37462213D02*
X236398788Y-37557451D01*
X236398788Y-37557451D02*
X236446407Y-37700308D01*
X236446407Y-37700308D02*
X236446407Y-37938403D01*
X41009004Y-38269593D02*
X41009004Y-37507689D01*
X41389957Y-37888641D02*
X40628052Y-37888641D01*
X59784957Y-39176499D02*
X59784957Y-39652689D01*
X59784957Y-39652689D02*
X58784957Y-39652689D01*
X59261147Y-38843165D02*
X59261147Y-38509832D01*
X59784957Y-38366975D02*
X59784957Y-38843165D01*
X59784957Y-38843165D02*
X58784957Y-38843165D01*
X58784957Y-38843165D02*
X58784957Y-38366975D01*
X59784957Y-37938403D02*
X58784957Y-37938403D01*
X58784957Y-37938403D02*
X58784957Y-37700308D01*
X58784957Y-37700308D02*
X58832576Y-37557451D01*
X58832576Y-37557451D02*
X58927814Y-37462213D01*
X58927814Y-37462213D02*
X59023052Y-37414594D01*
X59023052Y-37414594D02*
X59213528Y-37366975D01*
X59213528Y-37366975D02*
X59356385Y-37366975D01*
X59356385Y-37366975D02*
X59546861Y-37414594D01*
X59546861Y-37414594D02*
X59642099Y-37462213D01*
X59642099Y-37462213D02*
X59737338Y-37557451D01*
X59737338Y-37557451D02*
X59784957Y-37700308D01*
X59784957Y-37700308D02*
X59784957Y-37938403D01*
X41009004Y-35019593D02*
X41009004Y-34257689D01*
X254460454Y-38269593D02*
X254460454Y-37507689D01*
X254841407Y-37888641D02*
X254079502Y-37888641D01*
D12*
%TO.C,J5*%
X246761588Y-38533642D02*
G75*
G02*
X237221588Y-38533642I-4770000J0D01*
G01*
X237221588Y-38533642D02*
G75*
G02*
X246761588Y-38533642I4770000J0D01*
G01*
%TO.C,J6*%
X58100138Y-38533642D02*
G75*
G02*
X48560138Y-38533642I-4770000J0D01*
G01*
X48560138Y-38533642D02*
G75*
G02*
X58100138Y-38533642I4770000J0D01*
G01*
%TD*%
M02*
