%TF.GenerationSoftware,KiCad,Pcbnew,9.0.2*%
%TF.CreationDate,2025-07-04T08:31:17-06:00*%
%TF.ProjectId,Orcus,4f726375-732e-46b6-9963-61645f706362,rev?*%
%TF.SameCoordinates,Original*%
%TF.FileFunction,Legend,Top*%
%TF.FilePolarity,Positive*%
%FSLAX46Y46*%
G04 Gerber Fmt 4.6, Leading zero omitted, Abs format (unit mm)*
G04 Created by KiCad (PCBNEW 9.0.2) date 2025-07-04 08:31:17*
%MOMM*%
%LPD*%
G01*
G04 APERTURE LIST*
%ADD10C,0.150000*%
%ADD11C,0.120000*%
%ADD12C,3.400000*%
%ADD13C,2.250000*%
%ADD14C,1.700000*%
%ADD15C,1.800000*%
%ADD16R,3.500000X1.200000*%
%ADD17O,2.750000X1.800000*%
%ADD18C,1.397000*%
G04 APERTURE END LIST*
D10*
X250460454Y-35019593D02*
X250460454Y-34257689D01*
X247446407Y-38866975D02*
X248160692Y-38866975D01*
X248160692Y-38866975D02*
X248303549Y-38914594D01*
X248303549Y-38914594D02*
X248398788Y-39009832D01*
X248398788Y-39009832D02*
X248446407Y-39152689D01*
X248446407Y-39152689D02*
X248446407Y-39247927D01*
X247446407Y-37914594D02*
X247446407Y-38390784D01*
X247446407Y-38390784D02*
X247922597Y-38438403D01*
X247922597Y-38438403D02*
X247874978Y-38390784D01*
X247874978Y-38390784D02*
X247827359Y-38295546D01*
X247827359Y-38295546D02*
X247827359Y-38057451D01*
X247827359Y-38057451D02*
X247874978Y-37962213D01*
X247874978Y-37962213D02*
X247922597Y-37914594D01*
X247922597Y-37914594D02*
X248017835Y-37866975D01*
X248017835Y-37866975D02*
X248255930Y-37866975D01*
X248255930Y-37866975D02*
X248351168Y-37914594D01*
X248351168Y-37914594D02*
X248398788Y-37962213D01*
X248398788Y-37962213D02*
X248446407Y-38057451D01*
X248446407Y-38057451D02*
X248446407Y-38295546D01*
X248446407Y-38295546D02*
X248398788Y-38390784D01*
X248398788Y-38390784D02*
X248351168Y-38438403D01*
X45009004Y-38269593D02*
X45009004Y-37507689D01*
X45389957Y-37888641D02*
X44628052Y-37888641D01*
X46784957Y-38866975D02*
X47499242Y-38866975D01*
X47499242Y-38866975D02*
X47642099Y-38914594D01*
X47642099Y-38914594D02*
X47737338Y-39009832D01*
X47737338Y-39009832D02*
X47784957Y-39152689D01*
X47784957Y-39152689D02*
X47784957Y-39247927D01*
X46784957Y-37962213D02*
X46784957Y-38152689D01*
X46784957Y-38152689D02*
X46832576Y-38247927D01*
X46832576Y-38247927D02*
X46880195Y-38295546D01*
X46880195Y-38295546D02*
X47023052Y-38390784D01*
X47023052Y-38390784D02*
X47213528Y-38438403D01*
X47213528Y-38438403D02*
X47594480Y-38438403D01*
X47594480Y-38438403D02*
X47689718Y-38390784D01*
X47689718Y-38390784D02*
X47737338Y-38343165D01*
X47737338Y-38343165D02*
X47784957Y-38247927D01*
X47784957Y-38247927D02*
X47784957Y-38057451D01*
X47784957Y-38057451D02*
X47737338Y-37962213D01*
X47737338Y-37962213D02*
X47689718Y-37914594D01*
X47689718Y-37914594D02*
X47594480Y-37866975D01*
X47594480Y-37866975D02*
X47356385Y-37866975D01*
X47356385Y-37866975D02*
X47261147Y-37914594D01*
X47261147Y-37914594D02*
X47213528Y-37962213D01*
X47213528Y-37962213D02*
X47165909Y-38057451D01*
X47165909Y-38057451D02*
X47165909Y-38247927D01*
X47165909Y-38247927D02*
X47213528Y-38343165D01*
X47213528Y-38343165D02*
X47261147Y-38390784D01*
X47261147Y-38390784D02*
X47356385Y-38438403D01*
X45009004Y-35019593D02*
X45009004Y-34257689D01*
X250460454Y-38269593D02*
X250460454Y-37507689D01*
X250841407Y-37888641D02*
X250079502Y-37888641D01*
D11*
%TO.C,-*%
X253386588Y-34638642D02*
G75*
G02*
X251386588Y-34638642I-1000000J0D01*
G01*
X251386588Y-34638642D02*
G75*
G02*
X253386588Y-34638642I1000000J0D01*
G01*
%TO.C,J5*%
X246761588Y-38533642D02*
G75*
G02*
X237221588Y-38533642I-4770000J0D01*
G01*
X237221588Y-38533642D02*
G75*
G02*
X246761588Y-38533642I4770000J0D01*
G01*
%TO.C,+*%
X43935138Y-37888642D02*
G75*
G02*
X41935138Y-37888642I-1000000J0D01*
G01*
X41935138Y-37888642D02*
G75*
G02*
X43935138Y-37888642I1000000J0D01*
G01*
%TO.C,J6*%
X58100138Y-38533642D02*
G75*
G02*
X48560138Y-38533642I-4770000J0D01*
G01*
X48560138Y-38533642D02*
G75*
G02*
X58100138Y-38533642I4770000J0D01*
G01*
%TO.C,-*%
X43935138Y-34638642D02*
G75*
G02*
X41935138Y-34638642I-1000000J0D01*
G01*
X41935138Y-34638642D02*
G75*
G02*
X43935138Y-34638642I1000000J0D01*
G01*
%TO.C,+*%
X253386588Y-37888642D02*
G75*
G02*
X251386588Y-37888642I-1000000J0D01*
G01*
X251386588Y-37888642D02*
G75*
G02*
X253386588Y-37888642I1000000J0D01*
G01*
%TD*%
%LPC*%
D12*
%TO.C,SW30*%
X137980875Y-76221845D03*
D13*
X143879976Y-76324814D03*
X141693034Y-81287403D03*
D14*
X137884887Y-81721007D03*
X138076863Y-70722683D03*
%TD*%
D12*
%TO.C,SW6*%
X157340851Y-76221845D03*
D13*
X151441750Y-76324814D03*
X153454168Y-71288926D03*
D14*
X157244863Y-70722683D03*
X157436839Y-81721007D03*
%TD*%
D12*
%TO.C,SW25*%
X46569932Y-73127394D03*
D13*
X46981495Y-79013022D03*
X41847186Y-77266920D03*
D14*
X41083330Y-73511055D03*
X52056534Y-72743733D03*
%TD*%
D12*
%TO.C,SW24*%
X120623220Y-63184147D03*
D13*
X120520251Y-69083248D03*
X115557662Y-66896306D03*
D14*
X115124058Y-63088159D03*
X126122382Y-63280135D03*
%TD*%
D12*
%TO.C,SW38*%
X67037316Y-105858711D03*
D13*
X67448879Y-111744339D03*
X62314570Y-109998237D03*
D14*
X61550714Y-106242372D03*
X72523918Y-105475050D03*
%TD*%
D12*
%TO.C,SW16*%
X247496179Y-90085982D03*
D13*
X247084616Y-95971610D03*
X242243284Y-93527943D03*
D14*
X242009577Y-89702321D03*
X252982781Y-90469643D03*
%TD*%
D12*
%TO.C,SW32*%
X65467797Y-84660476D03*
D13*
X65879360Y-90546104D03*
X60745051Y-88800002D03*
D14*
X59981195Y-85044137D03*
X70954399Y-84276815D03*
%TD*%
D12*
%TO.C,SW3*%
X211921726Y-40713642D03*
D13*
X211921726Y-46613642D03*
X206921726Y-44513642D03*
D14*
X206421726Y-40713642D03*
X217421726Y-40713642D03*
%TD*%
D12*
%TO.C,SW15*%
X229853929Y-84660476D03*
D13*
X229442366Y-90546104D03*
X224601034Y-88102437D03*
D14*
X224367327Y-84276815D03*
X235340531Y-85044137D03*
%TD*%
D12*
%TO.C,SW13*%
X193921726Y-83213642D03*
D13*
X193921726Y-89113642D03*
X188921726Y-87013642D03*
D14*
X188421726Y-83213642D03*
X199421726Y-83213642D03*
%TD*%
D12*
%TO.C,SW37*%
X49081164Y-107044572D03*
D13*
X49492727Y-112930200D03*
X44358418Y-111184098D03*
D14*
X43594562Y-107428233D03*
X54567766Y-106660911D03*
%TD*%
D12*
%TO.C,SW18*%
X246240562Y-107044572D03*
D13*
X245828999Y-112930200D03*
X240987667Y-110486533D03*
D14*
X240753960Y-106660911D03*
X251727164Y-107428233D03*
%TD*%
D12*
%TO.C,SW2*%
X193921726Y-49213642D03*
D13*
X193921726Y-55113642D03*
X188921726Y-53013642D03*
D14*
X188421726Y-49213642D03*
X199421726Y-49213642D03*
%TD*%
D12*
%TO.C,SW21*%
X62956563Y-50743298D03*
D13*
X63368126Y-56628926D03*
X58233817Y-54882824D03*
D14*
X57469961Y-51126959D03*
X68443165Y-50359637D03*
%TD*%
D12*
%TO.C,SW8*%
X193921726Y-66213642D03*
D13*
X193921726Y-72113642D03*
X188921726Y-70013642D03*
D14*
X188421726Y-66213642D03*
X199421726Y-66213642D03*
%TD*%
D12*
%TO.C,SW19*%
X265707378Y-104743616D03*
D13*
X259936307Y-103516937D03*
X263029976Y-99062814D03*
D14*
X266850892Y-99363804D03*
X264563864Y-110123428D03*
%TD*%
D12*
%TO.C,SW20*%
X45314315Y-56168804D03*
D13*
X45725878Y-62054432D03*
X40591569Y-60308330D03*
D14*
X39827713Y-56552465D03*
X50800917Y-55785143D03*
%TD*%
D12*
%TO.C,SW23*%
X101400000Y-49213642D03*
D13*
X101400000Y-55113642D03*
X96400000Y-53013642D03*
D14*
X95900000Y-49213642D03*
X106900000Y-49213642D03*
%TD*%
D12*
%TO.C,SW34*%
X101400000Y-83213642D03*
D13*
X101400000Y-89113642D03*
X96400000Y-87013642D03*
D14*
X95900000Y-83213642D03*
X106900000Y-83213642D03*
%TD*%
D12*
%TO.C,SW12*%
X175326791Y-97178968D03*
D13*
X175429760Y-103078069D03*
X170393872Y-101065651D03*
D14*
X169827629Y-97274956D03*
X180825953Y-97082980D03*
%TD*%
D12*
%TO.C,SW35*%
X119994934Y-97178968D03*
D13*
X119891965Y-103078069D03*
X114929376Y-100891127D03*
D14*
X114495772Y-97082980D03*
X125494096Y-97274956D03*
%TD*%
D12*
%TO.C,SW31*%
X47825547Y-90085982D03*
D13*
X48237110Y-95971610D03*
X43102801Y-94225508D03*
D14*
X42338945Y-90469643D03*
X53312149Y-89702321D03*
%TD*%
D12*
%TO.C,SW14*%
X211921726Y-74713642D03*
D13*
X211921726Y-80613642D03*
X206921726Y-78513642D03*
D14*
X206421726Y-74713642D03*
X217421726Y-74713642D03*
%TD*%
D12*
%TO.C,SW28*%
X101400000Y-66213642D03*
D13*
X101400000Y-72113642D03*
X96400000Y-70013642D03*
D14*
X95900000Y-66213642D03*
X106900000Y-66213642D03*
%TD*%
D12*
%TO.C,SW1*%
X174698505Y-63184147D03*
D13*
X174801474Y-69083248D03*
X169765586Y-67070830D03*
D14*
X169199343Y-63280135D03*
X180197667Y-63088159D03*
%TD*%
D12*
%TO.C,SW27*%
X83400000Y-57713642D03*
D13*
X83400000Y-63613642D03*
X78400000Y-61513642D03*
D14*
X77900000Y-57713642D03*
X88900000Y-57713642D03*
%TD*%
D12*
%TO.C,SW7*%
X175012648Y-80181557D03*
D13*
X175115617Y-86080658D03*
X170079729Y-84068240D03*
D14*
X169513486Y-80277545D03*
X180511810Y-80085569D03*
%TD*%
D12*
%TO.C,SW33*%
X83400000Y-74713642D03*
D13*
X83400000Y-80613642D03*
X78400000Y-78513642D03*
D14*
X77900000Y-74713642D03*
X88900000Y-74713642D03*
%TD*%
D12*
%TO.C,SW10*%
X231109546Y-67701887D03*
D13*
X230697983Y-73587515D03*
X225856651Y-71143848D03*
D14*
X225622944Y-67318226D03*
X236596148Y-68085548D03*
%TD*%
D12*
%TO.C,SW11*%
X248751794Y-73127394D03*
D13*
X248340231Y-79013022D03*
X243498899Y-76569355D03*
D14*
X243265192Y-72743733D03*
X254238396Y-73511055D03*
%TD*%
D12*
%TO.C,SW26*%
X64212180Y-67701887D03*
D13*
X64623743Y-73587515D03*
X59489434Y-71841413D03*
D14*
X58725578Y-68085548D03*
X69698782Y-67318226D03*
%TD*%
D12*
%TO.C,SW29*%
X120309077Y-80181557D03*
D13*
X120206108Y-86080658D03*
X115243519Y-83893716D03*
D14*
X114809915Y-80085569D03*
X125808239Y-80277545D03*
%TD*%
D12*
%TO.C,SW17*%
X228284410Y-105858711D03*
D13*
X227872847Y-111744339D03*
X223031515Y-109300672D03*
D14*
X222797808Y-105475050D03*
X233771012Y-106242372D03*
%TD*%
D12*
%TO.C,SW5*%
X250007411Y-56168804D03*
D13*
X249595848Y-62054432D03*
X244754516Y-59610765D03*
D14*
X244520809Y-55785143D03*
X255494013Y-56552465D03*
%TD*%
D12*
%TO.C,SW9*%
X211921726Y-57713642D03*
D13*
X211921726Y-63613642D03*
X206921726Y-61513642D03*
D14*
X206421726Y-57713642D03*
X217421726Y-57713642D03*
%TD*%
D12*
%TO.C,SW22*%
X83400000Y-40713642D03*
D13*
X83400000Y-46613642D03*
X78400000Y-44513642D03*
D14*
X77900000Y-40713642D03*
X88900000Y-40713642D03*
%TD*%
D12*
%TO.C,SW4*%
X232365163Y-50743298D03*
D13*
X231953600Y-56628926D03*
X227112268Y-54185259D03*
D14*
X226878561Y-50359637D03*
X237851765Y-51126959D03*
%TD*%
D12*
%TO.C,SW36*%
X29614348Y-104743616D03*
D13*
X35385419Y-103516937D03*
X34370867Y-108844290D03*
D14*
X30757862Y-110123428D03*
X28470834Y-99363804D03*
%TD*%
D15*
%TO.C,-*%
X252386588Y-34638642D03*
%TD*%
D16*
%TO.C,J5*%
X245491588Y-36333642D03*
X245491588Y-38533642D03*
X245491588Y-40733642D03*
%TD*%
D15*
%TO.C,+*%
X42935138Y-37888642D03*
%TD*%
D16*
%TO.C,J6*%
X49830138Y-40733642D03*
X49830138Y-38533642D03*
X49830138Y-36333642D03*
%TD*%
D17*
%TO.C,U3*%
X150215863Y-47318642D03*
X150215863Y-49858642D03*
X150215863Y-52398642D03*
X150215863Y-54938642D03*
X150215863Y-57478642D03*
X150215863Y-60018642D03*
X150215863Y-62558642D03*
X166405863Y-62558642D03*
X166405863Y-60018642D03*
X166405863Y-57478642D03*
X166405863Y-54938642D03*
X166405863Y-52398642D03*
X166405863Y-49858642D03*
X166405863Y-47318642D03*
D18*
X153865863Y-54621642D03*
X153865863Y-52716642D03*
X157040863Y-46366642D03*
X159580863Y-46366642D03*
X157040863Y-48906642D03*
X159580863Y-48906642D03*
%TD*%
D17*
%TO.C,U1*%
X128915863Y-47318642D03*
X128915863Y-49858642D03*
X128915863Y-52398642D03*
X128915863Y-54938642D03*
X128915863Y-57478642D03*
X128915863Y-60018642D03*
X128915863Y-62558642D03*
X145105863Y-62558642D03*
X145105863Y-60018642D03*
X145105863Y-57478642D03*
X145105863Y-54938642D03*
X145105863Y-52398642D03*
X145105863Y-49858642D03*
X145105863Y-47318642D03*
D18*
X132565863Y-54621642D03*
X132565863Y-52716642D03*
X135740863Y-46366642D03*
X138280863Y-46366642D03*
X135740863Y-48906642D03*
X138280863Y-48906642D03*
%TD*%
D15*
%TO.C,-*%
X42935138Y-34638642D03*
%TD*%
%TO.C,+*%
X252386588Y-37888642D03*
%TD*%
%LPD*%
M02*
