%TF.GenerationSoftware,KiCad,Pcbnew,9.0.2*%
%TF.CreationDate,2025-06-24T00:04:00-06:00*%
%TF.ProjectId,Orcus,4f726375-732e-46b6-9963-61645f706362,rev?*%
%TF.SameCoordinates,Original*%
%TF.FileFunction,Legend,Bot*%
%TF.FilePolarity,Positive*%
%FSLAX46Y46*%
G04 Gerber Fmt 4.6, Leading zero omitted, Abs format (unit mm)*
G04 Created by KiCad (PCBNEW 9.0.2) date 2025-06-24 00:04:00*
%MOMM*%
%LPD*%
G01*
G04 APERTURE LIST*
%ADD10C,0.150000*%
%ADD11C,0.200000*%
%ADD12C,0.100000*%
%ADD13C,2.500000*%
G04 APERTURE END LIST*
D10*
X47005134Y-69915060D02*
X46956304Y-69216765D01*
X46956304Y-69216765D02*
X46790043Y-69228391D01*
X46790043Y-69228391D02*
X46692612Y-69268619D01*
X46692612Y-69268619D02*
X46630758Y-69339774D01*
X46630758Y-69339774D02*
X46602157Y-69408603D01*
X46602157Y-69408603D02*
X46578205Y-69543937D01*
X46578205Y-69543937D02*
X46585181Y-69643693D01*
X46585181Y-69643693D02*
X46627734Y-69774377D01*
X46627734Y-69774377D02*
X46665637Y-69838556D01*
X46665637Y-69838556D02*
X46736791Y-69900410D01*
X46736791Y-69900410D02*
X46838873Y-69926686D01*
X46838873Y-69926686D02*
X47005134Y-69915060D01*
X46295912Y-69329774D02*
X46260334Y-69298847D01*
X46260334Y-69298847D02*
X46191505Y-69270245D01*
X46191505Y-69270245D02*
X46025244Y-69281871D01*
X46025244Y-69281871D02*
X45961065Y-69319774D01*
X45961065Y-69319774D02*
X45930138Y-69355351D01*
X45930138Y-69355351D02*
X45901537Y-69424181D01*
X45901537Y-69424181D02*
X45906187Y-69490685D01*
X45906187Y-69490685D02*
X45946415Y-69588116D01*
X45946415Y-69588116D02*
X46373343Y-69959239D01*
X46373343Y-69959239D02*
X45941065Y-69989467D01*
X45260445Y-69335351D02*
X45592966Y-69312099D01*
X45592966Y-69312099D02*
X45649471Y-69642295D01*
X45649471Y-69642295D02*
X45613893Y-69611368D01*
X45613893Y-69611368D02*
X45545064Y-69582767D01*
X45545064Y-69582767D02*
X45378803Y-69594393D01*
X45378803Y-69594393D02*
X45314624Y-69632295D01*
X45314624Y-69632295D02*
X45283697Y-69667873D01*
X45283697Y-69667873D02*
X45255095Y-69736702D01*
X45255095Y-69736702D02*
X45266721Y-69902963D01*
X45266721Y-69902963D02*
X45304624Y-69967142D01*
X45304624Y-69967142D02*
X45340201Y-69998069D01*
X45340201Y-69998069D02*
X45409031Y-70026670D01*
X45409031Y-70026670D02*
X45575292Y-70015044D01*
X45575292Y-70015044D02*
X45639471Y-69977142D01*
X45639471Y-69977142D02*
X45670397Y-69941564D01*
X65261384Y-64358810D02*
X65212554Y-63660515D01*
X65212554Y-63660515D02*
X65046293Y-63672141D01*
X65046293Y-63672141D02*
X64948862Y-63712369D01*
X64948862Y-63712369D02*
X64887008Y-63783524D01*
X64887008Y-63783524D02*
X64858407Y-63852353D01*
X64858407Y-63852353D02*
X64834455Y-63987687D01*
X64834455Y-63987687D02*
X64841431Y-64087443D01*
X64841431Y-64087443D02*
X64883984Y-64218127D01*
X64883984Y-64218127D02*
X64921887Y-64282306D01*
X64921887Y-64282306D02*
X64993041Y-64344160D01*
X64993041Y-64344160D02*
X65095123Y-64370436D01*
X65095123Y-64370436D02*
X65261384Y-64358810D01*
X64552162Y-63773524D02*
X64516584Y-63742597D01*
X64516584Y-63742597D02*
X64447755Y-63713995D01*
X64447755Y-63713995D02*
X64281494Y-63725621D01*
X64281494Y-63725621D02*
X64217315Y-63763524D01*
X64217315Y-63763524D02*
X64186388Y-63799101D01*
X64186388Y-63799101D02*
X64157787Y-63867931D01*
X64157787Y-63867931D02*
X64162437Y-63934435D01*
X64162437Y-63934435D02*
X64202665Y-64031866D01*
X64202665Y-64031866D02*
X64629593Y-64402989D01*
X64629593Y-64402989D02*
X64197315Y-64433217D01*
X63549947Y-63776776D02*
X63682956Y-63767475D01*
X63682956Y-63767475D02*
X63751785Y-63796077D01*
X63751785Y-63796077D02*
X63787362Y-63827004D01*
X63787362Y-63827004D02*
X63860842Y-63922110D01*
X63860842Y-63922110D02*
X63903395Y-64052793D01*
X63903395Y-64052793D02*
X63921997Y-64318810D01*
X63921997Y-64318810D02*
X63893395Y-64387640D01*
X63893395Y-64387640D02*
X63862468Y-64423217D01*
X63862468Y-64423217D02*
X63798289Y-64461119D01*
X63798289Y-64461119D02*
X63665281Y-64470420D01*
X63665281Y-64470420D02*
X63596451Y-64441819D01*
X63596451Y-64441819D02*
X63560874Y-64410892D01*
X63560874Y-64410892D02*
X63522971Y-64346713D01*
X63522971Y-64346713D02*
X63511345Y-64180452D01*
X63511345Y-64180452D02*
X63539947Y-64111623D01*
X63539947Y-64111623D02*
X63570874Y-64076045D01*
X63570874Y-64076045D02*
X63635053Y-64038143D01*
X63635053Y-64038143D02*
X63768062Y-64028842D01*
X63768062Y-64028842D02*
X63836891Y-64057443D01*
X63836891Y-64057443D02*
X63872468Y-64088370D01*
X63872468Y-64088370D02*
X63910371Y-64152549D01*
X84193750Y-54103533D02*
X84193750Y-53403533D01*
X84193750Y-53403533D02*
X84027083Y-53403533D01*
X84027083Y-53403533D02*
X83927083Y-53436866D01*
X83927083Y-53436866D02*
X83860417Y-53503533D01*
X83860417Y-53503533D02*
X83827083Y-53570200D01*
X83827083Y-53570200D02*
X83793750Y-53703533D01*
X83793750Y-53703533D02*
X83793750Y-53803533D01*
X83793750Y-53803533D02*
X83827083Y-53936866D01*
X83827083Y-53936866D02*
X83860417Y-54003533D01*
X83860417Y-54003533D02*
X83927083Y-54070200D01*
X83927083Y-54070200D02*
X84027083Y-54103533D01*
X84027083Y-54103533D02*
X84193750Y-54103533D01*
X83527083Y-53470200D02*
X83493750Y-53436866D01*
X83493750Y-53436866D02*
X83427083Y-53403533D01*
X83427083Y-53403533D02*
X83260417Y-53403533D01*
X83260417Y-53403533D02*
X83193750Y-53436866D01*
X83193750Y-53436866D02*
X83160417Y-53470200D01*
X83160417Y-53470200D02*
X83127083Y-53536866D01*
X83127083Y-53536866D02*
X83127083Y-53603533D01*
X83127083Y-53603533D02*
X83160417Y-53703533D01*
X83160417Y-53703533D02*
X83560417Y-54103533D01*
X83560417Y-54103533D02*
X83127083Y-54103533D01*
X82893750Y-53403533D02*
X82427083Y-53403533D01*
X82427083Y-53403533D02*
X82727083Y-54103533D01*
X84381250Y-71566033D02*
X84381250Y-70866033D01*
X84381250Y-70866033D02*
X84214583Y-70866033D01*
X84214583Y-70866033D02*
X84114583Y-70899366D01*
X84114583Y-70899366D02*
X84047917Y-70966033D01*
X84047917Y-70966033D02*
X84014583Y-71032700D01*
X84014583Y-71032700D02*
X83981250Y-71166033D01*
X83981250Y-71166033D02*
X83981250Y-71266033D01*
X83981250Y-71266033D02*
X84014583Y-71399366D01*
X84014583Y-71399366D02*
X84047917Y-71466033D01*
X84047917Y-71466033D02*
X84114583Y-71532700D01*
X84114583Y-71532700D02*
X84214583Y-71566033D01*
X84214583Y-71566033D02*
X84381250Y-71566033D01*
X83747917Y-70866033D02*
X83314583Y-70866033D01*
X83314583Y-70866033D02*
X83547917Y-71132700D01*
X83547917Y-71132700D02*
X83447917Y-71132700D01*
X83447917Y-71132700D02*
X83381250Y-71166033D01*
X83381250Y-71166033D02*
X83347917Y-71199366D01*
X83347917Y-71199366D02*
X83314583Y-71266033D01*
X83314583Y-71266033D02*
X83314583Y-71432700D01*
X83314583Y-71432700D02*
X83347917Y-71499366D01*
X83347917Y-71499366D02*
X83381250Y-71532700D01*
X83381250Y-71532700D02*
X83447917Y-71566033D01*
X83447917Y-71566033D02*
X83647917Y-71566033D01*
X83647917Y-71566033D02*
X83714583Y-71532700D01*
X83714583Y-71532700D02*
X83747917Y-71499366D01*
X83081250Y-70866033D02*
X82647916Y-70866033D01*
X82647916Y-70866033D02*
X82881250Y-71132700D01*
X82881250Y-71132700D02*
X82781250Y-71132700D01*
X82781250Y-71132700D02*
X82714583Y-71166033D01*
X82714583Y-71166033D02*
X82681250Y-71199366D01*
X82681250Y-71199366D02*
X82647916Y-71266033D01*
X82647916Y-71266033D02*
X82647916Y-71432700D01*
X82647916Y-71432700D02*
X82681250Y-71499366D01*
X82681250Y-71499366D02*
X82714583Y-71532700D01*
X82714583Y-71532700D02*
X82781250Y-71566033D01*
X82781250Y-71566033D02*
X82981250Y-71566033D01*
X82981250Y-71566033D02*
X83047916Y-71532700D01*
X83047916Y-71532700D02*
X83081250Y-71499366D01*
X120676172Y-93805606D02*
X120688389Y-93105713D01*
X120688389Y-93105713D02*
X120521747Y-93102804D01*
X120521747Y-93102804D02*
X120421181Y-93134387D01*
X120421181Y-93134387D02*
X120353361Y-93199880D01*
X120353361Y-93199880D02*
X120318869Y-93265955D01*
X120318869Y-93265955D02*
X120283214Y-93398686D01*
X120283214Y-93398686D02*
X120281468Y-93498671D01*
X120281468Y-93498671D02*
X120312470Y-93632566D01*
X120312470Y-93632566D02*
X120344635Y-93699804D01*
X120344635Y-93699804D02*
X120410128Y-93767624D01*
X120410128Y-93767624D02*
X120509531Y-93802698D01*
X120509531Y-93802698D02*
X120676172Y-93805606D01*
X120055152Y-93094660D02*
X119621884Y-93087097D01*
X119621884Y-93087097D02*
X119850528Y-93357795D01*
X119850528Y-93357795D02*
X119750543Y-93356050D01*
X119750543Y-93356050D02*
X119683305Y-93388215D01*
X119683305Y-93388215D02*
X119649395Y-93420961D01*
X119649395Y-93420961D02*
X119614903Y-93487036D01*
X119614903Y-93487036D02*
X119611995Y-93653677D01*
X119611995Y-93653677D02*
X119644159Y-93720916D01*
X119644159Y-93720916D02*
X119676906Y-93754826D01*
X119676906Y-93754826D02*
X119742981Y-93789317D01*
X119742981Y-93789317D02*
X119942950Y-93792808D01*
X119942950Y-93792808D02*
X120010188Y-93760643D01*
X120010188Y-93760643D02*
X120044098Y-93727897D01*
X118988647Y-93076044D02*
X119321930Y-93081861D01*
X119321930Y-93081861D02*
X119349440Y-93415726D01*
X119349440Y-93415726D02*
X119316694Y-93381816D01*
X119316694Y-93381816D02*
X119250619Y-93347324D01*
X119250619Y-93347324D02*
X119083978Y-93344415D01*
X119083978Y-93344415D02*
X119016740Y-93376580D01*
X119016740Y-93376580D02*
X118982830Y-93409326D01*
X118982830Y-93409326D02*
X118948338Y-93475401D01*
X118948338Y-93475401D02*
X118945429Y-93642042D01*
X118945429Y-93642042D02*
X118977594Y-93709281D01*
X118977594Y-93709281D02*
X119010340Y-93743191D01*
X119010340Y-93743191D02*
X119076415Y-93777682D01*
X119076415Y-93777682D02*
X119243056Y-93780591D01*
X119243056Y-93780591D02*
X119310295Y-93748426D01*
X119310295Y-93748426D02*
X119344205Y-93715680D01*
X121469921Y-77112422D02*
X121482138Y-76412529D01*
X121482138Y-76412529D02*
X121315496Y-76409620D01*
X121315496Y-76409620D02*
X121214930Y-76441203D01*
X121214930Y-76441203D02*
X121147110Y-76506696D01*
X121147110Y-76506696D02*
X121112618Y-76572771D01*
X121112618Y-76572771D02*
X121076963Y-76705502D01*
X121076963Y-76705502D02*
X121075217Y-76805487D01*
X121075217Y-76805487D02*
X121106219Y-76939382D01*
X121106219Y-76939382D02*
X121138384Y-77006620D01*
X121138384Y-77006620D02*
X121203877Y-77074440D01*
X121203877Y-77074440D02*
X121303280Y-77109514D01*
X121303280Y-77109514D02*
X121469921Y-77112422D01*
X120814409Y-76467550D02*
X120781662Y-76433640D01*
X120781662Y-76433640D02*
X120715588Y-76399149D01*
X120715588Y-76399149D02*
X120548946Y-76396240D01*
X120548946Y-76396240D02*
X120481708Y-76428405D01*
X120481708Y-76428405D02*
X120447798Y-76461151D01*
X120447798Y-76461151D02*
X120413306Y-76527226D01*
X120413306Y-76527226D02*
X120412143Y-76593883D01*
X120412143Y-76593883D02*
X120443726Y-76694449D01*
X120443726Y-76694449D02*
X120836684Y-77101369D01*
X120836684Y-77101369D02*
X120403417Y-77093806D01*
X120070134Y-77087989D02*
X119936821Y-77085662D01*
X119936821Y-77085662D02*
X119870746Y-77051170D01*
X119870746Y-77051170D02*
X119837999Y-77017260D01*
X119837999Y-77017260D02*
X119773088Y-76916112D01*
X119773088Y-76916112D02*
X119742087Y-76782217D01*
X119742087Y-76782217D02*
X119746741Y-76515591D01*
X119746741Y-76515591D02*
X119781233Y-76449516D01*
X119781233Y-76449516D02*
X119815143Y-76416770D01*
X119815143Y-76416770D02*
X119882381Y-76384605D01*
X119882381Y-76384605D02*
X120015694Y-76386932D01*
X120015694Y-76386932D02*
X120081769Y-76421424D01*
X120081769Y-76421424D02*
X120114515Y-76455334D01*
X120114515Y-76455334D02*
X120146680Y-76522572D01*
X120146680Y-76522572D02*
X120143771Y-76689213D01*
X120143771Y-76689213D02*
X120109279Y-76755288D01*
X120109279Y-76755288D02*
X120075369Y-76788035D01*
X120075369Y-76788035D02*
X120008131Y-76820199D01*
X120008131Y-76820199D02*
X119874818Y-76817872D01*
X119874818Y-76817872D02*
X119808743Y-76783381D01*
X119808743Y-76783381D02*
X119775997Y-76749471D01*
X119775997Y-76749471D02*
X119743832Y-76682232D01*
X49386384Y-103252560D02*
X49337554Y-102554265D01*
X49337554Y-102554265D02*
X49171293Y-102565891D01*
X49171293Y-102565891D02*
X49073862Y-102606119D01*
X49073862Y-102606119D02*
X49012008Y-102677274D01*
X49012008Y-102677274D02*
X48983407Y-102746103D01*
X48983407Y-102746103D02*
X48959455Y-102881437D01*
X48959455Y-102881437D02*
X48966431Y-102981193D01*
X48966431Y-102981193D02*
X49008984Y-103111877D01*
X49008984Y-103111877D02*
X49046887Y-103176056D01*
X49046887Y-103176056D02*
X49118041Y-103237910D01*
X49118041Y-103237910D02*
X49220123Y-103264186D01*
X49220123Y-103264186D02*
X49386384Y-103252560D01*
X48705764Y-102598444D02*
X48273486Y-102628672D01*
X48273486Y-102628672D02*
X48524852Y-102878413D01*
X48524852Y-102878413D02*
X48425096Y-102885388D01*
X48425096Y-102885388D02*
X48360917Y-102923291D01*
X48360917Y-102923291D02*
X48329990Y-102958868D01*
X48329990Y-102958868D02*
X48301388Y-103027698D01*
X48301388Y-103027698D02*
X48313014Y-103193958D01*
X48313014Y-103193958D02*
X48350917Y-103258137D01*
X48350917Y-103258137D02*
X48386494Y-103289064D01*
X48386494Y-103289064D02*
X48455324Y-103317666D01*
X48455324Y-103317666D02*
X48654837Y-103303715D01*
X48654837Y-103303715D02*
X48719016Y-103265812D01*
X48719016Y-103265812D02*
X48749943Y-103230235D01*
X48040721Y-102644949D02*
X47575191Y-102677502D01*
X47575191Y-102677502D02*
X47923289Y-103354869D01*
X63673884Y-46993969D02*
X63625054Y-46295674D01*
X63625054Y-46295674D02*
X63458793Y-46307300D01*
X63458793Y-46307300D02*
X63361362Y-46347528D01*
X63361362Y-46347528D02*
X63299508Y-46418683D01*
X63299508Y-46418683D02*
X63270907Y-46487512D01*
X63270907Y-46487512D02*
X63246955Y-46622846D01*
X63246955Y-46622846D02*
X63253931Y-46722602D01*
X63253931Y-46722602D02*
X63296484Y-46853286D01*
X63296484Y-46853286D02*
X63334387Y-46917465D01*
X63334387Y-46917465D02*
X63405541Y-46979319D01*
X63405541Y-46979319D02*
X63507623Y-47005595D01*
X63507623Y-47005595D02*
X63673884Y-46993969D01*
X62964662Y-46408683D02*
X62929084Y-46377756D01*
X62929084Y-46377756D02*
X62860255Y-46349154D01*
X62860255Y-46349154D02*
X62693994Y-46360780D01*
X62693994Y-46360780D02*
X62629815Y-46398683D01*
X62629815Y-46398683D02*
X62598888Y-46434260D01*
X62598888Y-46434260D02*
X62570287Y-46503090D01*
X62570287Y-46503090D02*
X62574937Y-46569594D01*
X62574937Y-46569594D02*
X62615165Y-46667025D01*
X62615165Y-46667025D02*
X63042093Y-47038148D01*
X63042093Y-47038148D02*
X62609815Y-47068376D01*
X61944772Y-47114880D02*
X62343798Y-47086978D01*
X62144285Y-47100929D02*
X62095456Y-46402634D01*
X62095456Y-46402634D02*
X62168935Y-46497740D01*
X62168935Y-46497740D02*
X62240090Y-46559594D01*
X62240090Y-46559594D02*
X62308920Y-46588196D01*
X45967634Y-52652560D02*
X45918804Y-51954265D01*
X45918804Y-51954265D02*
X45752543Y-51965891D01*
X45752543Y-51965891D02*
X45655112Y-52006119D01*
X45655112Y-52006119D02*
X45593258Y-52077274D01*
X45593258Y-52077274D02*
X45564657Y-52146103D01*
X45564657Y-52146103D02*
X45540705Y-52281437D01*
X45540705Y-52281437D02*
X45547681Y-52381193D01*
X45547681Y-52381193D02*
X45590234Y-52511877D01*
X45590234Y-52511877D02*
X45628137Y-52576056D01*
X45628137Y-52576056D02*
X45699291Y-52637910D01*
X45699291Y-52637910D02*
X45801373Y-52664186D01*
X45801373Y-52664186D02*
X45967634Y-52652560D01*
X45258412Y-52067274D02*
X45222834Y-52036347D01*
X45222834Y-52036347D02*
X45154005Y-52007745D01*
X45154005Y-52007745D02*
X44987744Y-52019371D01*
X44987744Y-52019371D02*
X44923565Y-52057274D01*
X44923565Y-52057274D02*
X44892638Y-52092851D01*
X44892638Y-52092851D02*
X44864037Y-52161681D01*
X44864037Y-52161681D02*
X44868687Y-52228185D01*
X44868687Y-52228185D02*
X44908915Y-52325616D01*
X44908915Y-52325616D02*
X45335843Y-52696739D01*
X45335843Y-52696739D02*
X44903565Y-52726967D01*
X44422458Y-52058900D02*
X44355953Y-52063550D01*
X44355953Y-52063550D02*
X44291774Y-52101453D01*
X44291774Y-52101453D02*
X44260847Y-52137030D01*
X44260847Y-52137030D02*
X44232246Y-52205860D01*
X44232246Y-52205860D02*
X44208294Y-52341193D01*
X44208294Y-52341193D02*
X44219921Y-52507454D01*
X44219921Y-52507454D02*
X44262474Y-52638137D01*
X44262474Y-52638137D02*
X44300376Y-52702317D01*
X44300376Y-52702317D02*
X44335953Y-52733243D01*
X44335953Y-52733243D02*
X44404783Y-52761845D01*
X44404783Y-52761845D02*
X44471287Y-52757195D01*
X44471287Y-52757195D02*
X44535466Y-52719292D01*
X44535466Y-52719292D02*
X44566393Y-52683715D01*
X44566393Y-52683715D02*
X44594995Y-52614885D01*
X44594995Y-52614885D02*
X44618946Y-52479552D01*
X44618946Y-52479552D02*
X44607320Y-52313291D01*
X44607320Y-52313291D02*
X44564767Y-52182608D01*
X44564767Y-52182608D02*
X44526865Y-52118428D01*
X44526865Y-52118428D02*
X44491287Y-52087502D01*
X44491287Y-52087502D02*
X44422458Y-52058900D01*
X67642634Y-102458810D02*
X67593804Y-101760515D01*
X67593804Y-101760515D02*
X67427543Y-101772141D01*
X67427543Y-101772141D02*
X67330112Y-101812369D01*
X67330112Y-101812369D02*
X67268258Y-101883524D01*
X67268258Y-101883524D02*
X67239657Y-101952353D01*
X67239657Y-101952353D02*
X67215705Y-102087687D01*
X67215705Y-102087687D02*
X67222681Y-102187443D01*
X67222681Y-102187443D02*
X67265234Y-102318127D01*
X67265234Y-102318127D02*
X67303137Y-102382306D01*
X67303137Y-102382306D02*
X67374291Y-102444160D01*
X67374291Y-102444160D02*
X67476373Y-102470436D01*
X67476373Y-102470436D02*
X67642634Y-102458810D01*
X66962014Y-101804694D02*
X66529736Y-101834922D01*
X66529736Y-101834922D02*
X66781102Y-102084663D01*
X66781102Y-102084663D02*
X66681346Y-102091638D01*
X66681346Y-102091638D02*
X66617167Y-102129541D01*
X66617167Y-102129541D02*
X66586240Y-102165118D01*
X66586240Y-102165118D02*
X66557638Y-102233948D01*
X66557638Y-102233948D02*
X66569264Y-102400208D01*
X66569264Y-102400208D02*
X66607167Y-102464387D01*
X66607167Y-102464387D02*
X66642744Y-102495314D01*
X66642744Y-102495314D02*
X66711574Y-102523916D01*
X66711574Y-102523916D02*
X66911087Y-102509965D01*
X66911087Y-102509965D02*
X66975266Y-102472062D01*
X66975266Y-102472062D02*
X67006193Y-102436485D01*
X66151637Y-102162094D02*
X66215816Y-102124191D01*
X66215816Y-102124191D02*
X66246743Y-102088614D01*
X66246743Y-102088614D02*
X66275344Y-102019784D01*
X66275344Y-102019784D02*
X66273019Y-101986532D01*
X66273019Y-101986532D02*
X66235117Y-101922353D01*
X66235117Y-101922353D02*
X66199539Y-101891426D01*
X66199539Y-101891426D02*
X66130710Y-101862825D01*
X66130710Y-101862825D02*
X65997701Y-101872126D01*
X65997701Y-101872126D02*
X65933522Y-101910028D01*
X65933522Y-101910028D02*
X65902595Y-101945605D01*
X65902595Y-101945605D02*
X65873994Y-102014435D01*
X65873994Y-102014435D02*
X65876319Y-102047687D01*
X65876319Y-102047687D02*
X65914221Y-102111866D01*
X65914221Y-102111866D02*
X65949799Y-102142793D01*
X65949799Y-102142793D02*
X66018628Y-102171395D01*
X66018628Y-102171395D02*
X66151637Y-102162094D01*
X66151637Y-102162094D02*
X66220466Y-102190696D01*
X66220466Y-102190696D02*
X66256044Y-102221622D01*
X66256044Y-102221622D02*
X66293946Y-102285802D01*
X66293946Y-102285802D02*
X66303247Y-102418810D01*
X66303247Y-102418810D02*
X66274645Y-102487640D01*
X66274645Y-102487640D02*
X66243718Y-102523217D01*
X66243718Y-102523217D02*
X66179539Y-102561119D01*
X66179539Y-102561119D02*
X66046531Y-102570420D01*
X66046531Y-102570420D02*
X65977701Y-102541819D01*
X65977701Y-102541819D02*
X65942124Y-102510892D01*
X65942124Y-102510892D02*
X65904221Y-102446713D01*
X65904221Y-102446713D02*
X65894921Y-102313704D01*
X65894921Y-102313704D02*
X65923522Y-102244875D01*
X65923522Y-102244875D02*
X65954449Y-102209297D01*
X65954449Y-102209297D02*
X66018628Y-102171395D01*
X65867634Y-81027560D02*
X65818804Y-80329265D01*
X65818804Y-80329265D02*
X65652543Y-80340891D01*
X65652543Y-80340891D02*
X65555112Y-80381119D01*
X65555112Y-80381119D02*
X65493258Y-80452274D01*
X65493258Y-80452274D02*
X65464657Y-80521103D01*
X65464657Y-80521103D02*
X65440705Y-80656437D01*
X65440705Y-80656437D02*
X65447681Y-80756193D01*
X65447681Y-80756193D02*
X65490234Y-80886877D01*
X65490234Y-80886877D02*
X65528137Y-80951056D01*
X65528137Y-80951056D02*
X65599291Y-81012910D01*
X65599291Y-81012910D02*
X65701373Y-81039186D01*
X65701373Y-81039186D02*
X65867634Y-81027560D01*
X65187014Y-80373444D02*
X64754736Y-80403672D01*
X64754736Y-80403672D02*
X65006102Y-80653413D01*
X65006102Y-80653413D02*
X64906346Y-80660388D01*
X64906346Y-80660388D02*
X64842167Y-80698291D01*
X64842167Y-80698291D02*
X64811240Y-80733868D01*
X64811240Y-80733868D02*
X64782638Y-80802698D01*
X64782638Y-80802698D02*
X64794264Y-80968958D01*
X64794264Y-80968958D02*
X64832167Y-81033137D01*
X64832167Y-81033137D02*
X64867744Y-81064064D01*
X64867744Y-81064064D02*
X64936574Y-81092666D01*
X64936574Y-81092666D02*
X65136087Y-81078715D01*
X65136087Y-81078715D02*
X65200266Y-81040812D01*
X65200266Y-81040812D02*
X65231193Y-81005235D01*
X64493369Y-80488778D02*
X64457791Y-80457851D01*
X64457791Y-80457851D02*
X64388962Y-80429249D01*
X64388962Y-80429249D02*
X64222701Y-80440876D01*
X64222701Y-80440876D02*
X64158522Y-80478778D01*
X64158522Y-80478778D02*
X64127595Y-80514355D01*
X64127595Y-80514355D02*
X64098994Y-80583185D01*
X64098994Y-80583185D02*
X64103644Y-80649689D01*
X64103644Y-80649689D02*
X64143872Y-80747120D01*
X64143872Y-80747120D02*
X64570800Y-81118243D01*
X64570800Y-81118243D02*
X64138522Y-81148471D01*
X84381250Y-37434783D02*
X84381250Y-36734783D01*
X84381250Y-36734783D02*
X84214583Y-36734783D01*
X84214583Y-36734783D02*
X84114583Y-36768116D01*
X84114583Y-36768116D02*
X84047917Y-36834783D01*
X84047917Y-36834783D02*
X84014583Y-36901450D01*
X84014583Y-36901450D02*
X83981250Y-37034783D01*
X83981250Y-37034783D02*
X83981250Y-37134783D01*
X83981250Y-37134783D02*
X84014583Y-37268116D01*
X84014583Y-37268116D02*
X84047917Y-37334783D01*
X84047917Y-37334783D02*
X84114583Y-37401450D01*
X84114583Y-37401450D02*
X84214583Y-37434783D01*
X84214583Y-37434783D02*
X84381250Y-37434783D01*
X83714583Y-36801450D02*
X83681250Y-36768116D01*
X83681250Y-36768116D02*
X83614583Y-36734783D01*
X83614583Y-36734783D02*
X83447917Y-36734783D01*
X83447917Y-36734783D02*
X83381250Y-36768116D01*
X83381250Y-36768116D02*
X83347917Y-36801450D01*
X83347917Y-36801450D02*
X83314583Y-36868116D01*
X83314583Y-36868116D02*
X83314583Y-36934783D01*
X83314583Y-36934783D02*
X83347917Y-37034783D01*
X83347917Y-37034783D02*
X83747917Y-37434783D01*
X83747917Y-37434783D02*
X83314583Y-37434783D01*
X83047916Y-36801450D02*
X83014583Y-36768116D01*
X83014583Y-36768116D02*
X82947916Y-36734783D01*
X82947916Y-36734783D02*
X82781250Y-36734783D01*
X82781250Y-36734783D02*
X82714583Y-36768116D01*
X82714583Y-36768116D02*
X82681250Y-36801450D01*
X82681250Y-36801450D02*
X82647916Y-36868116D01*
X82647916Y-36868116D02*
X82647916Y-36934783D01*
X82647916Y-36934783D02*
X82681250Y-37034783D01*
X82681250Y-37034783D02*
X83081250Y-37434783D01*
X83081250Y-37434783D02*
X82647916Y-37434783D01*
X48592634Y-86583810D02*
X48543804Y-85885515D01*
X48543804Y-85885515D02*
X48377543Y-85897141D01*
X48377543Y-85897141D02*
X48280112Y-85937369D01*
X48280112Y-85937369D02*
X48218258Y-86008524D01*
X48218258Y-86008524D02*
X48189657Y-86077353D01*
X48189657Y-86077353D02*
X48165705Y-86212687D01*
X48165705Y-86212687D02*
X48172681Y-86312443D01*
X48172681Y-86312443D02*
X48215234Y-86443127D01*
X48215234Y-86443127D02*
X48253137Y-86507306D01*
X48253137Y-86507306D02*
X48324291Y-86569160D01*
X48324291Y-86569160D02*
X48426373Y-86595436D01*
X48426373Y-86595436D02*
X48592634Y-86583810D01*
X47912014Y-85929694D02*
X47479736Y-85959922D01*
X47479736Y-85959922D02*
X47731102Y-86209663D01*
X47731102Y-86209663D02*
X47631346Y-86216638D01*
X47631346Y-86216638D02*
X47567167Y-86254541D01*
X47567167Y-86254541D02*
X47536240Y-86290118D01*
X47536240Y-86290118D02*
X47507638Y-86358948D01*
X47507638Y-86358948D02*
X47519264Y-86525208D01*
X47519264Y-86525208D02*
X47557167Y-86589387D01*
X47557167Y-86589387D02*
X47592744Y-86620314D01*
X47592744Y-86620314D02*
X47661574Y-86648916D01*
X47661574Y-86648916D02*
X47861087Y-86634965D01*
X47861087Y-86634965D02*
X47925266Y-86597062D01*
X47925266Y-86597062D02*
X47956193Y-86561485D01*
X46863522Y-86704721D02*
X47262548Y-86676819D01*
X47063035Y-86690770D02*
X47014206Y-85992475D01*
X47014206Y-85992475D02*
X47087685Y-86087581D01*
X47087685Y-86087581D02*
X47158840Y-86149435D01*
X47158840Y-86149435D02*
X47227670Y-86178037D01*
X121469922Y-59674356D02*
X121482139Y-58974463D01*
X121482139Y-58974463D02*
X121315497Y-58971554D01*
X121315497Y-58971554D02*
X121214931Y-59003137D01*
X121214931Y-59003137D02*
X121147111Y-59068630D01*
X121147111Y-59068630D02*
X121112619Y-59134705D01*
X121112619Y-59134705D02*
X121076964Y-59267436D01*
X121076964Y-59267436D02*
X121075218Y-59367421D01*
X121075218Y-59367421D02*
X121106220Y-59501316D01*
X121106220Y-59501316D02*
X121138385Y-59568554D01*
X121138385Y-59568554D02*
X121203878Y-59636374D01*
X121203878Y-59636374D02*
X121303281Y-59671448D01*
X121303281Y-59671448D02*
X121469922Y-59674356D01*
X120814410Y-59029484D02*
X120781663Y-58995574D01*
X120781663Y-58995574D02*
X120715589Y-58961083D01*
X120715589Y-58961083D02*
X120548947Y-58958174D01*
X120548947Y-58958174D02*
X120481709Y-58990339D01*
X120481709Y-58990339D02*
X120447799Y-59023085D01*
X120447799Y-59023085D02*
X120413307Y-59089160D01*
X120413307Y-59089160D02*
X120412144Y-59155817D01*
X120412144Y-59155817D02*
X120443727Y-59256383D01*
X120443727Y-59256383D02*
X120836685Y-59663303D01*
X120836685Y-59663303D02*
X120403418Y-59655740D01*
X119811653Y-59178673D02*
X119803509Y-59645269D01*
X119982948Y-58914956D02*
X120140863Y-59417789D01*
X120140863Y-59417789D02*
X119707596Y-59410226D01*
X102450000Y-62834783D02*
X102450000Y-62134783D01*
X102450000Y-62134783D02*
X102283333Y-62134783D01*
X102283333Y-62134783D02*
X102183333Y-62168116D01*
X102183333Y-62168116D02*
X102116667Y-62234783D01*
X102116667Y-62234783D02*
X102083333Y-62301450D01*
X102083333Y-62301450D02*
X102050000Y-62434783D01*
X102050000Y-62434783D02*
X102050000Y-62534783D01*
X102050000Y-62534783D02*
X102083333Y-62668116D01*
X102083333Y-62668116D02*
X102116667Y-62734783D01*
X102116667Y-62734783D02*
X102183333Y-62801450D01*
X102183333Y-62801450D02*
X102283333Y-62834783D01*
X102283333Y-62834783D02*
X102450000Y-62834783D01*
X101783333Y-62201450D02*
X101750000Y-62168116D01*
X101750000Y-62168116D02*
X101683333Y-62134783D01*
X101683333Y-62134783D02*
X101516667Y-62134783D01*
X101516667Y-62134783D02*
X101450000Y-62168116D01*
X101450000Y-62168116D02*
X101416667Y-62201450D01*
X101416667Y-62201450D02*
X101383333Y-62268116D01*
X101383333Y-62268116D02*
X101383333Y-62334783D01*
X101383333Y-62334783D02*
X101416667Y-62434783D01*
X101416667Y-62434783D02*
X101816667Y-62834783D01*
X101816667Y-62834783D02*
X101383333Y-62834783D01*
X100983333Y-62434783D02*
X101050000Y-62401450D01*
X101050000Y-62401450D02*
X101083333Y-62368116D01*
X101083333Y-62368116D02*
X101116666Y-62301450D01*
X101116666Y-62301450D02*
X101116666Y-62268116D01*
X101116666Y-62268116D02*
X101083333Y-62201450D01*
X101083333Y-62201450D02*
X101050000Y-62168116D01*
X101050000Y-62168116D02*
X100983333Y-62134783D01*
X100983333Y-62134783D02*
X100850000Y-62134783D01*
X100850000Y-62134783D02*
X100783333Y-62168116D01*
X100783333Y-62168116D02*
X100750000Y-62201450D01*
X100750000Y-62201450D02*
X100716666Y-62268116D01*
X100716666Y-62268116D02*
X100716666Y-62301450D01*
X100716666Y-62301450D02*
X100750000Y-62368116D01*
X100750000Y-62368116D02*
X100783333Y-62401450D01*
X100783333Y-62401450D02*
X100850000Y-62434783D01*
X100850000Y-62434783D02*
X100983333Y-62434783D01*
X100983333Y-62434783D02*
X101050000Y-62468116D01*
X101050000Y-62468116D02*
X101083333Y-62501450D01*
X101083333Y-62501450D02*
X101116666Y-62568116D01*
X101116666Y-62568116D02*
X101116666Y-62701450D01*
X101116666Y-62701450D02*
X101083333Y-62768116D01*
X101083333Y-62768116D02*
X101050000Y-62801450D01*
X101050000Y-62801450D02*
X100983333Y-62834783D01*
X100983333Y-62834783D02*
X100850000Y-62834783D01*
X100850000Y-62834783D02*
X100783333Y-62801450D01*
X100783333Y-62801450D02*
X100750000Y-62768116D01*
X100750000Y-62768116D02*
X100716666Y-62701450D01*
X100716666Y-62701450D02*
X100716666Y-62568116D01*
X100716666Y-62568116D02*
X100750000Y-62501450D01*
X100750000Y-62501450D02*
X100783333Y-62468116D01*
X100783333Y-62468116D02*
X100850000Y-62434783D01*
X102450000Y-46166033D02*
X102450000Y-45466033D01*
X102450000Y-45466033D02*
X102283333Y-45466033D01*
X102283333Y-45466033D02*
X102183333Y-45499366D01*
X102183333Y-45499366D02*
X102116667Y-45566033D01*
X102116667Y-45566033D02*
X102083333Y-45632700D01*
X102083333Y-45632700D02*
X102050000Y-45766033D01*
X102050000Y-45766033D02*
X102050000Y-45866033D01*
X102050000Y-45866033D02*
X102083333Y-45999366D01*
X102083333Y-45999366D02*
X102116667Y-46066033D01*
X102116667Y-46066033D02*
X102183333Y-46132700D01*
X102183333Y-46132700D02*
X102283333Y-46166033D01*
X102283333Y-46166033D02*
X102450000Y-46166033D01*
X101783333Y-45532700D02*
X101750000Y-45499366D01*
X101750000Y-45499366D02*
X101683333Y-45466033D01*
X101683333Y-45466033D02*
X101516667Y-45466033D01*
X101516667Y-45466033D02*
X101450000Y-45499366D01*
X101450000Y-45499366D02*
X101416667Y-45532700D01*
X101416667Y-45532700D02*
X101383333Y-45599366D01*
X101383333Y-45599366D02*
X101383333Y-45666033D01*
X101383333Y-45666033D02*
X101416667Y-45766033D01*
X101416667Y-45766033D02*
X101816667Y-46166033D01*
X101816667Y-46166033D02*
X101383333Y-46166033D01*
X101150000Y-45466033D02*
X100716666Y-45466033D01*
X100716666Y-45466033D02*
X100950000Y-45732700D01*
X100950000Y-45732700D02*
X100850000Y-45732700D01*
X100850000Y-45732700D02*
X100783333Y-45766033D01*
X100783333Y-45766033D02*
X100750000Y-45799366D01*
X100750000Y-45799366D02*
X100716666Y-45866033D01*
X100716666Y-45866033D02*
X100716666Y-46032700D01*
X100716666Y-46032700D02*
X100750000Y-46099366D01*
X100750000Y-46099366D02*
X100783333Y-46132700D01*
X100783333Y-46132700D02*
X100850000Y-46166033D01*
X100850000Y-46166033D02*
X101050000Y-46166033D01*
X101050000Y-46166033D02*
X101116666Y-46132700D01*
X101116666Y-46132700D02*
X101150000Y-46099366D01*
X138932421Y-73168106D02*
X138944638Y-72468213D01*
X138944638Y-72468213D02*
X138777996Y-72465304D01*
X138777996Y-72465304D02*
X138677430Y-72496887D01*
X138677430Y-72496887D02*
X138609610Y-72562380D01*
X138609610Y-72562380D02*
X138575118Y-72628455D01*
X138575118Y-72628455D02*
X138539463Y-72761186D01*
X138539463Y-72761186D02*
X138537717Y-72861171D01*
X138537717Y-72861171D02*
X138568719Y-72995066D01*
X138568719Y-72995066D02*
X138600884Y-73062304D01*
X138600884Y-73062304D02*
X138666377Y-73130124D01*
X138666377Y-73130124D02*
X138765780Y-73165198D01*
X138765780Y-73165198D02*
X138932421Y-73168106D01*
X138311401Y-72457160D02*
X137878133Y-72449597D01*
X137878133Y-72449597D02*
X138106777Y-72720295D01*
X138106777Y-72720295D02*
X138006792Y-72718550D01*
X138006792Y-72718550D02*
X137939554Y-72750715D01*
X137939554Y-72750715D02*
X137905644Y-72783461D01*
X137905644Y-72783461D02*
X137871152Y-72849536D01*
X137871152Y-72849536D02*
X137868244Y-73016177D01*
X137868244Y-73016177D02*
X137900408Y-73083416D01*
X137900408Y-73083416D02*
X137933155Y-73117326D01*
X137933155Y-73117326D02*
X137999230Y-73151817D01*
X137999230Y-73151817D02*
X138199199Y-73155308D01*
X138199199Y-73155308D02*
X138266437Y-73123143D01*
X138266437Y-73123143D02*
X138300347Y-73090397D01*
X137444866Y-72442034D02*
X137378209Y-72440871D01*
X137378209Y-72440871D02*
X137310971Y-72473036D01*
X137310971Y-72473036D02*
X137277061Y-72505782D01*
X137277061Y-72505782D02*
X137242569Y-72571857D01*
X137242569Y-72571857D02*
X137206914Y-72704588D01*
X137206914Y-72704588D02*
X137204005Y-72871229D01*
X137204005Y-72871229D02*
X137235006Y-73005124D01*
X137235006Y-73005124D02*
X137267171Y-73072362D01*
X137267171Y-73072362D02*
X137299918Y-73106272D01*
X137299918Y-73106272D02*
X137365992Y-73140764D01*
X137365992Y-73140764D02*
X137432649Y-73141928D01*
X137432649Y-73141928D02*
X137499887Y-73109763D01*
X137499887Y-73109763D02*
X137533797Y-73077016D01*
X137533797Y-73077016D02*
X137568289Y-73010942D01*
X137568289Y-73010942D02*
X137603944Y-72878210D01*
X137603944Y-72878210D02*
X137606853Y-72711569D01*
X137606853Y-72711569D02*
X137575852Y-72577674D01*
X137575852Y-72577674D02*
X137543687Y-72510436D01*
X137543687Y-72510436D02*
X137510940Y-72476526D01*
X137510940Y-72476526D02*
X137444866Y-72442034D01*
X25843254Y-106174806D02*
X26527958Y-106029268D01*
X26527958Y-106029268D02*
X26493306Y-105866244D01*
X26493306Y-105866244D02*
X26439910Y-105775359D01*
X26439910Y-105775359D02*
X26360839Y-105724010D01*
X26360839Y-105724010D02*
X26288699Y-105705266D01*
X26288699Y-105705266D02*
X26151349Y-105700383D01*
X26151349Y-105700383D02*
X26053534Y-105721174D01*
X26053534Y-105721174D02*
X25930045Y-105781500D01*
X25930045Y-105781500D02*
X25871765Y-105827966D01*
X25871765Y-105827966D02*
X25820416Y-105907037D01*
X25820416Y-105907037D02*
X25808602Y-106011782D01*
X25808602Y-106011782D02*
X25843254Y-106174806D01*
X26396280Y-105409775D02*
X26306185Y-104985911D01*
X26306185Y-104985911D02*
X26093858Y-105269588D01*
X26093858Y-105269588D02*
X26073067Y-105171773D01*
X26073067Y-105171773D02*
X26026602Y-105113494D01*
X26026602Y-105113494D02*
X25987066Y-105087820D01*
X25987066Y-105087820D02*
X25914926Y-105069075D01*
X25914926Y-105069075D02*
X25751901Y-105103727D01*
X25751901Y-105103727D02*
X25693622Y-105150193D01*
X25693622Y-105150193D02*
X25667947Y-105189728D01*
X25667947Y-105189728D02*
X25649203Y-105261869D01*
X25649203Y-105261869D02*
X25690786Y-105457498D01*
X25690786Y-105457498D02*
X25737251Y-105515778D01*
X25737251Y-105515778D02*
X25776787Y-105541452D01*
X26181438Y-104399022D02*
X26209160Y-104529441D01*
X26209160Y-104529441D02*
X26190415Y-104601582D01*
X26190415Y-104601582D02*
X26164741Y-104641117D01*
X26164741Y-104641117D02*
X26080787Y-104727118D01*
X26080787Y-104727118D02*
X25957298Y-104787445D01*
X25957298Y-104787445D02*
X25696458Y-104842888D01*
X25696458Y-104842888D02*
X25624318Y-104824143D01*
X25624318Y-104824143D02*
X25584783Y-104798469D01*
X25584783Y-104798469D02*
X25538317Y-104740190D01*
X25538317Y-104740190D02*
X25510595Y-104609770D01*
X25510595Y-104609770D02*
X25529340Y-104537630D01*
X25529340Y-104537630D02*
X25555014Y-104498094D01*
X25555014Y-104498094D02*
X25613294Y-104451629D01*
X25613294Y-104451629D02*
X25776318Y-104416977D01*
X25776318Y-104416977D02*
X25848458Y-104435721D01*
X25848458Y-104435721D02*
X25887994Y-104461395D01*
X25887994Y-104461395D02*
X25934459Y-104519675D01*
X25934459Y-104519675D02*
X25962181Y-104650094D01*
X25962181Y-104650094D02*
X25943437Y-104722235D01*
X25943437Y-104722235D02*
X25917762Y-104761770D01*
X25917762Y-104761770D02*
X25859483Y-104808236D01*
X102450000Y-79503533D02*
X102450000Y-78803533D01*
X102450000Y-78803533D02*
X102283333Y-78803533D01*
X102283333Y-78803533D02*
X102183333Y-78836866D01*
X102183333Y-78836866D02*
X102116667Y-78903533D01*
X102116667Y-78903533D02*
X102083333Y-78970200D01*
X102083333Y-78970200D02*
X102050000Y-79103533D01*
X102050000Y-79103533D02*
X102050000Y-79203533D01*
X102050000Y-79203533D02*
X102083333Y-79336866D01*
X102083333Y-79336866D02*
X102116667Y-79403533D01*
X102116667Y-79403533D02*
X102183333Y-79470200D01*
X102183333Y-79470200D02*
X102283333Y-79503533D01*
X102283333Y-79503533D02*
X102450000Y-79503533D01*
X101816667Y-78803533D02*
X101383333Y-78803533D01*
X101383333Y-78803533D02*
X101616667Y-79070200D01*
X101616667Y-79070200D02*
X101516667Y-79070200D01*
X101516667Y-79070200D02*
X101450000Y-79103533D01*
X101450000Y-79103533D02*
X101416667Y-79136866D01*
X101416667Y-79136866D02*
X101383333Y-79203533D01*
X101383333Y-79203533D02*
X101383333Y-79370200D01*
X101383333Y-79370200D02*
X101416667Y-79436866D01*
X101416667Y-79436866D02*
X101450000Y-79470200D01*
X101450000Y-79470200D02*
X101516667Y-79503533D01*
X101516667Y-79503533D02*
X101716667Y-79503533D01*
X101716667Y-79503533D02*
X101783333Y-79470200D01*
X101783333Y-79470200D02*
X101816667Y-79436866D01*
X100783333Y-79036866D02*
X100783333Y-79503533D01*
X100950000Y-78770200D02*
X101116666Y-79270200D01*
X101116666Y-79270200D02*
X100683333Y-79270200D01*
X194771726Y-80297283D02*
X194771726Y-79597283D01*
X194771726Y-79597283D02*
X194605059Y-79597283D01*
X194605059Y-79597283D02*
X194505059Y-79630616D01*
X194505059Y-79630616D02*
X194438393Y-79697283D01*
X194438393Y-79697283D02*
X194405059Y-79763950D01*
X194405059Y-79763950D02*
X194371726Y-79897283D01*
X194371726Y-79897283D02*
X194371726Y-79997283D01*
X194371726Y-79997283D02*
X194405059Y-80130616D01*
X194405059Y-80130616D02*
X194438393Y-80197283D01*
X194438393Y-80197283D02*
X194505059Y-80263950D01*
X194505059Y-80263950D02*
X194605059Y-80297283D01*
X194605059Y-80297283D02*
X194771726Y-80297283D01*
X193705059Y-80297283D02*
X194105059Y-80297283D01*
X193905059Y-80297283D02*
X193905059Y-79597283D01*
X193905059Y-79597283D02*
X193971726Y-79697283D01*
X193971726Y-79697283D02*
X194038393Y-79763950D01*
X194038393Y-79763950D02*
X194105059Y-79797283D01*
X193471726Y-79597283D02*
X193038392Y-79597283D01*
X193038392Y-79597283D02*
X193271726Y-79863950D01*
X193271726Y-79863950D02*
X193171726Y-79863950D01*
X193171726Y-79863950D02*
X193105059Y-79897283D01*
X193105059Y-79897283D02*
X193071726Y-79930616D01*
X193071726Y-79930616D02*
X193038392Y-79997283D01*
X193038392Y-79997283D02*
X193038392Y-80163950D01*
X193038392Y-80163950D02*
X193071726Y-80230616D01*
X193071726Y-80230616D02*
X193105059Y-80263950D01*
X193105059Y-80263950D02*
X193171726Y-80297283D01*
X193171726Y-80297283D02*
X193371726Y-80297283D01*
X193371726Y-80297283D02*
X193438392Y-80263950D01*
X193438392Y-80263950D02*
X193471726Y-80230616D01*
X269785196Y-105305704D02*
X269100492Y-105160166D01*
X269100492Y-105160166D02*
X269065840Y-105323190D01*
X269065840Y-105323190D02*
X269077654Y-105427935D01*
X269077654Y-105427935D02*
X269129003Y-105507006D01*
X269129003Y-105507006D02*
X269187283Y-105553472D01*
X269187283Y-105553472D02*
X269310772Y-105613798D01*
X269310772Y-105613798D02*
X269408587Y-105634589D01*
X269408587Y-105634589D02*
X269545937Y-105629706D01*
X269545937Y-105629706D02*
X269618077Y-105610962D01*
X269618077Y-105610962D02*
X269697148Y-105559613D01*
X269697148Y-105559613D02*
X269750544Y-105468728D01*
X269750544Y-105468728D02*
X269785196Y-105305704D01*
X269563423Y-106349061D02*
X269646588Y-105957802D01*
X269605006Y-106153432D02*
X268920302Y-106007893D01*
X268920302Y-106007893D02*
X269031978Y-105963475D01*
X269031978Y-105963475D02*
X269111048Y-105912126D01*
X269111048Y-105912126D02*
X269157514Y-105853846D01*
X269494119Y-106675111D02*
X269466398Y-106805530D01*
X269466398Y-106805530D02*
X269419932Y-106863810D01*
X269419932Y-106863810D02*
X269380397Y-106889484D01*
X269380397Y-106889484D02*
X269268721Y-106933903D01*
X269268721Y-106933903D02*
X269131371Y-106938786D01*
X269131371Y-106938786D02*
X268870532Y-106883343D01*
X268870532Y-106883343D02*
X268812252Y-106836878D01*
X268812252Y-106836878D02*
X268786578Y-106797342D01*
X268786578Y-106797342D02*
X268767834Y-106725202D01*
X268767834Y-106725202D02*
X268795555Y-106594782D01*
X268795555Y-106594782D02*
X268842021Y-106536503D01*
X268842021Y-106536503D02*
X268881556Y-106510828D01*
X268881556Y-106510828D02*
X268953696Y-106492084D01*
X268953696Y-106492084D02*
X269116721Y-106526736D01*
X269116721Y-106526736D02*
X269175001Y-106573202D01*
X269175001Y-106573202D02*
X269200675Y-106612737D01*
X269200675Y-106612737D02*
X269219419Y-106684877D01*
X269219419Y-106684877D02*
X269191698Y-106815297D01*
X269191698Y-106815297D02*
X269145232Y-106873577D01*
X269145232Y-106873577D02*
X269105697Y-106899251D01*
X269105697Y-106899251D02*
X269033556Y-106917995D01*
X232760866Y-46991644D02*
X232809695Y-46293349D01*
X232809695Y-46293349D02*
X232643435Y-46281723D01*
X232643435Y-46281723D02*
X232541353Y-46307999D01*
X232541353Y-46307999D02*
X232470198Y-46369853D01*
X232470198Y-46369853D02*
X232432296Y-46434032D01*
X232432296Y-46434032D02*
X232389743Y-46564716D01*
X232389743Y-46564716D02*
X232382767Y-46664472D01*
X232382767Y-46664472D02*
X232406718Y-46799806D01*
X232406718Y-46799806D02*
X232435320Y-46868635D01*
X232435320Y-46868635D02*
X232497174Y-46939790D01*
X232497174Y-46939790D02*
X232594605Y-46980018D01*
X232594605Y-46980018D02*
X232760866Y-46991644D01*
X231795855Y-46456357D02*
X231763302Y-46921887D01*
X231980717Y-46201966D02*
X232112100Y-46712375D01*
X232112100Y-46712375D02*
X231679822Y-46682147D01*
X175245042Y-60444255D02*
X175232825Y-59744361D01*
X175232825Y-59744361D02*
X175066184Y-59747270D01*
X175066184Y-59747270D02*
X174966781Y-59782343D01*
X174966781Y-59782343D02*
X174901288Y-59850163D01*
X174901288Y-59850163D02*
X174869123Y-59917402D01*
X174869123Y-59917402D02*
X174838122Y-60051297D01*
X174838122Y-60051297D02*
X174839867Y-60151281D01*
X174839867Y-60151281D02*
X174875522Y-60284013D01*
X174875522Y-60284013D02*
X174910014Y-60350087D01*
X174910014Y-60350087D02*
X174977834Y-60415580D01*
X174977834Y-60415580D02*
X175078400Y-60447163D01*
X175078400Y-60447163D02*
X175245042Y-60444255D01*
X174178537Y-60462871D02*
X174578477Y-60455890D01*
X174378507Y-60459380D02*
X174366290Y-59759487D01*
X174366290Y-59759487D02*
X174434692Y-59858308D01*
X174434692Y-59858308D02*
X174502512Y-59923801D01*
X174502512Y-59923801D02*
X174569750Y-59955966D01*
X176206611Y-93775937D02*
X176194394Y-93076044D01*
X176194394Y-93076044D02*
X176027753Y-93078952D01*
X176027753Y-93078952D02*
X175928350Y-93114026D01*
X175928350Y-93114026D02*
X175862857Y-93181846D01*
X175862857Y-93181846D02*
X175830692Y-93249084D01*
X175830692Y-93249084D02*
X175799691Y-93382979D01*
X175799691Y-93382979D02*
X175801436Y-93482964D01*
X175801436Y-93482964D02*
X175837091Y-93615695D01*
X175837091Y-93615695D02*
X175871583Y-93681770D01*
X175871583Y-93681770D02*
X175939403Y-93747263D01*
X175939403Y-93747263D02*
X176039970Y-93778846D01*
X176039970Y-93778846D02*
X176206611Y-93775937D01*
X175140107Y-93794553D02*
X175540046Y-93787572D01*
X175340076Y-93791063D02*
X175327860Y-93091169D01*
X175327860Y-93091169D02*
X175396261Y-93189990D01*
X175396261Y-93189990D02*
X175464081Y-93255483D01*
X175464081Y-93255483D02*
X175531320Y-93287648D01*
X174862427Y-93165970D02*
X174828517Y-93133224D01*
X174828517Y-93133224D02*
X174761279Y-93101059D01*
X174761279Y-93101059D02*
X174594638Y-93103968D01*
X174594638Y-93103968D02*
X174528563Y-93138459D01*
X174528563Y-93138459D02*
X174495816Y-93172369D01*
X174495816Y-93172369D02*
X174463652Y-93239608D01*
X174463652Y-93239608D02*
X174464815Y-93306264D01*
X174464815Y-93306264D02*
X174499889Y-93405667D01*
X174499889Y-93405667D02*
X174906809Y-93798625D01*
X174906809Y-93798625D02*
X174473541Y-93806188D01*
X249480019Y-70033646D02*
X249528848Y-69335351D01*
X249528848Y-69335351D02*
X249362588Y-69323725D01*
X249362588Y-69323725D02*
X249260506Y-69350002D01*
X249260506Y-69350002D02*
X249189351Y-69411855D01*
X249189351Y-69411855D02*
X249151449Y-69476034D01*
X249151449Y-69476034D02*
X249108896Y-69606718D01*
X249108896Y-69606718D02*
X249101920Y-69706474D01*
X249101920Y-69706474D02*
X249125871Y-69841808D01*
X249125871Y-69841808D02*
X249154473Y-69910637D01*
X249154473Y-69910637D02*
X249216327Y-69981792D01*
X249216327Y-69981792D02*
X249313758Y-70022020D01*
X249313758Y-70022020D02*
X249480019Y-70033646D01*
X248415951Y-69959239D02*
X248814976Y-69987142D01*
X248615463Y-69973190D02*
X248664293Y-69274896D01*
X248664293Y-69274896D02*
X248723822Y-69379302D01*
X248723822Y-69379302D02*
X248785675Y-69450457D01*
X248785675Y-69450457D02*
X248849854Y-69488360D01*
X247750908Y-69912735D02*
X248149933Y-69940637D01*
X247950420Y-69926686D02*
X247999250Y-69228391D01*
X247999250Y-69228391D02*
X248058779Y-69332798D01*
X248058779Y-69332798D02*
X248120632Y-69403953D01*
X248120632Y-69403953D02*
X248184811Y-69441855D01*
X246968787Y-104164896D02*
X247017616Y-103466601D01*
X247017616Y-103466601D02*
X246851356Y-103454975D01*
X246851356Y-103454975D02*
X246749274Y-103481252D01*
X246749274Y-103481252D02*
X246678119Y-103543105D01*
X246678119Y-103543105D02*
X246640217Y-103607284D01*
X246640217Y-103607284D02*
X246597664Y-103737968D01*
X246597664Y-103737968D02*
X246590688Y-103837724D01*
X246590688Y-103837724D02*
X246614639Y-103973058D01*
X246614639Y-103973058D02*
X246643241Y-104041887D01*
X246643241Y-104041887D02*
X246705095Y-104113042D01*
X246705095Y-104113042D02*
X246802526Y-104153270D01*
X246802526Y-104153270D02*
X246968787Y-104164896D01*
X245904719Y-104090489D02*
X246303744Y-104118392D01*
X246104231Y-104104440D02*
X246153061Y-103406146D01*
X246153061Y-103406146D02*
X246212590Y-103510552D01*
X246212590Y-103510552D02*
X246274443Y-103581707D01*
X246274443Y-103581707D02*
X246338622Y-103619610D01*
X245533595Y-103663561D02*
X245602425Y-103634959D01*
X245602425Y-103634959D02*
X245638002Y-103604032D01*
X245638002Y-103604032D02*
X245675905Y-103539853D01*
X245675905Y-103539853D02*
X245678230Y-103506601D01*
X245678230Y-103506601D02*
X245649628Y-103437772D01*
X245649628Y-103437772D02*
X245618701Y-103402194D01*
X245618701Y-103402194D02*
X245554522Y-103364292D01*
X245554522Y-103364292D02*
X245421514Y-103354991D01*
X245421514Y-103354991D02*
X245352684Y-103383593D01*
X245352684Y-103383593D02*
X245317107Y-103414519D01*
X245317107Y-103414519D02*
X245279204Y-103478698D01*
X245279204Y-103478698D02*
X245276879Y-103511951D01*
X245276879Y-103511951D02*
X245305481Y-103580780D01*
X245305481Y-103580780D02*
X245336408Y-103616357D01*
X245336408Y-103616357D02*
X245400587Y-103654260D01*
X245400587Y-103654260D02*
X245533595Y-103663561D01*
X245533595Y-103663561D02*
X245597774Y-103701463D01*
X245597774Y-103701463D02*
X245628701Y-103737041D01*
X245628701Y-103737041D02*
X245657303Y-103805870D01*
X245657303Y-103805870D02*
X245648002Y-103938879D01*
X245648002Y-103938879D02*
X245610099Y-104003058D01*
X245610099Y-104003058D02*
X245574522Y-104033985D01*
X245574522Y-104033985D02*
X245505693Y-104062586D01*
X245505693Y-104062586D02*
X245372684Y-104053286D01*
X245372684Y-104053286D02*
X245308505Y-104015383D01*
X245308505Y-104015383D02*
X245277578Y-103979806D01*
X245277578Y-103979806D02*
X245248976Y-103910976D01*
X245248976Y-103910976D02*
X245258277Y-103777968D01*
X245258277Y-103777968D02*
X245296180Y-103713789D01*
X245296180Y-103713789D02*
X245331757Y-103682862D01*
X245331757Y-103682862D02*
X245400587Y-103654260D01*
X194438392Y-46166033D02*
X194438392Y-45466033D01*
X194438392Y-45466033D02*
X194271725Y-45466033D01*
X194271725Y-45466033D02*
X194171725Y-45499366D01*
X194171725Y-45499366D02*
X194105059Y-45566033D01*
X194105059Y-45566033D02*
X194071725Y-45632700D01*
X194071725Y-45632700D02*
X194038392Y-45766033D01*
X194038392Y-45766033D02*
X194038392Y-45866033D01*
X194038392Y-45866033D02*
X194071725Y-45999366D01*
X194071725Y-45999366D02*
X194105059Y-46066033D01*
X194105059Y-46066033D02*
X194171725Y-46132700D01*
X194171725Y-46132700D02*
X194271725Y-46166033D01*
X194271725Y-46166033D02*
X194438392Y-46166033D01*
X193771725Y-45532700D02*
X193738392Y-45499366D01*
X193738392Y-45499366D02*
X193671725Y-45466033D01*
X193671725Y-45466033D02*
X193505059Y-45466033D01*
X193505059Y-45466033D02*
X193438392Y-45499366D01*
X193438392Y-45499366D02*
X193405059Y-45532700D01*
X193405059Y-45532700D02*
X193371725Y-45599366D01*
X193371725Y-45599366D02*
X193371725Y-45666033D01*
X193371725Y-45666033D02*
X193405059Y-45766033D01*
X193405059Y-45766033D02*
X193805059Y-46166033D01*
X193805059Y-46166033D02*
X193371725Y-46166033D01*
X194438392Y-62834783D02*
X194438392Y-62134783D01*
X194438392Y-62134783D02*
X194271725Y-62134783D01*
X194271725Y-62134783D02*
X194171725Y-62168116D01*
X194171725Y-62168116D02*
X194105059Y-62234783D01*
X194105059Y-62234783D02*
X194071725Y-62301450D01*
X194071725Y-62301450D02*
X194038392Y-62434783D01*
X194038392Y-62434783D02*
X194038392Y-62534783D01*
X194038392Y-62534783D02*
X194071725Y-62668116D01*
X194071725Y-62668116D02*
X194105059Y-62734783D01*
X194105059Y-62734783D02*
X194171725Y-62801450D01*
X194171725Y-62801450D02*
X194271725Y-62834783D01*
X194271725Y-62834783D02*
X194438392Y-62834783D01*
X193638392Y-62434783D02*
X193705059Y-62401450D01*
X193705059Y-62401450D02*
X193738392Y-62368116D01*
X193738392Y-62368116D02*
X193771725Y-62301450D01*
X193771725Y-62301450D02*
X193771725Y-62268116D01*
X193771725Y-62268116D02*
X193738392Y-62201450D01*
X193738392Y-62201450D02*
X193705059Y-62168116D01*
X193705059Y-62168116D02*
X193638392Y-62134783D01*
X193638392Y-62134783D02*
X193505059Y-62134783D01*
X193505059Y-62134783D02*
X193438392Y-62168116D01*
X193438392Y-62168116D02*
X193405059Y-62201450D01*
X193405059Y-62201450D02*
X193371725Y-62268116D01*
X193371725Y-62268116D02*
X193371725Y-62301450D01*
X193371725Y-62301450D02*
X193405059Y-62368116D01*
X193405059Y-62368116D02*
X193438392Y-62401450D01*
X193438392Y-62401450D02*
X193505059Y-62434783D01*
X193505059Y-62434783D02*
X193638392Y-62434783D01*
X193638392Y-62434783D02*
X193705059Y-62468116D01*
X193705059Y-62468116D02*
X193738392Y-62501450D01*
X193738392Y-62501450D02*
X193771725Y-62568116D01*
X193771725Y-62568116D02*
X193771725Y-62701450D01*
X193771725Y-62701450D02*
X193738392Y-62768116D01*
X193738392Y-62768116D02*
X193705059Y-62801450D01*
X193705059Y-62801450D02*
X193638392Y-62834783D01*
X193638392Y-62834783D02*
X193505059Y-62834783D01*
X193505059Y-62834783D02*
X193438392Y-62801450D01*
X193438392Y-62801450D02*
X193405059Y-62768116D01*
X193405059Y-62768116D02*
X193371725Y-62701450D01*
X193371725Y-62701450D02*
X193371725Y-62568116D01*
X193371725Y-62568116D02*
X193405059Y-62501450D01*
X193405059Y-62501450D02*
X193438392Y-62468116D01*
X193438392Y-62468116D02*
X193505059Y-62434783D01*
X212438392Y-37434783D02*
X212438392Y-36734783D01*
X212438392Y-36734783D02*
X212271725Y-36734783D01*
X212271725Y-36734783D02*
X212171725Y-36768116D01*
X212171725Y-36768116D02*
X212105059Y-36834783D01*
X212105059Y-36834783D02*
X212071725Y-36901450D01*
X212071725Y-36901450D02*
X212038392Y-37034783D01*
X212038392Y-37034783D02*
X212038392Y-37134783D01*
X212038392Y-37134783D02*
X212071725Y-37268116D01*
X212071725Y-37268116D02*
X212105059Y-37334783D01*
X212105059Y-37334783D02*
X212171725Y-37401450D01*
X212171725Y-37401450D02*
X212271725Y-37434783D01*
X212271725Y-37434783D02*
X212438392Y-37434783D01*
X211805059Y-36734783D02*
X211371725Y-36734783D01*
X211371725Y-36734783D02*
X211605059Y-37001450D01*
X211605059Y-37001450D02*
X211505059Y-37001450D01*
X211505059Y-37001450D02*
X211438392Y-37034783D01*
X211438392Y-37034783D02*
X211405059Y-37068116D01*
X211405059Y-37068116D02*
X211371725Y-37134783D01*
X211371725Y-37134783D02*
X211371725Y-37301450D01*
X211371725Y-37301450D02*
X211405059Y-37368116D01*
X211405059Y-37368116D02*
X211438392Y-37401450D01*
X211438392Y-37401450D02*
X211505059Y-37434783D01*
X211505059Y-37434783D02*
X211705059Y-37434783D01*
X211705059Y-37434783D02*
X211771725Y-37401450D01*
X211771725Y-37401450D02*
X211805059Y-37368116D01*
X231837771Y-64477396D02*
X231886600Y-63779101D01*
X231886600Y-63779101D02*
X231720340Y-63767475D01*
X231720340Y-63767475D02*
X231618258Y-63793752D01*
X231618258Y-63793752D02*
X231547103Y-63855605D01*
X231547103Y-63855605D02*
X231509201Y-63919784D01*
X231509201Y-63919784D02*
X231466648Y-64050468D01*
X231466648Y-64050468D02*
X231459672Y-64150224D01*
X231459672Y-64150224D02*
X231483623Y-64285558D01*
X231483623Y-64285558D02*
X231512225Y-64354387D01*
X231512225Y-64354387D02*
X231574079Y-64425542D01*
X231574079Y-64425542D02*
X231671510Y-64465770D01*
X231671510Y-64465770D02*
X231837771Y-64477396D01*
X230773703Y-64402989D02*
X231172728Y-64430892D01*
X230973215Y-64416940D02*
X231022045Y-63718646D01*
X231022045Y-63718646D02*
X231081574Y-63823052D01*
X231081574Y-63823052D02*
X231143427Y-63894207D01*
X231143427Y-63894207D02*
X231207606Y-63932110D01*
X230390254Y-63674466D02*
X230323750Y-63669816D01*
X230323750Y-63669816D02*
X230254920Y-63698418D01*
X230254920Y-63698418D02*
X230219343Y-63729345D01*
X230219343Y-63729345D02*
X230181440Y-63793524D01*
X230181440Y-63793524D02*
X230138887Y-63924207D01*
X230138887Y-63924207D02*
X230127261Y-64090468D01*
X230127261Y-64090468D02*
X230151213Y-64225801D01*
X230151213Y-64225801D02*
X230179814Y-64294631D01*
X230179814Y-64294631D02*
X230210741Y-64330208D01*
X230210741Y-64330208D02*
X230274920Y-64368111D01*
X230274920Y-64368111D02*
X230341424Y-64372761D01*
X230341424Y-64372761D02*
X230410254Y-64344160D01*
X230410254Y-64344160D02*
X230445831Y-64313233D01*
X230445831Y-64313233D02*
X230483734Y-64249054D01*
X230483734Y-64249054D02*
X230526287Y-64118370D01*
X230526287Y-64118370D02*
X230537913Y-63952110D01*
X230537913Y-63952110D02*
X230513962Y-63816776D01*
X230513962Y-63816776D02*
X230485360Y-63747946D01*
X230485360Y-63747946D02*
X230454433Y-63712369D01*
X230454433Y-63712369D02*
X230390254Y-63674466D01*
X230582154Y-81146146D02*
X230630983Y-80447851D01*
X230630983Y-80447851D02*
X230464723Y-80436225D01*
X230464723Y-80436225D02*
X230362641Y-80462502D01*
X230362641Y-80462502D02*
X230291486Y-80524355D01*
X230291486Y-80524355D02*
X230253584Y-80588534D01*
X230253584Y-80588534D02*
X230211031Y-80719218D01*
X230211031Y-80719218D02*
X230204055Y-80818974D01*
X230204055Y-80818974D02*
X230228006Y-80954308D01*
X230228006Y-80954308D02*
X230256608Y-81023137D01*
X230256608Y-81023137D02*
X230318462Y-81094292D01*
X230318462Y-81094292D02*
X230415893Y-81134520D01*
X230415893Y-81134520D02*
X230582154Y-81146146D01*
X229518086Y-81071739D02*
X229917111Y-81099642D01*
X229717598Y-81085690D02*
X229766428Y-80387396D01*
X229766428Y-80387396D02*
X229825957Y-80491802D01*
X229825957Y-80491802D02*
X229887810Y-80562957D01*
X229887810Y-80562957D02*
X229951989Y-80600860D01*
X228935124Y-80329265D02*
X229267646Y-80352517D01*
X229267646Y-80352517D02*
X229277646Y-80687364D01*
X229277646Y-80687364D02*
X229246719Y-80651787D01*
X229246719Y-80651787D02*
X229182540Y-80613884D01*
X229182540Y-80613884D02*
X229016279Y-80602258D01*
X229016279Y-80602258D02*
X228947449Y-80630860D01*
X228947449Y-80630860D02*
X228911872Y-80661787D01*
X228911872Y-80661787D02*
X228873969Y-80725966D01*
X228873969Y-80725966D02*
X228862343Y-80892226D01*
X228862343Y-80892226D02*
X228890945Y-80961056D01*
X228890945Y-80961056D02*
X228921872Y-80996633D01*
X228921872Y-80996633D02*
X228986051Y-81034536D01*
X228986051Y-81034536D02*
X229152312Y-81046162D01*
X229152312Y-81046162D02*
X229221141Y-81017560D01*
X229221141Y-81017560D02*
X229256719Y-80986633D01*
X229012635Y-102577396D02*
X229061464Y-101879101D01*
X229061464Y-101879101D02*
X228895204Y-101867475D01*
X228895204Y-101867475D02*
X228793122Y-101893752D01*
X228793122Y-101893752D02*
X228721967Y-101955605D01*
X228721967Y-101955605D02*
X228684065Y-102019784D01*
X228684065Y-102019784D02*
X228641512Y-102150468D01*
X228641512Y-102150468D02*
X228634536Y-102250224D01*
X228634536Y-102250224D02*
X228658487Y-102385558D01*
X228658487Y-102385558D02*
X228687089Y-102454387D01*
X228687089Y-102454387D02*
X228748943Y-102525542D01*
X228748943Y-102525542D02*
X228846374Y-102565770D01*
X228846374Y-102565770D02*
X229012635Y-102577396D01*
X227948567Y-102502989D02*
X228347592Y-102530892D01*
X228148079Y-102516940D02*
X228196909Y-101818646D01*
X228196909Y-101818646D02*
X228256438Y-101923052D01*
X228256438Y-101923052D02*
X228318291Y-101994207D01*
X228318291Y-101994207D02*
X228382470Y-102032110D01*
X227764631Y-101788418D02*
X227299101Y-101755865D01*
X227299101Y-101755865D02*
X227549541Y-102475086D01*
X248224404Y-86702396D02*
X248273233Y-86004101D01*
X248273233Y-86004101D02*
X248106973Y-85992475D01*
X248106973Y-85992475D02*
X248004891Y-86018752D01*
X248004891Y-86018752D02*
X247933736Y-86080605D01*
X247933736Y-86080605D02*
X247895834Y-86144784D01*
X247895834Y-86144784D02*
X247853281Y-86275468D01*
X247853281Y-86275468D02*
X247846305Y-86375224D01*
X247846305Y-86375224D02*
X247870256Y-86510558D01*
X247870256Y-86510558D02*
X247898858Y-86579387D01*
X247898858Y-86579387D02*
X247960712Y-86650542D01*
X247960712Y-86650542D02*
X248058143Y-86690770D01*
X248058143Y-86690770D02*
X248224404Y-86702396D01*
X247160336Y-86627989D02*
X247559361Y-86655892D01*
X247359848Y-86641940D02*
X247408678Y-85943646D01*
X247408678Y-85943646D02*
X247468207Y-86048052D01*
X247468207Y-86048052D02*
X247530060Y-86119207D01*
X247530060Y-86119207D02*
X247594239Y-86157110D01*
X246610626Y-85887840D02*
X246743635Y-85897141D01*
X246743635Y-85897141D02*
X246807814Y-85935044D01*
X246807814Y-85935044D02*
X246838741Y-85970621D01*
X246838741Y-85970621D02*
X246898269Y-86075028D01*
X246898269Y-86075028D02*
X246922221Y-86210362D01*
X246922221Y-86210362D02*
X246903619Y-86476379D01*
X246903619Y-86476379D02*
X246865716Y-86540558D01*
X246865716Y-86540558D02*
X246830139Y-86571485D01*
X246830139Y-86571485D02*
X246761310Y-86600086D01*
X246761310Y-86600086D02*
X246628301Y-86590786D01*
X246628301Y-86590786D02*
X246564122Y-86552883D01*
X246564122Y-86552883D02*
X246533195Y-86517306D01*
X246533195Y-86517306D02*
X246504593Y-86448476D01*
X246504593Y-86448476D02*
X246516219Y-86282216D01*
X246516219Y-86282216D02*
X246554122Y-86218037D01*
X246554122Y-86218037D02*
X246589699Y-86187110D01*
X246589699Y-86187110D02*
X246658529Y-86158508D01*
X246658529Y-86158508D02*
X246791537Y-86167809D01*
X246791537Y-86167809D02*
X246855716Y-86205711D01*
X246855716Y-86205711D02*
X246886643Y-86241289D01*
X246886643Y-86241289D02*
X246915245Y-86310118D01*
X212771726Y-71566033D02*
X212771726Y-70866033D01*
X212771726Y-70866033D02*
X212605059Y-70866033D01*
X212605059Y-70866033D02*
X212505059Y-70899366D01*
X212505059Y-70899366D02*
X212438393Y-70966033D01*
X212438393Y-70966033D02*
X212405059Y-71032700D01*
X212405059Y-71032700D02*
X212371726Y-71166033D01*
X212371726Y-71166033D02*
X212371726Y-71266033D01*
X212371726Y-71266033D02*
X212405059Y-71399366D01*
X212405059Y-71399366D02*
X212438393Y-71466033D01*
X212438393Y-71466033D02*
X212505059Y-71532700D01*
X212505059Y-71532700D02*
X212605059Y-71566033D01*
X212605059Y-71566033D02*
X212771726Y-71566033D01*
X211705059Y-71566033D02*
X212105059Y-71566033D01*
X211905059Y-71566033D02*
X211905059Y-70866033D01*
X211905059Y-70866033D02*
X211971726Y-70966033D01*
X211971726Y-70966033D02*
X212038393Y-71032700D01*
X212038393Y-71032700D02*
X212105059Y-71066033D01*
X211105059Y-71099366D02*
X211105059Y-71566033D01*
X211271726Y-70832700D02*
X211438392Y-71332700D01*
X211438392Y-71332700D02*
X211005059Y-71332700D01*
X250403114Y-52547894D02*
X250451943Y-51849599D01*
X250451943Y-51849599D02*
X250285683Y-51837973D01*
X250285683Y-51837973D02*
X250183601Y-51864249D01*
X250183601Y-51864249D02*
X250112446Y-51926103D01*
X250112446Y-51926103D02*
X250074544Y-51990282D01*
X250074544Y-51990282D02*
X250031991Y-52120966D01*
X250031991Y-52120966D02*
X250025015Y-52220722D01*
X250025015Y-52220722D02*
X250048966Y-52356056D01*
X250048966Y-52356056D02*
X250077568Y-52424885D01*
X250077568Y-52424885D02*
X250139422Y-52496040D01*
X250139422Y-52496040D02*
X250236853Y-52536268D01*
X250236853Y-52536268D02*
X250403114Y-52547894D01*
X249421127Y-51777517D02*
X249753649Y-51800769D01*
X249753649Y-51800769D02*
X249763649Y-52135616D01*
X249763649Y-52135616D02*
X249732722Y-52100039D01*
X249732722Y-52100039D02*
X249668543Y-52062136D01*
X249668543Y-52062136D02*
X249502282Y-52050510D01*
X249502282Y-52050510D02*
X249433452Y-52079112D01*
X249433452Y-52079112D02*
X249397875Y-52110039D01*
X249397875Y-52110039D02*
X249359973Y-52174218D01*
X249359973Y-52174218D02*
X249348346Y-52340478D01*
X249348346Y-52340478D02*
X249376948Y-52409308D01*
X249376948Y-52409308D02*
X249407875Y-52444885D01*
X249407875Y-52444885D02*
X249472054Y-52482788D01*
X249472054Y-52482788D02*
X249638315Y-52494414D01*
X249638315Y-52494414D02*
X249707144Y-52465812D01*
X249707144Y-52465812D02*
X249742722Y-52434885D01*
X212438392Y-54103533D02*
X212438392Y-53403533D01*
X212438392Y-53403533D02*
X212271725Y-53403533D01*
X212271725Y-53403533D02*
X212171725Y-53436866D01*
X212171725Y-53436866D02*
X212105059Y-53503533D01*
X212105059Y-53503533D02*
X212071725Y-53570200D01*
X212071725Y-53570200D02*
X212038392Y-53703533D01*
X212038392Y-53703533D02*
X212038392Y-53803533D01*
X212038392Y-53803533D02*
X212071725Y-53936866D01*
X212071725Y-53936866D02*
X212105059Y-54003533D01*
X212105059Y-54003533D02*
X212171725Y-54070200D01*
X212171725Y-54070200D02*
X212271725Y-54103533D01*
X212271725Y-54103533D02*
X212438392Y-54103533D01*
X211705059Y-54103533D02*
X211571725Y-54103533D01*
X211571725Y-54103533D02*
X211505059Y-54070200D01*
X211505059Y-54070200D02*
X211471725Y-54036866D01*
X211471725Y-54036866D02*
X211405059Y-53936866D01*
X211405059Y-53936866D02*
X211371725Y-53803533D01*
X211371725Y-53803533D02*
X211371725Y-53536866D01*
X211371725Y-53536866D02*
X211405059Y-53470200D01*
X211405059Y-53470200D02*
X211438392Y-53436866D01*
X211438392Y-53436866D02*
X211505059Y-53403533D01*
X211505059Y-53403533D02*
X211638392Y-53403533D01*
X211638392Y-53403533D02*
X211705059Y-53436866D01*
X211705059Y-53436866D02*
X211738392Y-53470200D01*
X211738392Y-53470200D02*
X211771725Y-53536866D01*
X211771725Y-53536866D02*
X211771725Y-53703533D01*
X211771725Y-53703533D02*
X211738392Y-53770200D01*
X211738392Y-53770200D02*
X211705059Y-53803533D01*
X211705059Y-53803533D02*
X211638392Y-53836866D01*
X211638392Y-53836866D02*
X211505059Y-53836866D01*
X211505059Y-53836866D02*
X211438392Y-53803533D01*
X211438392Y-53803533D02*
X211405059Y-53770200D01*
X211405059Y-53770200D02*
X211371725Y-53703533D01*
X175559185Y-77113005D02*
X175546968Y-76413111D01*
X175546968Y-76413111D02*
X175380327Y-76416020D01*
X175380327Y-76416020D02*
X175280924Y-76451093D01*
X175280924Y-76451093D02*
X175215431Y-76518913D01*
X175215431Y-76518913D02*
X175183266Y-76586152D01*
X175183266Y-76586152D02*
X175152265Y-76720047D01*
X175152265Y-76720047D02*
X175154010Y-76820031D01*
X175154010Y-76820031D02*
X175189665Y-76952763D01*
X175189665Y-76952763D02*
X175224157Y-77018837D01*
X175224157Y-77018837D02*
X175291977Y-77084330D01*
X175291977Y-77084330D02*
X175392543Y-77115913D01*
X175392543Y-77115913D02*
X175559185Y-77113005D01*
X174913731Y-76424164D02*
X174447136Y-76432309D01*
X174447136Y-76432309D02*
X174759307Y-77126967D01*
X157887388Y-73144255D02*
X157875171Y-72444361D01*
X157875171Y-72444361D02*
X157708530Y-72447270D01*
X157708530Y-72447270D02*
X157609127Y-72482343D01*
X157609127Y-72482343D02*
X157543634Y-72550163D01*
X157543634Y-72550163D02*
X157511469Y-72617402D01*
X157511469Y-72617402D02*
X157480468Y-72751297D01*
X157480468Y-72751297D02*
X157482213Y-72851281D01*
X157482213Y-72851281D02*
X157517868Y-72984013D01*
X157517868Y-72984013D02*
X157552360Y-73050087D01*
X157552360Y-73050087D02*
X157620180Y-73115580D01*
X157620180Y-73115580D02*
X157720746Y-73147163D01*
X157720746Y-73147163D02*
X157887388Y-73144255D01*
X156875323Y-72461814D02*
X157008636Y-72459487D01*
X157008636Y-72459487D02*
X157075875Y-72491651D01*
X157075875Y-72491651D02*
X157109785Y-72524398D01*
X157109785Y-72524398D02*
X157178186Y-72623219D01*
X157178186Y-72623219D02*
X157213842Y-72755950D01*
X157213842Y-72755950D02*
X157218496Y-73022577D01*
X157218496Y-73022577D02*
X157186331Y-73089815D01*
X157186331Y-73089815D02*
X157153584Y-73123725D01*
X157153584Y-73123725D02*
X157087510Y-73158217D01*
X157087510Y-73158217D02*
X156954197Y-73160544D01*
X156954197Y-73160544D02*
X156886958Y-73128379D01*
X156886958Y-73128379D02*
X156853048Y-73095632D01*
X156853048Y-73095632D02*
X156818556Y-73029558D01*
X156818556Y-73029558D02*
X156815648Y-72862916D01*
X156815648Y-72862916D02*
X156847813Y-72795678D01*
X156847813Y-72795678D02*
X156880559Y-72761768D01*
X156880559Y-72761768D02*
X156946634Y-72727276D01*
X156946634Y-72727276D02*
X157079947Y-72724949D01*
X157079947Y-72724949D02*
X157147185Y-72757114D01*
X157147185Y-72757114D02*
X157181095Y-72789860D01*
X157181095Y-72789860D02*
X157215587Y-72855935D01*
D11*
%TO.C,D25*%
X48682093Y-67375863D02*
X48779752Y-68772452D01*
X48682093Y-67375863D02*
X43893786Y-67710694D01*
X48779752Y-68772452D02*
X43991445Y-69107283D01*
X48083555Y-67417717D02*
X48181214Y-68814306D01*
X46312354Y-67892426D02*
X46364672Y-68640599D01*
X46336769Y-68241573D02*
X46636038Y-68220646D01*
X46336769Y-68241573D02*
X45713816Y-67934280D01*
X45713816Y-67934280D02*
X45766133Y-68682453D01*
X45738231Y-68283427D02*
X45438962Y-68304354D01*
X45766133Y-68682453D02*
X46336769Y-68241573D01*
X43893786Y-67710694D02*
X43991445Y-69107283D01*
D12*
X48779752Y-68772452D02*
X48181214Y-68814306D01*
X48083555Y-67417717D01*
X48682093Y-67375863D01*
X48779752Y-68772452D01*
G36*
X48779752Y-68772452D02*
G01*
X48181214Y-68814306D01*
X48083555Y-67417717D01*
X48682093Y-67375863D01*
X48779752Y-68772452D01*
G37*
D11*
%TO.C,D26*%
X66938343Y-61819613D02*
X67036002Y-63216202D01*
X66938343Y-61819613D02*
X62150036Y-62154444D01*
X67036002Y-63216202D02*
X62247695Y-63551033D01*
X66339805Y-61861467D02*
X66437464Y-63258056D01*
X64568604Y-62336176D02*
X64620922Y-63084349D01*
X64593019Y-62685323D02*
X64892288Y-62664396D01*
X64593019Y-62685323D02*
X63970066Y-62378030D01*
X63970066Y-62378030D02*
X64022383Y-63126203D01*
X63994481Y-62727177D02*
X63695212Y-62748104D01*
X64022383Y-63126203D02*
X64593019Y-62685323D01*
X62150036Y-62154444D02*
X62247695Y-63551033D01*
D12*
X67036002Y-63216202D02*
X66437464Y-63258056D01*
X66339805Y-61861467D01*
X66938343Y-61819613D01*
X67036002Y-63216202D01*
G36*
X67036002Y-63216202D02*
G01*
X66437464Y-63258056D01*
X66339805Y-61861467D01*
X66938343Y-61819613D01*
X67036002Y-63216202D01*
G37*
D11*
%TO.C,D27*%
X86043750Y-51687500D02*
X86043750Y-53087500D01*
X86043750Y-51687500D02*
X81243750Y-51687500D01*
X86043750Y-53087500D02*
X81243750Y-53087500D01*
X85443750Y-51687500D02*
X85443750Y-53087500D01*
X83643750Y-52037500D02*
X83643750Y-52787500D01*
X83643750Y-52387500D02*
X83943750Y-52387500D01*
X83643750Y-52387500D02*
X83043750Y-52037500D01*
X83043750Y-52037500D02*
X83043750Y-52787500D01*
X83043750Y-52387500D02*
X82743750Y-52387500D01*
X83043750Y-52787500D02*
X83643750Y-52387500D01*
X81243750Y-51687500D02*
X81243750Y-53087500D01*
D12*
X86043750Y-51687500D02*
X85443750Y-51687500D01*
X85443750Y-53087500D01*
X86043750Y-53087500D01*
X86043750Y-51687500D01*
G36*
X86043750Y-51687500D02*
G01*
X85443750Y-51687500D01*
X85443750Y-53087500D01*
X86043750Y-53087500D01*
X86043750Y-51687500D01*
G37*
D11*
%TO.C,D33*%
X86231250Y-69150000D02*
X86231250Y-70550000D01*
X86231250Y-69150000D02*
X81431250Y-69150000D01*
X86231250Y-70550000D02*
X81431250Y-70550000D01*
X85631250Y-69150000D02*
X85631250Y-70550000D01*
X83831250Y-69500000D02*
X83831250Y-70250000D01*
X83831250Y-69850000D02*
X84131250Y-69850000D01*
X83831250Y-69850000D02*
X83231250Y-69500000D01*
X83231250Y-69500000D02*
X83231250Y-70250000D01*
X83231250Y-69850000D02*
X82931250Y-69850000D01*
X83231250Y-70250000D02*
X83831250Y-69850000D01*
X81431250Y-69150000D02*
X81431250Y-70550000D01*
D12*
X86231250Y-69150000D02*
X85631250Y-69150000D01*
X85631250Y-70550000D01*
X86231250Y-70550000D01*
X86231250Y-69150000D01*
G36*
X86231250Y-69150000D02*
G01*
X85631250Y-69150000D01*
X85631250Y-70550000D01*
X86231250Y-70550000D01*
X86231250Y-69150000D01*
G37*
D11*
%TO.C,D35*%
X122568055Y-91422228D02*
X122543622Y-92822015D01*
X122568055Y-91422228D02*
X117768787Y-91338457D01*
X122543622Y-92822015D02*
X117744353Y-92738243D01*
X121968147Y-91411757D02*
X121943713Y-92811543D01*
X120162313Y-91730289D02*
X120149223Y-92480175D01*
X120156204Y-92080236D02*
X120456159Y-92085471D01*
X120156204Y-92080236D02*
X119562404Y-91719818D01*
X119562404Y-91719818D02*
X119549315Y-92469703D01*
X119556296Y-92069764D02*
X119256341Y-92064529D01*
X119549315Y-92469703D02*
X120156204Y-92080236D01*
X117768787Y-91338457D02*
X117744353Y-92738243D01*
D12*
X122568055Y-91422228D02*
X122543622Y-92822015D01*
X121943713Y-92811543D01*
X121968147Y-91411757D01*
X122568055Y-91422228D01*
G36*
X122568055Y-91422228D02*
G01*
X122543622Y-92822015D01*
X121943713Y-92811543D01*
X121968147Y-91411757D01*
X122568055Y-91422228D01*
G37*
D11*
%TO.C,D29*%
X123361805Y-74729044D02*
X123337372Y-76128831D01*
X123361805Y-74729044D02*
X118562536Y-74645273D01*
X123337372Y-76128831D02*
X118538104Y-76045059D01*
X122761896Y-74718573D02*
X122737464Y-76118359D01*
X120956063Y-75037105D02*
X120942973Y-75786990D01*
X120949954Y-75387051D02*
X121249909Y-75392288D01*
X120949954Y-75387051D02*
X120356154Y-75026634D01*
X120356154Y-75026634D02*
X120343065Y-75776520D01*
X120350046Y-75376581D02*
X120050091Y-75371344D01*
X120343065Y-75776520D02*
X120949954Y-75387051D01*
X118562536Y-74645273D02*
X118538104Y-76045059D01*
D12*
X123361805Y-74729044D02*
X123337372Y-76128831D01*
X122737464Y-76118359D01*
X122761896Y-74718573D01*
X123361805Y-74729044D01*
G36*
X123361805Y-74729044D02*
G01*
X123337372Y-76128831D01*
X122737464Y-76118359D01*
X122761896Y-74718573D01*
X123361805Y-74729044D01*
G37*
D11*
%TO.C,D37*%
X51063343Y-100713363D02*
X51161002Y-102109952D01*
X51063343Y-100713363D02*
X46275036Y-101048194D01*
X51161002Y-102109952D02*
X46372695Y-102444783D01*
X50464805Y-100755217D02*
X50562464Y-102151806D01*
X48693604Y-101229926D02*
X48745922Y-101978099D01*
X48718019Y-101579073D02*
X49017288Y-101558146D01*
X48718019Y-101579073D02*
X48095066Y-101271780D01*
X48095066Y-101271780D02*
X48147383Y-102019953D01*
X48119481Y-101620927D02*
X47820212Y-101641854D01*
X48147383Y-102019953D02*
X48718019Y-101579073D01*
X46275036Y-101048194D02*
X46372695Y-102444783D01*
D12*
X51161002Y-102109952D02*
X50562464Y-102151806D01*
X50464805Y-100755217D01*
X51063343Y-100713363D01*
X51161002Y-102109952D01*
G36*
X51161002Y-102109952D02*
G01*
X50562464Y-102151806D01*
X50464805Y-100755217D01*
X51063343Y-100713363D01*
X51161002Y-102109952D01*
G37*
D11*
%TO.C,D21*%
X65350843Y-44454772D02*
X65448502Y-45851361D01*
X65350843Y-44454772D02*
X60562536Y-44789603D01*
X65448502Y-45851361D02*
X60660195Y-46186192D01*
X64752305Y-44496626D02*
X64849964Y-45893215D01*
X62981105Y-44971335D02*
X63033422Y-45719508D01*
X63005519Y-45320482D02*
X63304788Y-45299555D01*
X63005519Y-45320482D02*
X62382567Y-45013189D01*
X62382567Y-45013189D02*
X62434883Y-45761362D01*
X62406981Y-45362336D02*
X62107712Y-45383263D01*
X62434883Y-45761362D02*
X63005519Y-45320482D01*
X60562536Y-44789603D02*
X60660195Y-46186192D01*
D12*
X65448502Y-45851361D02*
X64849964Y-45893215D01*
X64752305Y-44496626D01*
X65350843Y-44454772D01*
X65448502Y-45851361D01*
G36*
X65448502Y-45851361D02*
G01*
X64849964Y-45893215D01*
X64752305Y-44496626D01*
X65350843Y-44454772D01*
X65448502Y-45851361D01*
G37*
D11*
%TO.C,D20*%
X47644593Y-50113363D02*
X47742252Y-51509952D01*
X47644593Y-50113363D02*
X42856286Y-50448194D01*
X47742252Y-51509952D02*
X42953945Y-51844783D01*
X47046055Y-50155217D02*
X47143714Y-51551806D01*
X45274855Y-50629926D02*
X45327172Y-51378099D01*
X45299269Y-50979073D02*
X45598538Y-50958146D01*
X45299269Y-50979073D02*
X44676317Y-50671780D01*
X44676317Y-50671780D02*
X44728633Y-51419953D01*
X44700731Y-51020927D02*
X44401462Y-51041854D01*
X44728633Y-51419953D02*
X45299269Y-50979073D01*
X42856286Y-50448194D02*
X42953945Y-51844783D01*
D12*
X47742252Y-51509952D02*
X47143714Y-51551806D01*
X47046055Y-50155217D01*
X47644593Y-50113363D01*
X47742252Y-51509952D01*
G36*
X47742252Y-51509952D02*
G01*
X47143714Y-51551806D01*
X47046055Y-50155217D01*
X47644593Y-50113363D01*
X47742252Y-51509952D01*
G37*
D11*
%TO.C,D38*%
X69319593Y-99919613D02*
X69417252Y-101316202D01*
X69319593Y-99919613D02*
X64531286Y-100254444D01*
X69417252Y-101316202D02*
X64628945Y-101651033D01*
X68721055Y-99961467D02*
X68818714Y-101358056D01*
X66949855Y-100436176D02*
X67002172Y-101184349D01*
X66974269Y-100785323D02*
X67273538Y-100764396D01*
X66974269Y-100785323D02*
X66351317Y-100478030D01*
X66351317Y-100478030D02*
X66403633Y-101226203D01*
X66375731Y-100827177D02*
X66076462Y-100848104D01*
X66403633Y-101226203D02*
X66974269Y-100785323D01*
X64531286Y-100254444D02*
X64628945Y-101651033D01*
D12*
X69417252Y-101316202D02*
X68818714Y-101358056D01*
X68721055Y-99961467D01*
X69319593Y-99919613D01*
X69417252Y-101316202D01*
G36*
X69417252Y-101316202D02*
G01*
X68818714Y-101358056D01*
X68721055Y-99961467D01*
X69319593Y-99919613D01*
X69417252Y-101316202D01*
G37*
D11*
%TO.C,D32*%
X67544593Y-78488363D02*
X67642252Y-79884952D01*
X67544593Y-78488363D02*
X62756286Y-78823194D01*
X67642252Y-79884952D02*
X62853945Y-80219783D01*
X66946055Y-78530217D02*
X67043714Y-79926806D01*
X65174854Y-79004926D02*
X65227172Y-79753099D01*
X65199269Y-79354073D02*
X65498538Y-79333146D01*
X65199269Y-79354073D02*
X64576316Y-79046780D01*
X64576316Y-79046780D02*
X64628633Y-79794953D01*
X64600731Y-79395927D02*
X64301462Y-79416854D01*
X64628633Y-79794953D02*
X65199269Y-79354073D01*
X62756286Y-78823194D02*
X62853945Y-80219783D01*
D12*
X67642252Y-79884952D02*
X67043714Y-79926806D01*
X66946055Y-78530217D01*
X67544593Y-78488363D01*
X67642252Y-79884952D01*
G36*
X67642252Y-79884952D02*
G01*
X67043714Y-79926806D01*
X66946055Y-78530217D01*
X67544593Y-78488363D01*
X67642252Y-79884952D01*
G37*
D11*
%TO.C,D22*%
X86231250Y-35018750D02*
X86231250Y-36418750D01*
X86231250Y-35018750D02*
X81431250Y-35018750D01*
X86231250Y-36418750D02*
X81431250Y-36418750D01*
X85631250Y-35018750D02*
X85631250Y-36418750D01*
X83831250Y-35368750D02*
X83831250Y-36118750D01*
X83831250Y-35718750D02*
X84131250Y-35718750D01*
X83831250Y-35718750D02*
X83231250Y-35368750D01*
X83231250Y-35368750D02*
X83231250Y-36118750D01*
X83231250Y-35718750D02*
X82931250Y-35718750D01*
X83231250Y-36118750D02*
X83831250Y-35718750D01*
X81431250Y-35018750D02*
X81431250Y-36418750D01*
D12*
X86231250Y-35018750D02*
X85631250Y-35018750D01*
X85631250Y-36418750D01*
X86231250Y-36418750D01*
X86231250Y-35018750D01*
G36*
X86231250Y-35018750D02*
G01*
X85631250Y-35018750D01*
X85631250Y-36418750D01*
X86231250Y-36418750D01*
X86231250Y-35018750D01*
G37*
D11*
%TO.C,D31*%
X50269593Y-84044613D02*
X50367252Y-85441202D01*
X50269593Y-84044613D02*
X45481286Y-84379444D01*
X50367252Y-85441202D02*
X45578945Y-85776033D01*
X49671055Y-84086467D02*
X49768714Y-85483056D01*
X47899855Y-84561176D02*
X47952172Y-85309349D01*
X47924269Y-84910323D02*
X48223538Y-84889396D01*
X47924269Y-84910323D02*
X47301317Y-84603030D01*
X47301317Y-84603030D02*
X47353633Y-85351203D01*
X47325731Y-84952177D02*
X47026462Y-84973104D01*
X47353633Y-85351203D02*
X47924269Y-84910323D01*
X45481286Y-84379444D02*
X45578945Y-85776033D01*
D12*
X50367252Y-85441202D02*
X49768714Y-85483056D01*
X49671055Y-84086467D01*
X50269593Y-84044613D01*
X50367252Y-85441202D01*
G36*
X50367252Y-85441202D02*
G01*
X49768714Y-85483056D01*
X49671055Y-84086467D01*
X50269593Y-84044613D01*
X50367252Y-85441202D01*
G37*
D11*
%TO.C,D24*%
X123361805Y-57290978D02*
X123337372Y-58690765D01*
X123361805Y-57290978D02*
X118562537Y-57207207D01*
X123337372Y-58690765D02*
X118538103Y-58606993D01*
X122761897Y-57280507D02*
X122737463Y-58680293D01*
X120956063Y-57599039D02*
X120942973Y-58348925D01*
X120949954Y-57948986D02*
X121249909Y-57954221D01*
X120949954Y-57948986D02*
X120356154Y-57588568D01*
X120356154Y-57588568D02*
X120343065Y-58338453D01*
X120350046Y-57938514D02*
X120050091Y-57933279D01*
X120343065Y-58338453D02*
X120949954Y-57948986D01*
X118562537Y-57207207D02*
X118538103Y-58606993D01*
D12*
X123361805Y-57290978D02*
X123337372Y-58690765D01*
X122737463Y-58680293D01*
X122761897Y-57280507D01*
X123361805Y-57290978D01*
G36*
X123361805Y-57290978D02*
G01*
X123337372Y-58690765D01*
X122737463Y-58680293D01*
X122761897Y-57280507D01*
X123361805Y-57290978D01*
G37*
D11*
%TO.C,D28*%
X104300000Y-60418750D02*
X104300000Y-61818750D01*
X104300000Y-60418750D02*
X99500000Y-60418750D01*
X104300000Y-61818750D02*
X99500000Y-61818750D01*
X103700000Y-60418750D02*
X103700000Y-61818750D01*
X101900000Y-60768750D02*
X101900000Y-61518750D01*
X101900000Y-61118750D02*
X102200000Y-61118750D01*
X101900000Y-61118750D02*
X101300000Y-60768750D01*
X101300000Y-60768750D02*
X101300000Y-61518750D01*
X101300000Y-61118750D02*
X101000000Y-61118750D01*
X101300000Y-61518750D02*
X101900000Y-61118750D01*
X99500000Y-60418750D02*
X99500000Y-61818750D01*
D12*
X104300000Y-60418750D02*
X103700000Y-60418750D01*
X103700000Y-61818750D01*
X104300000Y-61818750D01*
X104300000Y-60418750D01*
G36*
X104300000Y-60418750D02*
G01*
X103700000Y-60418750D01*
X103700000Y-61818750D01*
X104300000Y-61818750D01*
X104300000Y-60418750D01*
G37*
%TO.C,D23*%
X104300000Y-43750000D02*
X103700000Y-43750000D01*
X103700000Y-45150000D01*
X104300000Y-45150000D01*
X104300000Y-43750000D01*
G36*
X104300000Y-43750000D02*
G01*
X103700000Y-43750000D01*
X103700000Y-45150000D01*
X104300000Y-45150000D01*
X104300000Y-43750000D01*
G37*
D11*
X99500000Y-43750000D02*
X99500000Y-45150000D01*
X101300000Y-44850000D02*
X101900000Y-44450000D01*
X101300000Y-44450000D02*
X101000000Y-44450000D01*
X101300000Y-44100000D02*
X101300000Y-44850000D01*
X101900000Y-44450000D02*
X101300000Y-44100000D01*
X101900000Y-44450000D02*
X102200000Y-44450000D01*
X101900000Y-44100000D02*
X101900000Y-44850000D01*
X103700000Y-43750000D02*
X103700000Y-45150000D01*
X104300000Y-45150000D02*
X99500000Y-45150000D01*
X104300000Y-43750000D02*
X99500000Y-43750000D01*
X104300000Y-43750000D02*
X104300000Y-45150000D01*
%TO.C,D30*%
X140824305Y-70784728D02*
X140799872Y-72184515D01*
X140824305Y-70784728D02*
X136025036Y-70700957D01*
X140799872Y-72184515D02*
X136000604Y-72100743D01*
X140224396Y-70774257D02*
X140199964Y-72174043D01*
X138418563Y-71092789D02*
X138405473Y-71842674D01*
X138412454Y-71442735D02*
X138712409Y-71447972D01*
X138412454Y-71442735D02*
X137818654Y-71082318D01*
X137818654Y-71082318D02*
X137805565Y-71832204D01*
X137812546Y-71432265D02*
X137512591Y-71427028D01*
X137805565Y-71832204D02*
X138412454Y-71442735D01*
X136025036Y-70700957D02*
X136000604Y-72100743D01*
D12*
X140824305Y-70784728D02*
X140799872Y-72184515D01*
X140199964Y-72174043D01*
X140224396Y-70774257D01*
X140824305Y-70784728D01*
G36*
X140824305Y-70784728D02*
G01*
X140799872Y-72184515D01*
X140199964Y-72174043D01*
X140224396Y-70774257D01*
X140824305Y-70784728D01*
G37*
D11*
%TO.C,D36*%
X23360185Y-103073290D02*
X24729592Y-102782213D01*
X23360185Y-103073290D02*
X24358161Y-107768398D01*
X24729592Y-102782213D02*
X25727568Y-107477322D01*
X23484932Y-103660178D02*
X24854339Y-103369102D01*
X24201525Y-105348075D02*
X24935136Y-105192141D01*
X24543876Y-105275306D02*
X24481503Y-104981861D01*
X24543876Y-105275306D02*
X24326272Y-105934963D01*
X24326272Y-105934963D02*
X25059883Y-105779030D01*
X24668624Y-105862194D02*
X24730997Y-106155639D01*
X25059883Y-105779030D02*
X24543876Y-105275306D01*
X24358161Y-107768398D02*
X25727568Y-107477322D01*
D12*
X24854339Y-103369102D02*
X23484932Y-103660178D01*
X23360185Y-103073290D01*
X24729592Y-102782213D01*
X24854339Y-103369102D01*
G36*
X24854339Y-103369102D02*
G01*
X23484932Y-103660178D01*
X23360185Y-103073290D01*
X24729592Y-102782213D01*
X24854339Y-103369102D01*
G37*
D11*
%TO.C,D34*%
X104300000Y-77087500D02*
X104300000Y-78487500D01*
X104300000Y-77087500D02*
X99500000Y-77087500D01*
X104300000Y-78487500D02*
X99500000Y-78487500D01*
X103700000Y-77087500D02*
X103700000Y-78487500D01*
X101900000Y-77437500D02*
X101900000Y-78187500D01*
X101900000Y-77787500D02*
X102200000Y-77787500D01*
X101900000Y-77787500D02*
X101300000Y-77437500D01*
X101300000Y-77437500D02*
X101300000Y-78187500D01*
X101300000Y-77787500D02*
X101000000Y-77787500D01*
X101300000Y-78187500D02*
X101900000Y-77787500D01*
X99500000Y-77087500D02*
X99500000Y-78487500D01*
D12*
X104300000Y-77087500D02*
X103700000Y-77087500D01*
X103700000Y-78487500D01*
X104300000Y-78487500D01*
X104300000Y-77087500D01*
G36*
X104300000Y-77087500D02*
G01*
X103700000Y-77087500D01*
X103700000Y-78487500D01*
X104300000Y-78487500D01*
X104300000Y-77087500D01*
G37*
D11*
%TO.C,D13*%
X191821726Y-77881250D02*
X191821726Y-79281250D01*
X193621726Y-78231250D02*
X193621726Y-78981250D01*
X193621726Y-78581250D02*
X193321726Y-78581250D01*
X193621726Y-78981250D02*
X194221726Y-78581250D01*
X194221726Y-78231250D02*
X194221726Y-78981250D01*
X194221726Y-78581250D02*
X193621726Y-78231250D01*
X194221726Y-78581250D02*
X194521726Y-78581250D01*
X196021726Y-77881250D02*
X196021726Y-79281250D01*
X196621726Y-77881250D02*
X191821726Y-77881250D01*
X196621726Y-77881250D02*
X196621726Y-79281250D01*
X196621726Y-79281250D02*
X191821726Y-79281250D01*
D12*
X196621726Y-77881250D02*
X196021726Y-77881250D01*
X196021726Y-79281250D01*
X196621726Y-79281250D01*
X196621726Y-77881250D01*
G36*
X196621726Y-77881250D02*
G01*
X196021726Y-77881250D01*
X196021726Y-79281250D01*
X196621726Y-79281250D01*
X196621726Y-77881250D01*
G37*
D11*
%TO.C,D19*%
X269422685Y-108857961D02*
X270420661Y-104162852D01*
X270339864Y-105985890D02*
X270606376Y-106655944D01*
X270606376Y-106655944D02*
X270544003Y-106949389D01*
X270606376Y-106655944D02*
X271073475Y-106141825D01*
X270731124Y-106069056D02*
X270793497Y-105775611D01*
X270792092Y-109149036D02*
X269422685Y-108857961D01*
X270792092Y-109149036D02*
X271790068Y-104453928D01*
X270916839Y-108562148D02*
X269547432Y-108271072D01*
X270948728Y-106728713D02*
X270215116Y-106572779D01*
X271073475Y-106141825D02*
X270339864Y-105985890D01*
X271790068Y-104453928D02*
X270420661Y-104162852D01*
D12*
X270916839Y-108562148D02*
X270792092Y-109149036D01*
X269422685Y-108857961D01*
X269547432Y-108271072D01*
X270916839Y-108562148D01*
G36*
X270916839Y-108562148D02*
G01*
X270792092Y-109149036D01*
X269422685Y-108857961D01*
X269547432Y-108271072D01*
X270916839Y-108562148D01*
G37*
D11*
%TO.C,D4*%
X230319108Y-44398967D02*
X230221449Y-45795556D01*
X232037991Y-45621849D02*
X232664432Y-45264677D01*
X232065894Y-45222823D02*
X231766625Y-45201896D01*
X232090308Y-44873676D02*
X232037991Y-45621849D01*
X232664432Y-45264677D02*
X232090308Y-44873676D01*
X232664432Y-45264677D02*
X232963701Y-45285604D01*
X232688846Y-44915530D02*
X232636530Y-45663703D01*
X234508877Y-44691944D02*
X234411218Y-46088533D01*
X235009756Y-46130387D02*
X230221449Y-45795556D01*
X235107415Y-44733798D02*
X230319108Y-44398967D01*
X235107415Y-44733798D02*
X235009756Y-46130387D01*
D12*
X235107415Y-44733798D02*
X235009756Y-46130387D01*
X234411218Y-46088533D01*
X234508877Y-44691944D01*
X235107415Y-44733798D01*
G36*
X235107415Y-44733798D02*
G01*
X235009756Y-46130387D01*
X234411218Y-46088533D01*
X234508877Y-44691944D01*
X235107415Y-44733798D01*
G37*
D11*
%TO.C,D1*%
X172586609Y-58074257D02*
X172611041Y-59474043D01*
X174392442Y-58392789D02*
X174405532Y-59142674D01*
X174398551Y-58742735D02*
X174098596Y-58747972D01*
X174405532Y-59142674D02*
X174998459Y-58732265D01*
X174992351Y-58382318D02*
X175005440Y-59132204D01*
X174998459Y-58732265D02*
X174392442Y-58392789D01*
X174998459Y-58732265D02*
X175298414Y-58727028D01*
X176785969Y-58000957D02*
X176810401Y-59400743D01*
X177385877Y-57990485D02*
X172586609Y-58074257D01*
X177385877Y-57990485D02*
X177410310Y-59390272D01*
X177410310Y-59390272D02*
X172611041Y-59474043D01*
D12*
X177410310Y-59390272D02*
X176810401Y-59400743D01*
X176785969Y-58000957D01*
X177385877Y-57990485D01*
X177410310Y-59390272D01*
G36*
X177410310Y-59390272D02*
G01*
X176810401Y-59400743D01*
X176785969Y-58000957D01*
X177385877Y-57990485D01*
X177410310Y-59390272D01*
G37*
D11*
%TO.C,D12*%
X173214895Y-91411757D02*
X173239327Y-92811543D01*
X175020728Y-91730289D02*
X175033818Y-92480174D01*
X175026837Y-92080235D02*
X174726882Y-92085472D01*
X175033818Y-92480174D02*
X175626745Y-92069765D01*
X175620637Y-91719818D02*
X175633726Y-92469704D01*
X175626745Y-92069765D02*
X175020728Y-91730289D01*
X175626745Y-92069765D02*
X175926700Y-92064528D01*
X177414255Y-91338457D02*
X177438687Y-92738243D01*
X178014163Y-91327985D02*
X173214895Y-91411757D01*
X178014163Y-91327985D02*
X178038596Y-92727772D01*
X178038596Y-92727772D02*
X173239327Y-92811543D01*
D12*
X178038596Y-92727772D02*
X177438687Y-92738243D01*
X177414255Y-91338457D01*
X178014163Y-91327985D01*
X178038596Y-92727772D01*
G36*
X178038596Y-92727772D02*
G01*
X177438687Y-92738243D01*
X177414255Y-91338457D01*
X178014163Y-91327985D01*
X178038596Y-92727772D01*
G37*
D11*
%TO.C,D11*%
X246705739Y-67417717D02*
X246608080Y-68814306D01*
X248424622Y-68640599D02*
X249051063Y-68283427D01*
X248452525Y-68241573D02*
X248153256Y-68220646D01*
X248476939Y-67892426D02*
X248424622Y-68640599D01*
X249051063Y-68283427D02*
X248476939Y-67892426D01*
X249051063Y-68283427D02*
X249350332Y-68304354D01*
X249075477Y-67934280D02*
X249023161Y-68682453D01*
X250895508Y-67710694D02*
X250797849Y-69107283D01*
X251396387Y-69149137D02*
X246608080Y-68814306D01*
X251494046Y-67752548D02*
X246705739Y-67417717D01*
X251494046Y-67752548D02*
X251396387Y-69149137D01*
D12*
X251494046Y-67752548D02*
X251396387Y-69149137D01*
X250797849Y-69107283D01*
X250895508Y-67710694D01*
X251494046Y-67752548D01*
G36*
X251494046Y-67752548D02*
G01*
X251396387Y-69149137D01*
X250797849Y-69107283D01*
X250895508Y-67710694D01*
X251494046Y-67752548D01*
G37*
D11*
%TO.C,D18*%
X244194507Y-101548967D02*
X244096848Y-102945556D01*
X245913390Y-102771849D02*
X246539831Y-102414677D01*
X245941293Y-102372823D02*
X245642024Y-102351896D01*
X245965707Y-102023676D02*
X245913390Y-102771849D01*
X246539831Y-102414677D02*
X245965707Y-102023676D01*
X246539831Y-102414677D02*
X246839100Y-102435604D01*
X246564245Y-102065530D02*
X246511929Y-102813703D01*
X248384276Y-101841944D02*
X248286617Y-103238533D01*
X248885155Y-103280387D02*
X244096848Y-102945556D01*
X248982814Y-101883798D02*
X244194507Y-101548967D01*
X248982814Y-101883798D02*
X248885155Y-103280387D01*
D12*
X248982814Y-101883798D02*
X248885155Y-103280387D01*
X248286617Y-103238533D01*
X248384276Y-101841944D01*
X248982814Y-101883798D01*
G36*
X248982814Y-101883798D02*
G01*
X248885155Y-103280387D01*
X248286617Y-103238533D01*
X248384276Y-101841944D01*
X248982814Y-101883798D01*
G37*
D11*
%TO.C,D2*%
X191821726Y-43750000D02*
X191821726Y-45150000D01*
X193621726Y-44100000D02*
X193621726Y-44850000D01*
X193621726Y-44450000D02*
X193321726Y-44450000D01*
X193621726Y-44850000D02*
X194221726Y-44450000D01*
X194221726Y-44100000D02*
X194221726Y-44850000D01*
X194221726Y-44450000D02*
X193621726Y-44100000D01*
X194221726Y-44450000D02*
X194521726Y-44450000D01*
X196021726Y-43750000D02*
X196021726Y-45150000D01*
X196621726Y-43750000D02*
X191821726Y-43750000D01*
X196621726Y-43750000D02*
X196621726Y-45150000D01*
X196621726Y-45150000D02*
X191821726Y-45150000D01*
D12*
X196621726Y-43750000D02*
X196021726Y-43750000D01*
X196021726Y-45150000D01*
X196621726Y-45150000D01*
X196621726Y-43750000D01*
G36*
X196621726Y-43750000D02*
G01*
X196021726Y-43750000D01*
X196021726Y-45150000D01*
X196621726Y-45150000D01*
X196621726Y-43750000D01*
G37*
D11*
%TO.C,D8*%
X191821726Y-60418750D02*
X191821726Y-61818750D01*
X193621726Y-60768750D02*
X193621726Y-61518750D01*
X193621726Y-61118750D02*
X193321726Y-61118750D01*
X193621726Y-61518750D02*
X194221726Y-61118750D01*
X194221726Y-60768750D02*
X194221726Y-61518750D01*
X194221726Y-61118750D02*
X193621726Y-60768750D01*
X194221726Y-61118750D02*
X194521726Y-61118750D01*
X196021726Y-60418750D02*
X196021726Y-61818750D01*
X196621726Y-60418750D02*
X191821726Y-60418750D01*
X196621726Y-60418750D02*
X196621726Y-61818750D01*
X196621726Y-61818750D02*
X191821726Y-61818750D01*
D12*
X196621726Y-60418750D02*
X196021726Y-60418750D01*
X196021726Y-61818750D01*
X196621726Y-61818750D01*
X196621726Y-60418750D01*
G36*
X196621726Y-60418750D02*
G01*
X196021726Y-60418750D01*
X196021726Y-61818750D01*
X196621726Y-61818750D01*
X196621726Y-60418750D01*
G37*
D11*
%TO.C,D3*%
X209821726Y-35018750D02*
X209821726Y-36418750D01*
X211621726Y-35368750D02*
X211621726Y-36118750D01*
X211621726Y-35718750D02*
X211321726Y-35718750D01*
X211621726Y-36118750D02*
X212221726Y-35718750D01*
X212221726Y-35368750D02*
X212221726Y-36118750D01*
X212221726Y-35718750D02*
X211621726Y-35368750D01*
X212221726Y-35718750D02*
X212521726Y-35718750D01*
X214021726Y-35018750D02*
X214021726Y-36418750D01*
X214621726Y-35018750D02*
X209821726Y-35018750D01*
X214621726Y-35018750D02*
X214621726Y-36418750D01*
X214621726Y-36418750D02*
X209821726Y-36418750D01*
D12*
X214621726Y-35018750D02*
X214021726Y-35018750D01*
X214021726Y-36418750D01*
X214621726Y-36418750D01*
X214621726Y-35018750D01*
G36*
X214621726Y-35018750D02*
G01*
X214021726Y-35018750D01*
X214021726Y-36418750D01*
X214621726Y-36418750D01*
X214621726Y-35018750D01*
G37*
D11*
%TO.C,D10*%
X229063491Y-61861467D02*
X228965832Y-63258056D01*
X230782374Y-63084349D02*
X231408815Y-62727177D01*
X230810277Y-62685323D02*
X230511008Y-62664396D01*
X230834691Y-62336176D02*
X230782374Y-63084349D01*
X231408815Y-62727177D02*
X230834691Y-62336176D01*
X231408815Y-62727177D02*
X231708084Y-62748104D01*
X231433229Y-62378030D02*
X231380913Y-63126203D01*
X233253260Y-62154444D02*
X233155601Y-63551033D01*
X233754139Y-63592887D02*
X228965832Y-63258056D01*
X233851798Y-62196298D02*
X229063491Y-61861467D01*
X233851798Y-62196298D02*
X233754139Y-63592887D01*
D12*
X233851798Y-62196298D02*
X233754139Y-63592887D01*
X233155601Y-63551033D01*
X233253260Y-62154444D01*
X233851798Y-62196298D01*
G36*
X233851798Y-62196298D02*
G01*
X233754139Y-63592887D01*
X233155601Y-63551033D01*
X233253260Y-62154444D01*
X233851798Y-62196298D01*
G37*
D11*
%TO.C,D15*%
X227807874Y-78530217D02*
X227710215Y-79926806D01*
X229526757Y-79753099D02*
X230153198Y-79395927D01*
X229554660Y-79354073D02*
X229255391Y-79333146D01*
X229579074Y-79004926D02*
X229526757Y-79753099D01*
X230153198Y-79395927D02*
X229579074Y-79004926D01*
X230153198Y-79395927D02*
X230452467Y-79416854D01*
X230177612Y-79046780D02*
X230125296Y-79794953D01*
X231997643Y-78823194D02*
X231899984Y-80219783D01*
X232498522Y-80261637D02*
X227710215Y-79926806D01*
X232596181Y-78865048D02*
X227807874Y-78530217D01*
X232596181Y-78865048D02*
X232498522Y-80261637D01*
D12*
X232596181Y-78865048D02*
X232498522Y-80261637D01*
X231899984Y-80219783D01*
X231997643Y-78823194D01*
X232596181Y-78865048D01*
G36*
X232596181Y-78865048D02*
G01*
X232498522Y-80261637D01*
X231899984Y-80219783D01*
X231997643Y-78823194D01*
X232596181Y-78865048D01*
G37*
D11*
%TO.C,D17*%
X226238355Y-99961467D02*
X226140696Y-101358056D01*
X227957238Y-101184349D02*
X228583679Y-100827177D01*
X227985141Y-100785323D02*
X227685872Y-100764396D01*
X228009555Y-100436176D02*
X227957238Y-101184349D01*
X228583679Y-100827177D02*
X228009555Y-100436176D01*
X228583679Y-100827177D02*
X228882948Y-100848104D01*
X228608093Y-100478030D02*
X228555777Y-101226203D01*
X230428124Y-100254444D02*
X230330465Y-101651033D01*
X230929003Y-101692887D02*
X226140696Y-101358056D01*
X231026662Y-100296298D02*
X226238355Y-99961467D01*
X231026662Y-100296298D02*
X230929003Y-101692887D01*
D12*
X231026662Y-100296298D02*
X230929003Y-101692887D01*
X230330465Y-101651033D01*
X230428124Y-100254444D01*
X231026662Y-100296298D01*
G36*
X231026662Y-100296298D02*
G01*
X230929003Y-101692887D01*
X230330465Y-101651033D01*
X230428124Y-100254444D01*
X231026662Y-100296298D01*
G37*
D11*
%TO.C,D16*%
X245450124Y-84086467D02*
X245352465Y-85483056D01*
X247169007Y-85309349D02*
X247795448Y-84952177D01*
X247196910Y-84910323D02*
X246897641Y-84889396D01*
X247221324Y-84561176D02*
X247169007Y-85309349D01*
X247795448Y-84952177D02*
X247221324Y-84561176D01*
X247795448Y-84952177D02*
X248094717Y-84973104D01*
X247819862Y-84603030D02*
X247767546Y-85351203D01*
X249639893Y-84379444D02*
X249542234Y-85776033D01*
X250140772Y-85817887D02*
X245352465Y-85483056D01*
X250238431Y-84421298D02*
X245450124Y-84086467D01*
X250238431Y-84421298D02*
X250140772Y-85817887D01*
D12*
X250238431Y-84421298D02*
X250140772Y-85817887D01*
X249542234Y-85776033D01*
X249639893Y-84379444D01*
X250238431Y-84421298D01*
G36*
X250238431Y-84421298D02*
G01*
X250140772Y-85817887D01*
X249542234Y-85776033D01*
X249639893Y-84379444D01*
X250238431Y-84421298D01*
G37*
D11*
%TO.C,D14*%
X209821726Y-69150000D02*
X209821726Y-70550000D01*
X211621726Y-69500000D02*
X211621726Y-70250000D01*
X211621726Y-69850000D02*
X211321726Y-69850000D01*
X211621726Y-70250000D02*
X212221726Y-69850000D01*
X212221726Y-69500000D02*
X212221726Y-70250000D01*
X212221726Y-69850000D02*
X211621726Y-69500000D01*
X212221726Y-69850000D02*
X212521726Y-69850000D01*
X214021726Y-69150000D02*
X214021726Y-70550000D01*
X214621726Y-69150000D02*
X209821726Y-69150000D01*
X214621726Y-69150000D02*
X214621726Y-70550000D01*
X214621726Y-70550000D02*
X209821726Y-70550000D01*
D12*
X214621726Y-69150000D02*
X214021726Y-69150000D01*
X214021726Y-70550000D01*
X214621726Y-70550000D01*
X214621726Y-69150000D01*
G36*
X214621726Y-69150000D02*
G01*
X214021726Y-69150000D01*
X214021726Y-70550000D01*
X214621726Y-70550000D01*
X214621726Y-69150000D01*
G37*
D11*
%TO.C,D5*%
X247961356Y-49955217D02*
X247863697Y-51351806D01*
X249680239Y-51178099D02*
X250306680Y-50820927D01*
X249708142Y-50779073D02*
X249408873Y-50758146D01*
X249732556Y-50429926D02*
X249680239Y-51178099D01*
X250306680Y-50820927D02*
X249732556Y-50429926D01*
X250306680Y-50820927D02*
X250605949Y-50841854D01*
X250331094Y-50471780D02*
X250278778Y-51219953D01*
X252151125Y-50248194D02*
X252053466Y-51644783D01*
X252652004Y-51686637D02*
X247863697Y-51351806D01*
X252749663Y-50290048D02*
X247961356Y-49955217D01*
X252749663Y-50290048D02*
X252652004Y-51686637D01*
D12*
X252749663Y-50290048D02*
X252652004Y-51686637D01*
X252053466Y-51644783D01*
X252151125Y-50248194D01*
X252749663Y-50290048D01*
G36*
X252749663Y-50290048D02*
G01*
X252652004Y-51686637D01*
X252053466Y-51644783D01*
X252151125Y-50248194D01*
X252749663Y-50290048D01*
G37*
D11*
%TO.C,D9*%
X209821726Y-51687500D02*
X209821726Y-53087500D01*
X211621726Y-52037500D02*
X211621726Y-52787500D01*
X211621726Y-52387500D02*
X211321726Y-52387500D01*
X211621726Y-52787500D02*
X212221726Y-52387500D01*
X212221726Y-52037500D02*
X212221726Y-52787500D01*
X212221726Y-52387500D02*
X211621726Y-52037500D01*
X212221726Y-52387500D02*
X212521726Y-52387500D01*
X214021726Y-51687500D02*
X214021726Y-53087500D01*
X214621726Y-51687500D02*
X209821726Y-51687500D01*
X214621726Y-51687500D02*
X214621726Y-53087500D01*
X214621726Y-53087500D02*
X209821726Y-53087500D01*
D12*
X214621726Y-51687500D02*
X214021726Y-51687500D01*
X214021726Y-53087500D01*
X214621726Y-53087500D01*
X214621726Y-51687500D01*
G36*
X214621726Y-51687500D02*
G01*
X214021726Y-51687500D01*
X214021726Y-53087500D01*
X214621726Y-53087500D01*
X214621726Y-51687500D01*
G37*
D11*
%TO.C,D7*%
X172900752Y-74743007D02*
X172925184Y-76142793D01*
X174706585Y-75061539D02*
X174719675Y-75811424D01*
X174712694Y-75411485D02*
X174412739Y-75416722D01*
X174719675Y-75811424D02*
X175312602Y-75401015D01*
X175306494Y-75051068D02*
X175319583Y-75800954D01*
X175312602Y-75401015D02*
X174706585Y-75061539D01*
X175312602Y-75401015D02*
X175612557Y-75395778D01*
X177100112Y-74669707D02*
X177124544Y-76069493D01*
X177700020Y-74659235D02*
X172900752Y-74743007D01*
X177700020Y-74659235D02*
X177724453Y-76059022D01*
X177724453Y-76059022D02*
X172925184Y-76142793D01*
D12*
X177724453Y-76059022D02*
X177124544Y-76069493D01*
X177100112Y-74669707D01*
X177700020Y-74659235D01*
X177724453Y-76059022D01*
G36*
X177724453Y-76059022D02*
G01*
X177124544Y-76069493D01*
X177100112Y-74669707D01*
X177700020Y-74659235D01*
X177724453Y-76059022D01*
G37*
D11*
%TO.C,D6*%
X155228955Y-70774257D02*
X155253387Y-72174043D01*
X157034788Y-71092789D02*
X157047878Y-71842674D01*
X157040897Y-71442735D02*
X156740942Y-71447972D01*
X157047878Y-71842674D02*
X157640805Y-71432265D01*
X157634697Y-71082318D02*
X157647786Y-71832204D01*
X157640805Y-71432265D02*
X157034788Y-71092789D01*
X157640805Y-71432265D02*
X157940760Y-71427028D01*
X159428315Y-70700957D02*
X159452747Y-72100743D01*
X160028223Y-70690485D02*
X155228955Y-70774257D01*
X160028223Y-70690485D02*
X160052656Y-72090272D01*
X160052656Y-72090272D02*
X155253387Y-72174043D01*
D12*
X160052656Y-72090272D02*
X159452747Y-72100743D01*
X159428315Y-70700957D01*
X160028223Y-70690485D01*
X160052656Y-72090272D01*
G36*
X160052656Y-72090272D02*
G01*
X159452747Y-72100743D01*
X159428315Y-70700957D01*
X160028223Y-70690485D01*
X160052656Y-72090272D01*
G37*
%TD*%
D13*
%TO.C,J3*%
X251618750Y-38100000D03*
%TD*%
%TO.C,J1*%
X251618750Y-34600000D03*
%TD*%
%TO.C,J4*%
X43656250Y-38425000D03*
%TD*%
%TO.C,J2*%
X43656250Y-34925000D03*
%TD*%
M02*
