%TF.GenerationSoftware,KiCad,Pcbnew,9.0.2*%
%TF.CreationDate,2025-07-04T08:31:17-06:00*%
%TF.ProjectId,Orcus,4f726375-732e-46b6-9963-61645f706362,rev?*%
%TF.SameCoordinates,Original*%
%TF.FileFunction,Soldermask,Bot*%
%TF.FilePolarity,Negative*%
%FSLAX46Y46*%
G04 Gerber Fmt 4.6, Leading zero omitted, Abs format (unit mm)*
G04 Created by KiCad (PCBNEW 9.0.2) date 2025-07-04 08:31:17*
%MOMM*%
%LPD*%
G01*
G04 APERTURE LIST*
G04 Aperture macros list*
%AMRotRect*
0 Rectangle, with rotation*
0 The origin of the aperture is its center*
0 $1 length*
0 $2 width*
0 $3 Rotation angle, in degrees counterclockwise*
0 Add horizontal line*
21,1,$1,$2,0,0,$3*%
G04 Aperture macros list end*
%ADD10C,3.400000*%
%ADD11C,2.250000*%
%ADD12C,1.700000*%
%ADD13C,1.800000*%
%ADD14R,3.500000X1.200000*%
%ADD15O,2.750000X1.800000*%
%ADD16C,1.397000*%
%ADD17RotRect,1.200000X1.200000X184.000000*%
%ADD18R,1.200000X1.200000*%
%ADD19RotRect,1.200000X1.200000X78.000000*%
%ADD20RotRect,1.200000X1.200000X176.000000*%
%ADD21RotRect,1.200000X1.200000X181.000000*%
%ADD22RotRect,1.200000X1.200000X179.000000*%
%ADD23RotRect,1.200000X1.200000X91.000000*%
%ADD24RotRect,1.200000X1.200000X269.000000*%
%ADD25RotRect,1.200000X1.200000X282.000000*%
G04 APERTURE END LIST*
D10*
%TO.C,SW30*%
X137980875Y-76221845D03*
D11*
X143879976Y-76324814D03*
X141693034Y-81287403D03*
D12*
X137884887Y-81721007D03*
X138076863Y-70722683D03*
%TD*%
D10*
%TO.C,SW6*%
X157340851Y-76221845D03*
D11*
X151441750Y-76324814D03*
X153454168Y-71288926D03*
D12*
X157244863Y-70722683D03*
X157436839Y-81721007D03*
%TD*%
D10*
%TO.C,SW25*%
X46569932Y-73127394D03*
D11*
X46981495Y-79013022D03*
X41847186Y-77266920D03*
D12*
X41083330Y-73511055D03*
X52056534Y-72743733D03*
%TD*%
D10*
%TO.C,SW24*%
X120623220Y-63184147D03*
D11*
X120520251Y-69083248D03*
X115557662Y-66896306D03*
D12*
X115124058Y-63088159D03*
X126122382Y-63280135D03*
%TD*%
D10*
%TO.C,SW38*%
X67037316Y-105858711D03*
D11*
X67448879Y-111744339D03*
X62314570Y-109998237D03*
D12*
X61550714Y-106242372D03*
X72523918Y-105475050D03*
%TD*%
D10*
%TO.C,SW16*%
X247496179Y-90085982D03*
D11*
X247084616Y-95971610D03*
X242243284Y-93527943D03*
D12*
X242009577Y-89702321D03*
X252982781Y-90469643D03*
%TD*%
D10*
%TO.C,SW32*%
X65467797Y-84660476D03*
D11*
X65879360Y-90546104D03*
X60745051Y-88800002D03*
D12*
X59981195Y-85044137D03*
X70954399Y-84276815D03*
%TD*%
D10*
%TO.C,SW3*%
X211921726Y-40713642D03*
D11*
X211921726Y-46613642D03*
X206921726Y-44513642D03*
D12*
X206421726Y-40713642D03*
X217421726Y-40713642D03*
%TD*%
D10*
%TO.C,SW15*%
X229853929Y-84660476D03*
D11*
X229442366Y-90546104D03*
X224601034Y-88102437D03*
D12*
X224367327Y-84276815D03*
X235340531Y-85044137D03*
%TD*%
D10*
%TO.C,SW13*%
X193921726Y-83213642D03*
D11*
X193921726Y-89113642D03*
X188921726Y-87013642D03*
D12*
X188421726Y-83213642D03*
X199421726Y-83213642D03*
%TD*%
D10*
%TO.C,SW37*%
X49081164Y-107044572D03*
D11*
X49492727Y-112930200D03*
X44358418Y-111184098D03*
D12*
X43594562Y-107428233D03*
X54567766Y-106660911D03*
%TD*%
D10*
%TO.C,SW18*%
X246240562Y-107044572D03*
D11*
X245828999Y-112930200D03*
X240987667Y-110486533D03*
D12*
X240753960Y-106660911D03*
X251727164Y-107428233D03*
%TD*%
D10*
%TO.C,SW2*%
X193921726Y-49213642D03*
D11*
X193921726Y-55113642D03*
X188921726Y-53013642D03*
D12*
X188421726Y-49213642D03*
X199421726Y-49213642D03*
%TD*%
D10*
%TO.C,SW21*%
X62956563Y-50743298D03*
D11*
X63368126Y-56628926D03*
X58233817Y-54882824D03*
D12*
X57469961Y-51126959D03*
X68443165Y-50359637D03*
%TD*%
D10*
%TO.C,SW8*%
X193921726Y-66213642D03*
D11*
X193921726Y-72113642D03*
X188921726Y-70013642D03*
D12*
X188421726Y-66213642D03*
X199421726Y-66213642D03*
%TD*%
D10*
%TO.C,SW19*%
X265707378Y-104743616D03*
D11*
X259936307Y-103516937D03*
X263029976Y-99062814D03*
D12*
X266850892Y-99363804D03*
X264563864Y-110123428D03*
%TD*%
D10*
%TO.C,SW20*%
X45314315Y-56168804D03*
D11*
X45725878Y-62054432D03*
X40591569Y-60308330D03*
D12*
X39827713Y-56552465D03*
X50800917Y-55785143D03*
%TD*%
D10*
%TO.C,SW23*%
X101400000Y-49213642D03*
D11*
X101400000Y-55113642D03*
X96400000Y-53013642D03*
D12*
X95900000Y-49213642D03*
X106900000Y-49213642D03*
%TD*%
D10*
%TO.C,SW34*%
X101400000Y-83213642D03*
D11*
X101400000Y-89113642D03*
X96400000Y-87013642D03*
D12*
X95900000Y-83213642D03*
X106900000Y-83213642D03*
%TD*%
D10*
%TO.C,SW12*%
X175326791Y-97178968D03*
D11*
X175429760Y-103078069D03*
X170393872Y-101065651D03*
D12*
X169827629Y-97274956D03*
X180825953Y-97082980D03*
%TD*%
D10*
%TO.C,SW35*%
X119994934Y-97178968D03*
D11*
X119891965Y-103078069D03*
X114929376Y-100891127D03*
D12*
X114495772Y-97082980D03*
X125494096Y-97274956D03*
%TD*%
D10*
%TO.C,SW31*%
X47825547Y-90085982D03*
D11*
X48237110Y-95971610D03*
X43102801Y-94225508D03*
D12*
X42338945Y-90469643D03*
X53312149Y-89702321D03*
%TD*%
D10*
%TO.C,SW14*%
X211921726Y-74713642D03*
D11*
X211921726Y-80613642D03*
X206921726Y-78513642D03*
D12*
X206421726Y-74713642D03*
X217421726Y-74713642D03*
%TD*%
D10*
%TO.C,SW28*%
X101400000Y-66213642D03*
D11*
X101400000Y-72113642D03*
X96400000Y-70013642D03*
D12*
X95900000Y-66213642D03*
X106900000Y-66213642D03*
%TD*%
D10*
%TO.C,SW1*%
X174698505Y-63184147D03*
D11*
X174801474Y-69083248D03*
X169765586Y-67070830D03*
D12*
X169199343Y-63280135D03*
X180197667Y-63088159D03*
%TD*%
D10*
%TO.C,SW27*%
X83400000Y-57713642D03*
D11*
X83400000Y-63613642D03*
X78400000Y-61513642D03*
D12*
X77900000Y-57713642D03*
X88900000Y-57713642D03*
%TD*%
D10*
%TO.C,SW7*%
X175012648Y-80181557D03*
D11*
X175115617Y-86080658D03*
X170079729Y-84068240D03*
D12*
X169513486Y-80277545D03*
X180511810Y-80085569D03*
%TD*%
D10*
%TO.C,SW33*%
X83400000Y-74713642D03*
D11*
X83400000Y-80613642D03*
X78400000Y-78513642D03*
D12*
X77900000Y-74713642D03*
X88900000Y-74713642D03*
%TD*%
D10*
%TO.C,SW10*%
X231109546Y-67701887D03*
D11*
X230697983Y-73587515D03*
X225856651Y-71143848D03*
D12*
X225622944Y-67318226D03*
X236596148Y-68085548D03*
%TD*%
D10*
%TO.C,SW11*%
X248751794Y-73127394D03*
D11*
X248340231Y-79013022D03*
X243498899Y-76569355D03*
D12*
X243265192Y-72743733D03*
X254238396Y-73511055D03*
%TD*%
D10*
%TO.C,SW26*%
X64212180Y-67701887D03*
D11*
X64623743Y-73587515D03*
X59489434Y-71841413D03*
D12*
X58725578Y-68085548D03*
X69698782Y-67318226D03*
%TD*%
D10*
%TO.C,SW29*%
X120309077Y-80181557D03*
D11*
X120206108Y-86080658D03*
X115243519Y-83893716D03*
D12*
X114809915Y-80085569D03*
X125808239Y-80277545D03*
%TD*%
D10*
%TO.C,SW17*%
X228284410Y-105858711D03*
D11*
X227872847Y-111744339D03*
X223031515Y-109300672D03*
D12*
X222797808Y-105475050D03*
X233771012Y-106242372D03*
%TD*%
D10*
%TO.C,SW5*%
X250007411Y-56168804D03*
D11*
X249595848Y-62054432D03*
X244754516Y-59610765D03*
D12*
X244520809Y-55785143D03*
X255494013Y-56552465D03*
%TD*%
D10*
%TO.C,SW9*%
X211921726Y-57713642D03*
D11*
X211921726Y-63613642D03*
X206921726Y-61513642D03*
D12*
X206421726Y-57713642D03*
X217421726Y-57713642D03*
%TD*%
D10*
%TO.C,SW22*%
X83400000Y-40713642D03*
D11*
X83400000Y-46613642D03*
X78400000Y-44513642D03*
D12*
X77900000Y-40713642D03*
X88900000Y-40713642D03*
%TD*%
D10*
%TO.C,SW4*%
X232365163Y-50743298D03*
D11*
X231953600Y-56628926D03*
X227112268Y-54185259D03*
D12*
X226878561Y-50359637D03*
X237851765Y-51126959D03*
%TD*%
D10*
%TO.C,SW36*%
X29614348Y-104743616D03*
D11*
X35385419Y-103516937D03*
X34370867Y-108844290D03*
D12*
X30757862Y-110123428D03*
X28470834Y-99363804D03*
%TD*%
D13*
%TO.C,-*%
X252386588Y-34638642D03*
%TD*%
D14*
%TO.C,J5*%
X245491588Y-36333642D03*
X245491588Y-38533642D03*
X245491588Y-40733642D03*
%TD*%
D13*
%TO.C,+*%
X42935138Y-37888642D03*
%TD*%
D14*
%TO.C,J6*%
X49830138Y-40733642D03*
X49830138Y-38533642D03*
X49830138Y-36333642D03*
%TD*%
D15*
%TO.C,U3*%
X150215863Y-47318642D03*
X150215863Y-49858642D03*
X150215863Y-52398642D03*
X150215863Y-54938642D03*
X150215863Y-57478642D03*
X150215863Y-60018642D03*
X150215863Y-62558642D03*
X166405863Y-62558642D03*
X166405863Y-60018642D03*
X166405863Y-57478642D03*
X166405863Y-54938642D03*
X166405863Y-52398642D03*
X166405863Y-49858642D03*
X166405863Y-47318642D03*
D16*
X153865863Y-54621642D03*
X153865863Y-52716642D03*
X157040863Y-46366642D03*
X159580863Y-46366642D03*
X157040863Y-48906642D03*
X159580863Y-48906642D03*
%TD*%
D15*
%TO.C,U1*%
X128915863Y-47318642D03*
X128915863Y-49858642D03*
X128915863Y-52398642D03*
X128915863Y-54938642D03*
X128915863Y-57478642D03*
X128915863Y-60018642D03*
X128915863Y-62558642D03*
X145105863Y-62558642D03*
X145105863Y-60018642D03*
X145105863Y-57478642D03*
X145105863Y-54938642D03*
X145105863Y-52398642D03*
X145105863Y-49858642D03*
X145105863Y-47318642D03*
D16*
X132565863Y-54621642D03*
X132565863Y-52716642D03*
X135740863Y-46366642D03*
X138280863Y-46366642D03*
X135740863Y-48906642D03*
X138280863Y-48906642D03*
%TD*%
D13*
%TO.C,-*%
X42935138Y-34638642D03*
%TD*%
%TO.C,+*%
X252386588Y-37888642D03*
%TD*%
D17*
%TO.C,D25*%
X47434090Y-68164841D03*
X44640910Y-68360159D03*
%TD*%
D18*
%TO.C,D13*%
X195321726Y-78581250D03*
X192521726Y-78581250D03*
%TD*%
D17*
%TO.C,D26*%
X65690340Y-62608591D03*
X62897160Y-62803909D03*
%TD*%
D19*
%TO.C,D19*%
X270377674Y-107731907D03*
X270959826Y-104993093D03*
%TD*%
D20*
%TO.C,D4*%
X233761753Y-45341409D03*
X230968573Y-45146091D03*
%TD*%
D18*
%TO.C,D27*%
X84743750Y-52387500D03*
X81943750Y-52387500D03*
%TD*%
D21*
%TO.C,D1*%
X176098292Y-58713067D03*
X173298718Y-58761933D03*
%TD*%
D18*
%TO.C,D33*%
X84931250Y-69850000D03*
X82131250Y-69850000D03*
%TD*%
D21*
%TO.C,D12*%
X176726578Y-92050567D03*
X173927004Y-92099433D03*
%TD*%
D22*
%TO.C,D35*%
X121256037Y-92099433D03*
X118456463Y-92050567D03*
%TD*%
%TO.C,D29*%
X122049787Y-75406249D03*
X119250213Y-75357383D03*
%TD*%
D20*
%TO.C,D11*%
X250148384Y-68360159D03*
X247355204Y-68164841D03*
%TD*%
%TO.C,D18*%
X247637152Y-102491409D03*
X244843972Y-102296091D03*
%TD*%
D18*
%TO.C,D2*%
X195321726Y-44450000D03*
X192521726Y-44450000D03*
%TD*%
%TO.C,D8*%
X195321726Y-61118750D03*
X192521726Y-61118750D03*
%TD*%
D17*
%TO.C,D37*%
X49815340Y-101502341D03*
X47022160Y-101697659D03*
%TD*%
D18*
%TO.C,D3*%
X213321726Y-35718750D03*
X210521726Y-35718750D03*
%TD*%
D17*
%TO.C,D21*%
X64102840Y-45243750D03*
X61309660Y-45439068D03*
%TD*%
%TO.C,D20*%
X46396590Y-50902341D03*
X43603410Y-51097659D03*
%TD*%
%TO.C,D38*%
X68071590Y-100708591D03*
X65278410Y-100903909D03*
%TD*%
%TO.C,D32*%
X66296590Y-79277341D03*
X63503410Y-79472659D03*
%TD*%
D20*
%TO.C,D10*%
X232506136Y-62803909D03*
X229712956Y-62608591D03*
%TD*%
%TO.C,D15*%
X231250519Y-79472659D03*
X228457339Y-79277341D03*
%TD*%
D18*
%TO.C,D22*%
X84931250Y-35718750D03*
X82131250Y-35718750D03*
%TD*%
D17*
%TO.C,D31*%
X49021590Y-84833591D03*
X46228410Y-85028909D03*
%TD*%
D20*
%TO.C,D17*%
X229681000Y-100903909D03*
X226887820Y-100708591D03*
%TD*%
%TO.C,D16*%
X248892769Y-85028909D03*
X246099589Y-84833591D03*
%TD*%
D18*
%TO.C,D14*%
X213321726Y-69850000D03*
X210521726Y-69850000D03*
%TD*%
D22*
%TO.C,D24*%
X122049787Y-57968183D03*
X119250213Y-57919317D03*
%TD*%
D18*
%TO.C,D28*%
X103000000Y-61118750D03*
X100200000Y-61118750D03*
%TD*%
D20*
%TO.C,D5*%
X251404001Y-50897659D03*
X248610821Y-50702341D03*
%TD*%
D18*
%TO.C,D9*%
X213321726Y-52387500D03*
X210521726Y-52387500D03*
%TD*%
%TO.C,D23*%
X103000000Y-44450000D03*
X100200000Y-44450000D03*
%TD*%
D21*
%TO.C,D7*%
X176412435Y-75381817D03*
X173612861Y-75430683D03*
%TD*%
D23*
%TO.C,D6*%
X161949433Y-77599787D03*
X161900567Y-74800213D03*
%TD*%
D24*
%TO.C,D30*%
X133350000Y-74987926D03*
X133301134Y-77787500D03*
%TD*%
D25*
%TO.C,D36*%
X24315174Y-104199343D03*
X24897326Y-106938157D03*
%TD*%
D18*
%TO.C,D34*%
X103000000Y-77787500D03*
X100200000Y-77787500D03*
%TD*%
M02*
