%TF.GenerationSoftware,KiCad,Pcbnew,9.0.2*%
%TF.CreationDate,2025-06-24T00:04:00-06:00*%
%TF.ProjectId,Orcus,4f726375-732e-46b6-9963-61645f706362,rev?*%
%TF.SameCoordinates,Original*%
%TF.FileFunction,Copper,L2,Bot*%
%TF.FilePolarity,Positive*%
%FSLAX46Y46*%
G04 Gerber Fmt 4.6, Leading zero omitted, Abs format (unit mm)*
G04 Created by KiCad (PCBNEW 9.0.2) date 2025-06-24 00:04:00*
%MOMM*%
%LPD*%
G01*
G04 APERTURE LIST*
G04 Aperture macros list*
%AMRotRect*
0 Rectangle, with rotation*
0 The origin of the aperture is its center*
0 $1 length*
0 $2 width*
0 $3 Rotation angle, in degrees counterclockwise*
0 Add horizontal line*
21,1,$1,$2,0,0,$3*%
G04 Aperture macros list end*
%TA.AperFunction,ComponentPad*%
%ADD10R,3.500000X1.200000*%
%TD*%
%TA.AperFunction,ComponentPad*%
%ADD11C,2.500000*%
%TD*%
%TA.AperFunction,ComponentPad*%
%ADD12O,2.750000X1.800000*%
%TD*%
%TA.AperFunction,ComponentPad*%
%ADD13C,1.397000*%
%TD*%
%TA.AperFunction,ComponentPad*%
%ADD14C,2.250000*%
%TD*%
%TA.AperFunction,ComponentPad*%
%ADD15RotRect,1.200000X1.200000X184.000000*%
%TD*%
%TA.AperFunction,ComponentPad*%
%ADD16R,1.200000X1.200000*%
%TD*%
%TA.AperFunction,ComponentPad*%
%ADD17RotRect,1.200000X1.200000X179.000000*%
%TD*%
%TA.AperFunction,ComponentPad*%
%ADD18RotRect,1.200000X1.200000X282.000000*%
%TD*%
%TA.AperFunction,ComponentPad*%
%ADD19RotRect,1.200000X1.200000X78.000000*%
%TD*%
%TA.AperFunction,ComponentPad*%
%ADD20RotRect,1.200000X1.200000X176.000000*%
%TD*%
%TA.AperFunction,ComponentPad*%
%ADD21RotRect,1.200000X1.200000X181.000000*%
%TD*%
%TA.AperFunction,ViaPad*%
%ADD22C,0.600000*%
%TD*%
%TA.AperFunction,Conductor*%
%ADD23C,0.200000*%
%TD*%
G04 APERTURE END LIST*
D10*
%TO.P,J6,1,Pin_1*%
%TO.N,5v-1*%
X49830138Y-40733642D03*
%TO.P,J6,2,Pin_2*%
%TO.N,Data-1*%
X49830138Y-38533642D03*
%TO.P,J6,3,Pin_3*%
%TO.N,Gnd-1*%
X49830138Y-36333642D03*
%TD*%
%TO.P,J5,3,Pin_3*%
%TO.N,Gnd*%
X245491588Y-40733642D03*
%TO.P,J5,2,Pin_2*%
%TO.N,Data*%
X245491588Y-38533642D03*
%TO.P,J5,1,Pin_1*%
%TO.N,5v*%
X245491588Y-36333642D03*
%TD*%
D11*
%TO.P,J3,1,Pin_1*%
%TO.N,Net-(J3-Pin_1)*%
X251618750Y-38100000D03*
%TD*%
%TO.P,J1,1,Pin_1*%
%TO.N,Net-(J1-Pin_1)*%
X251618750Y-34600000D03*
%TD*%
%TO.P,J4,1,Pin_1*%
%TO.N,Net-(J4-Pin_1)*%
X43656250Y-38425000D03*
%TD*%
%TO.P,J2,1,Pin_1*%
%TO.N,Net-(J2-Pin_1)*%
X43656250Y-34925000D03*
%TD*%
D12*
%TO.P,U3,1,PA02_A0_D0*%
%TO.N,unconnected-(U3-PA02_A0_D0-Pad1)*%
X150215863Y-47318642D03*
%TO.P,U3,2,PA4_A1_D1*%
%TO.N,Data*%
X150215863Y-49858642D03*
%TO.P,U3,3,PA10_A2_D2*%
%TO.N,row0*%
X150215863Y-52398642D03*
%TO.P,U3,4,PA11_A3_D3*%
%TO.N,row1*%
X150215863Y-54938642D03*
%TO.P,U3,5,PA8_A4_D4_SDA*%
%TO.N,row2*%
X150215863Y-57478642D03*
%TO.P,U3,6,PA9_A5_D5_SCL*%
%TO.N,row3*%
X150215863Y-60018642D03*
%TO.P,U3,7,PB08_A6_D6_TX*%
%TO.N,col0*%
X150215863Y-62558642D03*
%TO.P,U3,8,PB09_A7_D7_RX*%
%TO.N,col1*%
X166405863Y-62558642D03*
%TO.P,U3,9,PA7_A8_D8_SCK*%
%TO.N,col2*%
X166405863Y-60018642D03*
%TO.P,U3,10,PA5_A9_D9_MISO*%
%TO.N,col3*%
X166405863Y-57478642D03*
%TO.P,U3,11,PA6_A10_D10_MOSI*%
%TO.N,col4*%
X166405863Y-54938642D03*
%TO.P,U3,12,3V3*%
%TO.N,unconnected-(U3-3V3-Pad12)*%
X166405863Y-52398642D03*
%TO.P,U3,13,GND*%
%TO.N,Gnd*%
X166405863Y-49858642D03*
%TO.P,U3,14,5V*%
%TO.N,5v*%
X166405863Y-47318642D03*
D13*
%TO.P,U3,15,BAT*%
%TO.N,Net-(J3-Pin_1)*%
X153865863Y-54621642D03*
%TO.P,U3,16,GND*%
%TO.N,Net-(J1-Pin_1)*%
X153865863Y-52716642D03*
%TO.P,U3,19,PA31_SWDIO*%
%TO.N,unconnected-(U3-PA31_SWDIO-Pad19)*%
X157040863Y-46366642D03*
%TO.P,U3,20,PA30_SWCLK*%
%TO.N,unconnected-(U3-PA30_SWCLK-Pad20)*%
X159580863Y-46366642D03*
%TO.P,U3,21,RESET*%
%TO.N,unconnected-(U3-RESET-Pad21)*%
X157040863Y-48906642D03*
%TO.P,U3,22,GND*%
%TO.N,unconnected-(U3-GND-Pad22)*%
X159580863Y-48906642D03*
%TD*%
D14*
%TO.P,SW1,2,2*%
%TO.N,Net-(D1-A)*%
X169765586Y-67070830D03*
%TO.P,SW1,1,1*%
%TO.N,col0*%
X174801474Y-69083248D03*
%TD*%
%TO.P,SW2,2,2*%
%TO.N,Net-(D2-A)*%
X188921726Y-53013642D03*
%TO.P,SW2,1,1*%
%TO.N,col1*%
X193921726Y-55113642D03*
%TD*%
%TO.P,SW3,2,2*%
%TO.N,Net-(D3-A)*%
X206921726Y-44513642D03*
%TO.P,SW3,1,1*%
%TO.N,col2*%
X211921726Y-46613642D03*
%TD*%
%TO.P,SW4,2,2*%
%TO.N,Net-(D4-A)*%
X227112268Y-54185259D03*
%TO.P,SW4,1,1*%
%TO.N,col3*%
X231953600Y-56628926D03*
%TD*%
%TO.P,SW5,2,2*%
%TO.N,Net-(D5-A)*%
X244754516Y-59610765D03*
%TO.P,SW5,1,1*%
%TO.N,col4*%
X249595848Y-62054432D03*
%TD*%
%TO.P,SW6,2,2*%
%TO.N,Net-(D6-A)*%
X152407932Y-80108528D03*
%TO.P,SW6,1,1*%
%TO.N,col0*%
X157443820Y-82120946D03*
%TD*%
%TO.P,SW7,2,2*%
%TO.N,Net-(D7-A)*%
X170079729Y-84068240D03*
%TO.P,SW7,1,1*%
%TO.N,col0*%
X175115617Y-86080658D03*
%TD*%
%TO.P,SW8,2,2*%
%TO.N,Net-(D8-A)*%
X188921726Y-70013642D03*
%TO.P,SW8,1,1*%
%TO.N,col1*%
X193921726Y-72113642D03*
%TD*%
%TO.P,SW9,2,2*%
%TO.N,Net-(D9-A)*%
X206921726Y-61513642D03*
%TO.P,SW9,1,1*%
%TO.N,col2*%
X211921726Y-63613642D03*
%TD*%
%TO.P,SW10,2,2*%
%TO.N,Net-(D10-A)*%
X225856651Y-71143848D03*
%TO.P,SW10,1,1*%
%TO.N,col3*%
X230697983Y-73587515D03*
%TD*%
%TO.P,SW11,2,2*%
%TO.N,Net-(D11-A)*%
X243498899Y-76569355D03*
%TO.P,SW11,1,1*%
%TO.N,col4*%
X248340231Y-79013022D03*
%TD*%
%TO.P,SW12,2,2*%
%TO.N,Net-(D12-A)*%
X170393872Y-101065651D03*
%TO.P,SW12,1,1*%
%TO.N,col0*%
X175429760Y-103078069D03*
%TD*%
%TO.P,SW13,2,2*%
%TO.N,Net-(D13-A)*%
X188921726Y-87013642D03*
%TO.P,SW13,1,1*%
%TO.N,col1*%
X193921726Y-89113642D03*
%TD*%
%TO.P,SW14,2,2*%
%TO.N,Net-(D14-A)*%
X206921726Y-78513642D03*
%TO.P,SW14,1,1*%
%TO.N,col2*%
X211921726Y-80613642D03*
%TD*%
%TO.P,SW15,2,2*%
%TO.N,Net-(D15-A)*%
X224601034Y-88102437D03*
%TO.P,SW15,1,1*%
%TO.N,col3*%
X229442366Y-90546104D03*
%TD*%
%TO.P,SW16,2,2*%
%TO.N,Net-(D16-A)*%
X242243284Y-93527943D03*
%TO.P,SW16,1,1*%
%TO.N,col4*%
X247084616Y-95971610D03*
%TD*%
%TO.P,SW17,2,2*%
%TO.N,Net-(D17-A)*%
X223031515Y-109300672D03*
%TO.P,SW17,1,1*%
%TO.N,col2*%
X227872847Y-111744339D03*
%TD*%
%TO.P,SW18,2,2*%
%TO.N,Net-(D18-A)*%
X240987667Y-110486533D03*
%TO.P,SW18,1,1*%
%TO.N,col3*%
X245828999Y-112930200D03*
%TD*%
%TO.P,SW19,2,2*%
%TO.N,Net-(D19-A)*%
X263029976Y-99062813D03*
%TO.P,SW19,1,1*%
%TO.N,col4*%
X259936307Y-103516937D03*
%TD*%
%TO.P,SW20,2,2*%
%TO.N,Net-(D20-A)*%
X40591569Y-60308330D03*
%TO.P,SW20,1,1*%
%TO.N,col0-1*%
X45725878Y-62054432D03*
%TD*%
%TO.P,SW21,2,2*%
%TO.N,Net-(D21-A)*%
X58233817Y-54882824D03*
%TO.P,SW21,1,1*%
%TO.N,col1-1*%
X63368126Y-56628926D03*
%TD*%
%TO.P,SW22,2,2*%
%TO.N,Net-(D22-A)*%
X78400000Y-44513642D03*
%TO.P,SW22,1,1*%
%TO.N,col2-1*%
X83400000Y-46613642D03*
%TD*%
%TO.P,SW23,2,2*%
%TO.N,Net-(D23-A)*%
X96400000Y-53013642D03*
%TO.P,SW23,1,1*%
%TO.N,col3-1*%
X101400000Y-55113642D03*
%TD*%
%TO.P,SW24,2,2*%
%TO.N,Net-(D24-A)*%
X115557662Y-66896306D03*
%TO.P,SW24,1,1*%
%TO.N,col4-1*%
X120520251Y-69083248D03*
%TD*%
%TO.P,SW25,2,2*%
%TO.N,Net-(D25-A)*%
X41847186Y-77266920D03*
%TO.P,SW25,1,1*%
%TO.N,col0-1*%
X46981495Y-79013022D03*
%TD*%
%TO.P,SW26,2,2*%
%TO.N,Net-(D26-A)*%
X59489434Y-71841413D03*
%TO.P,SW26,1,1*%
%TO.N,col1-1*%
X64623743Y-73587515D03*
%TD*%
%TO.P,SW27,2,2*%
%TO.N,Net-(D27-A)*%
X78400000Y-61513642D03*
%TO.P,SW27,1,1*%
%TO.N,col2-1*%
X83400000Y-63613642D03*
%TD*%
%TO.P,SW28,2,2*%
%TO.N,Net-(D28-A)*%
X96400000Y-70013642D03*
%TO.P,SW28,1,1*%
%TO.N,col3-1*%
X101400000Y-72113642D03*
%TD*%
%TO.P,SW29,2,2*%
%TO.N,Net-(D29-A)*%
X115243519Y-83893716D03*
%TO.P,SW29,1,1*%
%TO.N,col4-1*%
X120206108Y-86080658D03*
%TD*%
%TO.P,SW30,2,2*%
%TO.N,Net-(D30-A)*%
X132915317Y-79934004D03*
%TO.P,SW30,1,1*%
%TO.N,col4-1*%
X137877906Y-82120946D03*
%TD*%
%TO.P,SW31,2,2*%
%TO.N,Net-(D31-A)*%
X43102801Y-94225508D03*
%TO.P,SW31,1,1*%
%TO.N,col0-1*%
X48237110Y-95971610D03*
%TD*%
%TO.P,SW32,2,2*%
%TO.N,Net-(D32-A)*%
X60745051Y-88800002D03*
%TO.P,SW32,1,1*%
%TO.N,col1-1*%
X65879360Y-90546104D03*
%TD*%
%TO.P,SW33,2,2*%
%TO.N,Net-(D33-A)*%
X78400000Y-78513642D03*
%TO.P,SW33,1,1*%
%TO.N,col2-1*%
X83400000Y-80613642D03*
%TD*%
%TO.P,SW34,2,2*%
%TO.N,Net-(D34-A)*%
X96400000Y-87013642D03*
%TO.P,SW34,1,1*%
%TO.N,col3-1*%
X101400000Y-89113642D03*
%TD*%
%TO.P,SW35,2,2*%
%TO.N,Net-(D35-A)*%
X114929376Y-100891127D03*
%TO.P,SW35,1,1*%
%TO.N,col4-1*%
X119891965Y-103078069D03*
%TD*%
%TO.P,SW36,2,2*%
%TO.N,Net-(D36-A)*%
X34370867Y-108844290D03*
%TO.P,SW36,1,1*%
%TO.N,col0-1*%
X35385419Y-103516937D03*
%TD*%
%TO.P,SW37,2,2*%
%TO.N,Net-(D37-A)*%
X44358418Y-111184098D03*
%TO.P,SW37,1,1*%
%TO.N,col1-1*%
X49492727Y-112930200D03*
%TD*%
%TO.P,SW38,2,2*%
%TO.N,Net-(D38-A)*%
X62314570Y-109998237D03*
%TO.P,SW38,1,1*%
%TO.N,col2-1*%
X67448879Y-111744339D03*
%TD*%
D15*
%TO.P,D25,1,K*%
%TO.N,row1-1*%
X47434090Y-68164841D03*
%TO.P,D25,2,A*%
%TO.N,Net-(D25-A)*%
X44640910Y-68360159D03*
%TD*%
%TO.P,D26,1,K*%
%TO.N,row1-1*%
X65690340Y-62608591D03*
%TO.P,D26,2,A*%
%TO.N,Net-(D26-A)*%
X62897160Y-62803909D03*
%TD*%
D16*
%TO.P,D27,1,K*%
%TO.N,row1-1*%
X84743750Y-52387500D03*
%TO.P,D27,2,A*%
%TO.N,Net-(D27-A)*%
X81943750Y-52387500D03*
%TD*%
%TO.P,D33,1,K*%
%TO.N,row2-1*%
X84931250Y-69850000D03*
%TO.P,D33,2,A*%
%TO.N,Net-(D33-A)*%
X82131250Y-69850000D03*
%TD*%
D17*
%TO.P,D35,1,K*%
%TO.N,row2-1*%
X121256037Y-92099433D03*
%TO.P,D35,2,A*%
%TO.N,Net-(D35-A)*%
X118456463Y-92050567D03*
%TD*%
%TO.P,D29,1,K*%
%TO.N,row1-1*%
X122049787Y-75406250D03*
%TO.P,D29,2,A*%
%TO.N,Net-(D29-A)*%
X119250213Y-75357382D03*
%TD*%
D15*
%TO.P,D37,1,K*%
%TO.N,row3-1*%
X49815340Y-101502341D03*
%TO.P,D37,2,A*%
%TO.N,Net-(D37-A)*%
X47022160Y-101697659D03*
%TD*%
%TO.P,D21,1,K*%
%TO.N,row0-1*%
X64102840Y-45243750D03*
%TO.P,D21,2,A*%
%TO.N,Net-(D21-A)*%
X61309660Y-45439068D03*
%TD*%
%TO.P,D20,1,K*%
%TO.N,row0-1*%
X46396590Y-50902341D03*
%TO.P,D20,2,A*%
%TO.N,Net-(D20-A)*%
X43603410Y-51097659D03*
%TD*%
%TO.P,D38,1,K*%
%TO.N,row3-1*%
X68071590Y-100708591D03*
%TO.P,D38,2,A*%
%TO.N,Net-(D38-A)*%
X65278410Y-100903909D03*
%TD*%
%TO.P,D32,1,K*%
%TO.N,row2-1*%
X66296590Y-79277341D03*
%TO.P,D32,2,A*%
%TO.N,Net-(D32-A)*%
X63503410Y-79472659D03*
%TD*%
D16*
%TO.P,D22,1,K*%
%TO.N,row0-1*%
X84931250Y-35718750D03*
%TO.P,D22,2,A*%
%TO.N,Net-(D22-A)*%
X82131250Y-35718750D03*
%TD*%
D15*
%TO.P,D31,1,K*%
%TO.N,row2-1*%
X49021590Y-84833591D03*
%TO.P,D31,2,A*%
%TO.N,Net-(D31-A)*%
X46228410Y-85028909D03*
%TD*%
D17*
%TO.P,D24,1,K*%
%TO.N,row0-1*%
X122049787Y-57968183D03*
%TO.P,D24,2,A*%
%TO.N,Net-(D24-A)*%
X119250213Y-57919317D03*
%TD*%
D16*
%TO.P,D28,1,K*%
%TO.N,row1-1*%
X103000000Y-61118750D03*
%TO.P,D28,2,A*%
%TO.N,Net-(D28-A)*%
X100200000Y-61118750D03*
%TD*%
%TO.P,D23,2,A*%
%TO.N,Net-(D23-A)*%
X100200000Y-44450000D03*
%TO.P,D23,1,K*%
%TO.N,row0-1*%
X103000000Y-44450000D03*
%TD*%
D17*
%TO.P,D30,1,K*%
%TO.N,row3-1*%
X139512287Y-71461934D03*
%TO.P,D30,2,A*%
%TO.N,Net-(D30-A)*%
X136712713Y-71413066D03*
%TD*%
D18*
%TO.P,D36,1,K*%
%TO.N,row3-1*%
X24315174Y-104199343D03*
%TO.P,D36,2,A*%
%TO.N,Net-(D36-A)*%
X24897326Y-106938157D03*
%TD*%
D16*
%TO.P,D34,1,K*%
%TO.N,row2-1*%
X103000000Y-77787500D03*
%TO.P,D34,2,A*%
%TO.N,Net-(D34-A)*%
X100200000Y-77787500D03*
%TD*%
%TO.P,D13,1,K*%
%TO.N,row2*%
X195321726Y-78581250D03*
%TO.P,D13,2,A*%
%TO.N,Net-(D13-A)*%
X192521726Y-78581250D03*
%TD*%
D19*
%TO.P,D19,1,K*%
%TO.N,row3*%
X270377673Y-107731906D03*
%TO.P,D19,2,A*%
%TO.N,Net-(D19-A)*%
X270959827Y-104993094D03*
%TD*%
D20*
%TO.P,D4,1,K*%
%TO.N,row0*%
X233761753Y-45341409D03*
%TO.P,D4,2,A*%
%TO.N,Net-(D4-A)*%
X230968573Y-45146091D03*
%TD*%
D21*
%TO.P,D1,1,K*%
%TO.N,row0*%
X176098292Y-58713066D03*
%TO.P,D1,2,A*%
%TO.N,Net-(D1-A)*%
X173298718Y-58761934D03*
%TD*%
%TO.P,D12,1,K*%
%TO.N,row2*%
X176726578Y-92050566D03*
%TO.P,D12,2,A*%
%TO.N,Net-(D12-A)*%
X173927004Y-92099434D03*
%TD*%
D20*
%TO.P,D11,1,K*%
%TO.N,row1*%
X250148384Y-68360159D03*
%TO.P,D11,2,A*%
%TO.N,Net-(D11-A)*%
X247355204Y-68164841D03*
%TD*%
%TO.P,D18,1,K*%
%TO.N,row3*%
X247637152Y-102491409D03*
%TO.P,D18,2,A*%
%TO.N,Net-(D18-A)*%
X244843972Y-102296091D03*
%TD*%
D16*
%TO.P,D2,1,K*%
%TO.N,row0*%
X195321726Y-44450000D03*
%TO.P,D2,2,A*%
%TO.N,Net-(D2-A)*%
X192521726Y-44450000D03*
%TD*%
%TO.P,D8,1,K*%
%TO.N,row1*%
X195321726Y-61118750D03*
%TO.P,D8,2,A*%
%TO.N,Net-(D8-A)*%
X192521726Y-61118750D03*
%TD*%
%TO.P,D3,1,K*%
%TO.N,row0*%
X213321726Y-35718750D03*
%TO.P,D3,2,A*%
%TO.N,Net-(D3-A)*%
X210521726Y-35718750D03*
%TD*%
D20*
%TO.P,D10,1,K*%
%TO.N,row1*%
X232506136Y-62803909D03*
%TO.P,D10,2,A*%
%TO.N,Net-(D10-A)*%
X229712956Y-62608591D03*
%TD*%
%TO.P,D15,1,K*%
%TO.N,row2*%
X231250519Y-79472659D03*
%TO.P,D15,2,A*%
%TO.N,Net-(D15-A)*%
X228457339Y-79277341D03*
%TD*%
%TO.P,D17,1,K*%
%TO.N,row3*%
X229681000Y-100903909D03*
%TO.P,D17,2,A*%
%TO.N,Net-(D17-A)*%
X226887820Y-100708591D03*
%TD*%
%TO.P,D16,1,K*%
%TO.N,row2*%
X248892769Y-85028909D03*
%TO.P,D16,2,A*%
%TO.N,Net-(D16-A)*%
X246099589Y-84833591D03*
%TD*%
D16*
%TO.P,D14,1,K*%
%TO.N,row2*%
X213321726Y-69850000D03*
%TO.P,D14,2,A*%
%TO.N,Net-(D14-A)*%
X210521726Y-69850000D03*
%TD*%
D20*
%TO.P,D5,1,K*%
%TO.N,row0*%
X251404001Y-50897659D03*
%TO.P,D5,2,A*%
%TO.N,Net-(D5-A)*%
X248610821Y-50702341D03*
%TD*%
D16*
%TO.P,D9,1,K*%
%TO.N,row1*%
X213321726Y-52387500D03*
%TO.P,D9,2,A*%
%TO.N,Net-(D9-A)*%
X210521726Y-52387500D03*
%TD*%
D21*
%TO.P,D7,1,K*%
%TO.N,row1*%
X176412435Y-75381816D03*
%TO.P,D7,2,A*%
%TO.N,Net-(D7-A)*%
X173612861Y-75430684D03*
%TD*%
%TO.P,D6,1,K*%
%TO.N,row3*%
X158740638Y-71413066D03*
%TO.P,D6,2,A*%
%TO.N,Net-(D6-A)*%
X155941064Y-71461934D03*
%TD*%
D12*
%TO.P,U1,1,PA02_A0_D0*%
%TO.N,unconnected-(U1-PA02_A0_D0-Pad1)*%
X128915863Y-47318642D03*
%TO.P,U1,2,PA4_A1_D1*%
%TO.N,Data-1*%
X128915863Y-49858642D03*
%TO.P,U1,3,PA10_A2_D2*%
%TO.N,row0-1*%
X128915863Y-52398642D03*
%TO.P,U1,4,PA11_A3_D3*%
%TO.N,row1-1*%
X128915863Y-54938642D03*
%TO.P,U1,5,PA8_A4_D4_SDA*%
%TO.N,row2-1*%
X128915863Y-57478642D03*
%TO.P,U1,6,PA9_A5_D5_SCL*%
%TO.N,row3-1*%
X128915863Y-60018642D03*
%TO.P,U1,7,PB08_A6_D6_TX*%
%TO.N,col0-1*%
X128915863Y-62558642D03*
%TO.P,U1,8,PB09_A7_D7_RX*%
%TO.N,col1-1*%
X145105863Y-62558642D03*
%TO.P,U1,9,PA7_A8_D8_SCK*%
%TO.N,col2-1*%
X145105863Y-60018642D03*
%TO.P,U1,10,PA5_A9_D9_MISO*%
%TO.N,col3-1*%
X145105863Y-57478642D03*
%TO.P,U1,11,PA6_A10_D10_MOSI*%
%TO.N,col4-1*%
X145105863Y-54938642D03*
%TO.P,U1,12,3V3*%
%TO.N,unconnected-(U1-3V3-Pad12)*%
X145105863Y-52398642D03*
%TO.P,U1,13,GND*%
%TO.N,Gnd-1*%
X145105863Y-49858642D03*
%TO.P,U1,14,5V*%
%TO.N,5v-1*%
X145105863Y-47318642D03*
D13*
%TO.P,U1,15,BAT*%
%TO.N,Net-(J4-Pin_1)*%
X132565863Y-54621642D03*
%TO.P,U1,16,GND*%
%TO.N,Net-(J2-Pin_1)*%
X132565863Y-52716642D03*
%TO.P,U1,19,PA31_SWDIO*%
%TO.N,unconnected-(U1-PA31_SWDIO-Pad19)*%
X135740863Y-46366642D03*
%TO.P,U1,20,PA30_SWCLK*%
%TO.N,unconnected-(U1-PA30_SWCLK-Pad20)*%
X138280863Y-46366642D03*
%TO.P,U1,21,RESET*%
%TO.N,unconnected-(U1-RESET-Pad21)*%
X135740863Y-48906642D03*
%TO.P,U1,22,GND*%
%TO.N,unconnected-(U1-GND-Pad22)*%
X138280863Y-48906642D03*
%TD*%
D22*
%TO.N,5v-1*%
X129250000Y-44000000D03*
X136250000Y-44000000D03*
%TD*%
D23*
%TO.N,row0-1*%
X127619328Y-52398642D02*
X122049787Y-57968183D01*
X129390863Y-52398642D02*
X127619328Y-52398642D01*
%TO.N,row1-1*%
X122674220Y-61546815D02*
X122674220Y-74781817D01*
X122674220Y-74781817D02*
X122049787Y-75406250D01*
X129390863Y-54938642D02*
X129282393Y-54938642D01*
X129282393Y-54938642D02*
X122674220Y-61546815D01*
%TO.N,row2-1*%
X124607239Y-62153796D02*
X129282393Y-57478642D01*
X129282393Y-57478642D02*
X129390863Y-57478642D01*
X124607239Y-88748231D02*
X124607239Y-62153796D01*
X121256037Y-92099433D02*
X124607239Y-88748231D01*
%TO.N,row3-1*%
X139512287Y-70140066D02*
X139512287Y-71461934D01*
X129390863Y-60018642D02*
X139512287Y-70140066D01*
%TO.N,col4-1*%
X143429863Y-56139642D02*
X144630863Y-54938642D01*
X137877906Y-79792466D02*
X143429863Y-74240509D01*
X137877906Y-82120946D02*
X137877906Y-79792466D01*
X143429863Y-74240509D02*
X143429863Y-56139642D01*
%TO.N,row3-1*%
X140031875Y-71981522D02*
X139512287Y-71461934D01*
X136451906Y-80651366D02*
X140031875Y-77071397D01*
X117757327Y-102317127D02*
X136451906Y-83622548D01*
X136451906Y-83622548D02*
X136451906Y-80651366D01*
X140031875Y-77071397D02*
X140031875Y-71981522D01*
X68071590Y-100708591D02*
X69680126Y-102317127D01*
X69680126Y-102317127D02*
X117757327Y-102317127D01*
%TO.N,row2-1*%
X106944104Y-77787500D02*
X121256037Y-92099433D01*
X103000000Y-77787500D02*
X106944104Y-77787500D01*
%TO.N,row3-1*%
X67325516Y-99962517D02*
X68071590Y-100708591D01*
X51355164Y-99962517D02*
X67325516Y-99962517D01*
X49815340Y-101502341D02*
X51355164Y-99962517D01*
X49062999Y-100750000D02*
X49815340Y-101502341D01*
X27764517Y-100750000D02*
X49062999Y-100750000D01*
X24315174Y-104199343D02*
X27764517Y-100750000D01*
%TO.N,row2-1*%
X98962500Y-73750000D02*
X103000000Y-77787500D01*
X89631250Y-73750000D02*
X98962500Y-73750000D01*
X85731250Y-69850000D02*
X89631250Y-73750000D01*
X84931250Y-69850000D02*
X85731250Y-69850000D01*
X76624931Y-68949000D02*
X84030250Y-68949000D01*
X84030250Y-68949000D02*
X84931250Y-69850000D01*
X66296590Y-79277341D02*
X76624931Y-68949000D01*
X65550516Y-78531267D02*
X66296590Y-79277341D01*
X55323914Y-78531267D02*
X65550516Y-78531267D01*
X49021590Y-84833591D02*
X55323914Y-78531267D01*
%TO.N,row1-1*%
X107762287Y-61118750D02*
X122049787Y-75406250D01*
X103000000Y-61118750D02*
X107762287Y-61118750D01*
X86795892Y-54439642D02*
X96320892Y-54439642D01*
X84743750Y-52387500D02*
X86795892Y-54439642D01*
X96320892Y-54439642D02*
X103000000Y-61118750D01*
X76812431Y-51486500D02*
X83842750Y-51486500D01*
X83842750Y-51486500D02*
X84743750Y-52387500D01*
X65690340Y-62608591D02*
X76812431Y-51486500D01*
X64831749Y-61750000D02*
X65690340Y-62608591D01*
X53848931Y-61750000D02*
X64831749Y-61750000D01*
X47434090Y-68164841D02*
X53848931Y-61750000D01*
%TO.N,row0-1*%
X74528840Y-34817750D02*
X84030250Y-34817750D01*
X84030250Y-34817750D02*
X84931250Y-35718750D01*
X64102840Y-45243750D02*
X74528840Y-34817750D01*
X63356766Y-44497676D02*
X64102840Y-45243750D01*
X52801255Y-44497676D02*
X63356766Y-44497676D01*
X46396590Y-50902341D02*
X52801255Y-44497676D01*
X94268750Y-35718750D02*
X103000000Y-44450000D01*
X84931250Y-35718750D02*
X94268750Y-35718750D01*
X108531604Y-44450000D02*
X103000000Y-44450000D01*
X122049787Y-57968183D02*
X108531604Y-44450000D01*
%TO.N,Net-(D30-A)*%
X135929875Y-76919446D02*
X132915317Y-79934004D01*
X135929875Y-72195904D02*
X135929875Y-76919446D01*
X136712713Y-71413066D02*
X135929875Y-72195904D01*
%TO.N,Net-(D35-A)*%
X117943934Y-97876569D02*
X114929376Y-100891127D01*
X117943934Y-92563096D02*
X117943934Y-97876569D01*
X118456463Y-92050567D02*
X117943934Y-92563096D01*
%TO.N,Net-(D29-A)*%
X118258077Y-80879158D02*
X115243519Y-83893716D01*
X119250213Y-75357382D02*
X118258077Y-76349518D01*
X118258077Y-76349518D02*
X118258077Y-80879158D01*
%TO.N,Net-(D24-A)*%
X118572220Y-63881748D02*
X115557662Y-66896306D01*
X118572220Y-58597310D02*
X118572220Y-63881748D01*
X119250213Y-57919317D02*
X118572220Y-58597310D01*
%TO.N,Net-(D34-A)*%
X99349724Y-84063918D02*
X96400000Y-87013642D01*
X99349724Y-78637776D02*
X99349724Y-84063918D01*
X100200000Y-77787500D02*
X99349724Y-78637776D01*
%TO.N,Net-(D28-A)*%
X99349724Y-67063918D02*
X96400000Y-70013642D01*
X99349724Y-61969026D02*
X99349724Y-67063918D01*
X100200000Y-61118750D02*
X99349724Y-61969026D01*
%TO.N,Net-(D23-A)*%
X99349724Y-50063918D02*
X96400000Y-53013642D01*
X99349724Y-45300276D02*
X99349724Y-50063918D01*
X100200000Y-44450000D02*
X99349724Y-45300276D01*
%TO.N,Net-(D33-A)*%
X81349000Y-75564642D02*
X78400000Y-78513642D01*
X82131250Y-69850000D02*
X81349000Y-70632250D01*
X81349000Y-70632250D02*
X81349000Y-75564642D01*
%TO.N,Net-(D27-A)*%
X81349000Y-58564642D02*
X78400000Y-61513642D01*
X81349000Y-52982250D02*
X81349000Y-58564642D01*
X81943750Y-52387500D02*
X81349000Y-52982250D01*
%TO.N,Net-(D22-A)*%
X81349724Y-41563918D02*
X78400000Y-44513642D01*
X81349724Y-36500276D02*
X81349724Y-41563918D01*
X82131250Y-35718750D02*
X81349724Y-36500276D01*
%TO.N,Net-(D21-A)*%
X58233817Y-52565492D02*
X58233817Y-54882824D01*
X61309660Y-49489649D02*
X58233817Y-52565492D01*
X61309660Y-45439068D02*
X61309660Y-49489649D01*
%TO.N,Net-(D26-A)*%
X62897160Y-66116355D02*
X59489434Y-69524081D01*
X62897160Y-62803909D02*
X62897160Y-66116355D01*
X59489434Y-69524081D02*
X59489434Y-71841413D01*
%TO.N,Net-(D32-A)*%
X60745051Y-86482670D02*
X60745051Y-88800002D01*
X63503410Y-83724311D02*
X60745051Y-86482670D01*
X63503410Y-79472659D02*
X63503410Y-83724311D01*
%TO.N,Net-(D38-A)*%
X62314570Y-107680905D02*
X62314570Y-109998237D01*
X65278410Y-104717065D02*
X62314570Y-107680905D01*
X65278410Y-100903909D02*
X65278410Y-104717065D01*
%TO.N,Net-(D36-A)*%
X24897326Y-106938157D02*
X32464734Y-106938157D01*
X32464734Y-106938157D02*
X34370867Y-108844290D01*
%TO.N,Net-(D37-A)*%
X47022160Y-108520356D02*
X47022160Y-101697659D01*
X44358418Y-111184098D02*
X47022160Y-108520356D01*
%TO.N,Net-(D20-A)*%
X41028713Y-53672356D02*
X43603410Y-51097659D01*
X41028713Y-59871186D02*
X41028713Y-53672356D01*
X40591569Y-60308330D02*
X41028713Y-59871186D01*
%TO.N,Net-(D25-A)*%
X41847186Y-74949588D02*
X44640910Y-72155864D01*
X41847186Y-77266920D02*
X41847186Y-74949588D01*
X44640910Y-72155864D02*
X44640910Y-68360159D01*
%TO.N,Net-(D31-A)*%
X46228410Y-88782567D02*
X46228410Y-85028909D01*
X43102801Y-91908176D02*
X46228410Y-88782567D01*
X43102801Y-94225508D02*
X43102801Y-91908176D01*
%TO.N,5v-1*%
X136250000Y-44000000D02*
X129250000Y-44000000D01*
%TO.N,Net-(D19-A)*%
X268960257Y-104993094D02*
X263029976Y-99062813D01*
X270959827Y-104993094D02*
X268960257Y-104993094D01*
%TO.N,Net-(D18-A)*%
X244189562Y-107284638D02*
X240987667Y-110486533D01*
X244189562Y-102950501D02*
X244189562Y-107284638D01*
X244843972Y-102296091D02*
X244189562Y-102950501D01*
%TO.N,Net-(D17-A)*%
X226233410Y-106098777D02*
X223031515Y-109300672D01*
X226233410Y-101363001D02*
X226233410Y-106098777D01*
X226887820Y-100708591D02*
X226233410Y-101363001D01*
%TO.N,Net-(D16-A)*%
X245445179Y-90326048D02*
X242243284Y-93527943D01*
X245445179Y-85488001D02*
X245445179Y-90326048D01*
X246099589Y-84833591D02*
X245445179Y-85488001D01*
%TO.N,Net-(D15-A)*%
X227802929Y-84900542D02*
X224601034Y-88102437D01*
X227802929Y-79931751D02*
X227802929Y-84900542D01*
X228457339Y-79277341D02*
X227802929Y-79931751D01*
%TO.N,Net-(D11-A)*%
X246700794Y-68819251D02*
X246700794Y-73367460D01*
X247355204Y-68164841D02*
X246700794Y-68819251D01*
X246700794Y-73367460D02*
X243498899Y-76569355D01*
%TO.N,Net-(D10-A)*%
X229058546Y-63263001D02*
X229058546Y-67941953D01*
X229058546Y-67941953D02*
X225856651Y-71143848D01*
X229712956Y-62608591D02*
X229058546Y-63263001D01*
%TO.N,Net-(D5-A)*%
X248610821Y-53393601D02*
X244754516Y-57249906D01*
X248610821Y-50702341D02*
X248610821Y-53393601D01*
X244754516Y-57249906D02*
X244754516Y-59610765D01*
%TO.N,Net-(D4-A)*%
X227112268Y-52887732D02*
X227112268Y-54185259D01*
X230968573Y-49031427D02*
X227112268Y-52887732D01*
X230968573Y-45146091D02*
X230968573Y-49031427D01*
%TO.N,Net-(D3-A)*%
X209871450Y-36369026D02*
X209871450Y-41563918D01*
X209871450Y-41563918D02*
X206921726Y-44513642D01*
X210521726Y-35718750D02*
X209871450Y-36369026D01*
%TO.N,Net-(D9-A)*%
X209870726Y-58564642D02*
X206921726Y-61513642D01*
X209870726Y-53038500D02*
X209870726Y-58564642D01*
X210521726Y-52387500D02*
X209870726Y-53038500D01*
%TO.N,Net-(D14-A)*%
X209871450Y-75563918D02*
X206921726Y-78513642D01*
X209871450Y-70500276D02*
X209871450Y-75563918D01*
X210521726Y-69850000D02*
X209871450Y-70500276D01*
%TO.N,Net-(D13-A)*%
X192521726Y-80812112D02*
X192521726Y-78581250D01*
X188921726Y-84412112D02*
X192521726Y-80812112D01*
X188921726Y-87013642D02*
X188921726Y-84412112D01*
%TO.N,Net-(D8-A)*%
X192521726Y-64713090D02*
X192521726Y-61118750D01*
X188921726Y-68313090D02*
X192521726Y-64713090D01*
X188921726Y-70013642D02*
X188921726Y-68313090D01*
%TO.N,Net-(D12-A)*%
X171518872Y-94507566D02*
X173927004Y-92099434D01*
X171518872Y-99940651D02*
X171518872Y-94507566D01*
X170393872Y-101065651D02*
X171518872Y-99940651D01*
%TO.N,Net-(D7-A)*%
X172961648Y-76081897D02*
X172961648Y-81186321D01*
X173612861Y-75430684D02*
X172961648Y-76081897D01*
X172961648Y-81186321D02*
X170079729Y-84068240D01*
%TO.N,Net-(D1-A)*%
X173298718Y-60879230D02*
X173298718Y-58761934D01*
X169765586Y-64412362D02*
X173298718Y-60879230D01*
X169765586Y-67070830D02*
X169765586Y-64412362D01*
%TO.N,Net-(D2-A)*%
X192000000Y-44971726D02*
X192521726Y-44450000D01*
X192000000Y-48344378D02*
X192000000Y-44971726D01*
X188921726Y-51422652D02*
X192000000Y-48344378D01*
X188921726Y-53013642D02*
X188921726Y-51422652D01*
%TO.N,row3*%
X174838384Y-92813550D02*
X181792033Y-99767199D01*
X181792033Y-99767199D02*
X228544290Y-99767199D01*
X228544290Y-99767199D02*
X229681000Y-100903909D01*
X168653729Y-85200663D02*
X174838384Y-91385318D01*
X158740638Y-73724952D02*
X168653729Y-83638043D01*
X158740638Y-71413066D02*
X158740638Y-73724952D01*
X168653729Y-83638043D02*
X168653729Y-85200663D01*
X174838384Y-91385318D02*
X174838384Y-92813550D01*
X246049652Y-100903909D02*
X247637152Y-102491409D01*
X229681000Y-100903909D02*
X246049652Y-100903909D01*
X248488810Y-102491409D02*
X247637152Y-102491409D01*
X253729307Y-107731906D02*
X248488810Y-102491409D01*
X270377673Y-107731906D02*
X253729307Y-107731906D01*
%TO.N,row2*%
X243336519Y-79472659D02*
X231250519Y-79472659D01*
X248892769Y-85028909D02*
X243336519Y-79472659D01*
X221627860Y-69850000D02*
X213321726Y-69850000D01*
X231250519Y-79472659D02*
X221627860Y-69850000D01*
X204953976Y-68949000D02*
X195321726Y-78581250D01*
X213321726Y-69850000D02*
X212420726Y-68949000D01*
X212420726Y-68949000D02*
X204953976Y-68949000D01*
X194420726Y-77680250D02*
X195321726Y-78581250D01*
X191096894Y-77680250D02*
X194420726Y-77680250D01*
X176726578Y-92050566D02*
X191096894Y-77680250D01*
%TO.N,row1*%
X244592134Y-62803909D02*
X232506136Y-62803909D01*
X250148384Y-68360159D02*
X244592134Y-62803909D01*
X222089727Y-52387500D02*
X213321726Y-52387500D01*
X232506136Y-62803909D02*
X222089727Y-52387500D01*
X204953976Y-51486500D02*
X195321726Y-61118750D01*
X212420726Y-51486500D02*
X204953976Y-51486500D01*
X213321726Y-52387500D02*
X212420726Y-51486500D01*
X176412435Y-74337565D02*
X176412435Y-75381816D01*
X190532250Y-60217750D02*
X176412435Y-74337565D01*
X194420726Y-60217750D02*
X190532250Y-60217750D01*
X195321726Y-61118750D02*
X194420726Y-60217750D01*
%TO.N,row0*%
X251404001Y-50897659D02*
X245847751Y-45341409D01*
X245847751Y-45341409D02*
X233761753Y-45341409D01*
X224139094Y-35718750D02*
X213321726Y-35718750D01*
X233761753Y-45341409D02*
X224139094Y-35718750D01*
X204953976Y-34817750D02*
X195321726Y-44450000D01*
X213321726Y-35718750D02*
X212420726Y-34817750D01*
X212420726Y-34817750D02*
X204953976Y-34817750D01*
X191262358Y-43549000D02*
X176098292Y-58713066D01*
X195321726Y-44450000D02*
X194420726Y-43549000D01*
X194420726Y-43549000D02*
X191262358Y-43549000D01*
%TO.N,Net-(D6-A)*%
X155941064Y-74721080D02*
X155941064Y-71461934D01*
X152407932Y-78254212D02*
X155941064Y-74721080D01*
X152407932Y-80108528D02*
X152407932Y-78254212D01*
%TD*%
M02*
