%TF.GenerationSoftware,KiCad,Pcbnew,9.0.2*%
%TF.CreationDate,2025-07-04T08:31:17-06:00*%
%TF.ProjectId,Orcus,4f726375-732e-46b6-9963-61645f706362,rev?*%
%TF.SameCoordinates,Original*%
%TF.FileFunction,Paste,Bot*%
%TF.FilePolarity,Positive*%
%FSLAX46Y46*%
G04 Gerber Fmt 4.6, Leading zero omitted, Abs format (unit mm)*
G04 Created by KiCad (PCBNEW 9.0.2) date 2025-07-04 08:31:17*
%MOMM*%
%LPD*%
G01*
G04 APERTURE LIST*
G04 Aperture macros list*
%AMRotRect*
0 Rectangle, with rotation*
0 The origin of the aperture is its center*
0 $1 length*
0 $2 width*
0 $3 Rotation angle, in degrees counterclockwise*
0 Add horizontal line*
21,1,$1,$2,0,0,$3*%
G04 Aperture macros list end*
%ADD10RotRect,1.200000X1.200000X184.000000*%
%ADD11R,1.200000X1.200000*%
%ADD12RotRect,1.200000X1.200000X78.000000*%
%ADD13RotRect,1.200000X1.200000X176.000000*%
%ADD14RotRect,1.200000X1.200000X181.000000*%
%ADD15RotRect,1.200000X1.200000X179.000000*%
%ADD16RotRect,1.200000X1.200000X91.000000*%
%ADD17RotRect,1.200000X1.200000X269.000000*%
%ADD18RotRect,1.200000X1.200000X282.000000*%
G04 APERTURE END LIST*
D10*
%TO.C,D25*%
X47434090Y-68164841D03*
X44640910Y-68360159D03*
%TD*%
D11*
%TO.C,D13*%
X195321726Y-78581250D03*
X192521726Y-78581250D03*
%TD*%
D10*
%TO.C,D26*%
X65690340Y-62608591D03*
X62897160Y-62803909D03*
%TD*%
D12*
%TO.C,D19*%
X270377674Y-107731907D03*
X270959826Y-104993093D03*
%TD*%
D13*
%TO.C,D4*%
X233761753Y-45341409D03*
X230968573Y-45146091D03*
%TD*%
D11*
%TO.C,D27*%
X84743750Y-52387500D03*
X81943750Y-52387500D03*
%TD*%
D14*
%TO.C,D1*%
X176098292Y-58713067D03*
X173298718Y-58761933D03*
%TD*%
D11*
%TO.C,D33*%
X84931250Y-69850000D03*
X82131250Y-69850000D03*
%TD*%
D14*
%TO.C,D12*%
X176726578Y-92050567D03*
X173927004Y-92099433D03*
%TD*%
D15*
%TO.C,D35*%
X121256037Y-92099433D03*
X118456463Y-92050567D03*
%TD*%
%TO.C,D29*%
X122049787Y-75406249D03*
X119250213Y-75357383D03*
%TD*%
D13*
%TO.C,D11*%
X250148384Y-68360159D03*
X247355204Y-68164841D03*
%TD*%
%TO.C,D18*%
X247637152Y-102491409D03*
X244843972Y-102296091D03*
%TD*%
D11*
%TO.C,D2*%
X195321726Y-44450000D03*
X192521726Y-44450000D03*
%TD*%
%TO.C,D8*%
X195321726Y-61118750D03*
X192521726Y-61118750D03*
%TD*%
D10*
%TO.C,D37*%
X49815340Y-101502341D03*
X47022160Y-101697659D03*
%TD*%
D11*
%TO.C,D3*%
X213321726Y-35718750D03*
X210521726Y-35718750D03*
%TD*%
D10*
%TO.C,D21*%
X64102840Y-45243750D03*
X61309660Y-45439068D03*
%TD*%
%TO.C,D20*%
X46396590Y-50902341D03*
X43603410Y-51097659D03*
%TD*%
%TO.C,D38*%
X68071590Y-100708591D03*
X65278410Y-100903909D03*
%TD*%
%TO.C,D32*%
X66296590Y-79277341D03*
X63503410Y-79472659D03*
%TD*%
D13*
%TO.C,D10*%
X232506136Y-62803909D03*
X229712956Y-62608591D03*
%TD*%
%TO.C,D15*%
X231250519Y-79472659D03*
X228457339Y-79277341D03*
%TD*%
D11*
%TO.C,D22*%
X84931250Y-35718750D03*
X82131250Y-35718750D03*
%TD*%
D10*
%TO.C,D31*%
X49021590Y-84833591D03*
X46228410Y-85028909D03*
%TD*%
D13*
%TO.C,D17*%
X229681000Y-100903909D03*
X226887820Y-100708591D03*
%TD*%
%TO.C,D16*%
X248892769Y-85028909D03*
X246099589Y-84833591D03*
%TD*%
D11*
%TO.C,D14*%
X213321726Y-69850000D03*
X210521726Y-69850000D03*
%TD*%
D15*
%TO.C,D24*%
X122049787Y-57968183D03*
X119250213Y-57919317D03*
%TD*%
D11*
%TO.C,D28*%
X103000000Y-61118750D03*
X100200000Y-61118750D03*
%TD*%
D13*
%TO.C,D5*%
X251404001Y-50897659D03*
X248610821Y-50702341D03*
%TD*%
D11*
%TO.C,D9*%
X213321726Y-52387500D03*
X210521726Y-52387500D03*
%TD*%
%TO.C,D23*%
X103000000Y-44450000D03*
X100200000Y-44450000D03*
%TD*%
D14*
%TO.C,D7*%
X176412435Y-75381817D03*
X173612861Y-75430683D03*
%TD*%
D16*
%TO.C,D6*%
X161949433Y-77599787D03*
X161900567Y-74800213D03*
%TD*%
D17*
%TO.C,D30*%
X133350000Y-74987926D03*
X133301134Y-77787500D03*
%TD*%
D18*
%TO.C,D36*%
X24315174Y-104199343D03*
X24897326Y-106938157D03*
%TD*%
D11*
%TO.C,D34*%
X103000000Y-77787500D03*
X100200000Y-77787500D03*
%TD*%
M02*
