M48
; DRILL file {KiCad 9.0.2} date 2025-06-24T00:15:19-0600
; FORMAT={-:-/ absolute / inch / decimal}
; #@! TF.CreationDate,2025-06-24T00:15:19-06:00
; #@! TF.GenerationSoftware,Kicad,Pcbnew,9.0.2
; #@! TF.FileFunction,NonPlated,1,2,NPTH
FMAT,2
INCH
; #@! TA.AperFunction,NonPlated,NPTH,ComponentDrill
T1C0.0669
; #@! TA.AperFunction,NonPlated,NPTH,ComponentDrill
T2C0.1339
%
G90
G05
T1
X1.1209Y-3.912
X1.2109Y-4.3356
X1.568Y-2.2265
X1.6175Y-2.8941
X1.6669Y-3.5618
X1.7163Y-4.2295
X2.0Y-2.1963
X2.0495Y-2.8639
X2.0989Y-3.5316
X2.1483Y-4.1992
X2.2626Y-2.0129
X2.312Y-2.6805
X2.3615Y-3.3482
X2.4233Y-4.1828
X2.6946Y-1.9827
X2.744Y-2.6503
X2.7935Y-3.318
X2.8553Y-4.1526
X3.0669Y-1.6029
X3.0669Y-2.2722
X3.0669Y-2.9415
X3.5Y-1.6029
X3.5Y-2.2722
X3.5Y-2.9415
X3.7756Y-1.9375
X3.7756Y-2.6068
X3.7756Y-3.2761
X4.2087Y-1.9375
X4.2087Y-2.6068
X4.2087Y-3.2761
X4.5077Y-3.8222
X4.5201Y-3.153
X4.5324Y-2.4838
X4.9407Y-3.8297
X4.9531Y-3.1605
X4.9654Y-2.4913
X5.2158Y-2.9971
X5.6488Y-3.0046
X5.978Y-3.0046
X6.411Y-2.9971
X6.6614Y-2.4913
X6.6738Y-3.1605
X6.6861Y-3.8297
X7.0944Y-2.4838
X7.1068Y-3.153
X7.1191Y-3.8222
X7.4182Y-1.9375
X7.4182Y-2.6068
X7.4182Y-3.2761
X7.8512Y-1.9375
X7.8512Y-2.6068
X7.8512Y-3.2761
X8.1268Y-1.6029
X8.1268Y-2.2722
X8.1268Y-2.9415
X8.5599Y-1.6029
X8.5599Y-2.2722
X8.5599Y-2.9415
X8.7716Y-4.1526
X8.8334Y-3.318
X8.8828Y-2.6503
X8.9322Y-1.9827
X9.2036Y-4.1828
X9.2654Y-3.3482
X9.3148Y-2.6805
X9.3642Y-2.0129
X9.4785Y-4.1992
X9.5279Y-3.5316
X9.5774Y-2.8639
X9.6268Y-2.1963
X9.9105Y-4.2295
X9.96Y-3.5618
X10.0094Y-2.8941
X10.0588Y-2.2265
X10.4159Y-4.3356
X10.5059Y-3.912
T2
X1.1659Y-4.1238
X1.784Y-2.2114
X1.8335Y-2.879
X1.8829Y-3.5467
X1.9323Y-4.2144
X2.4786Y-1.9978
X2.528Y-2.6654
X2.5775Y-3.3331
X2.6393Y-4.1677
X3.2835Y-1.6029
X3.2835Y-2.2722
X3.2835Y-2.9415
X3.9921Y-1.9375
X3.9921Y-2.6068
X3.9921Y-3.2761
X4.7242Y-3.8259
X4.7366Y-3.1568
X4.7489Y-2.4876
X5.4323Y-3.0009
X6.1945Y-3.0009
X6.8779Y-2.4876
X6.8903Y-3.1568
X6.9026Y-3.8259
X7.6347Y-1.9375
X7.6347Y-2.6068
X7.6347Y-3.2761
X8.3434Y-1.6029
X8.3434Y-2.2722
X8.3434Y-2.9415
X8.9876Y-4.1677
X9.0494Y-3.3331
X9.0988Y-2.6654
X9.1482Y-1.9978
X9.6945Y-4.2144
X9.7439Y-3.5467
X9.7934Y-2.879
X9.8428Y-2.2114
X10.4609Y-4.1238
M30
