%TF.GenerationSoftware,KiCad,Pcbnew,9.0.2*%
%TF.CreationDate,2025-06-24T00:04:00-06:00*%
%TF.ProjectId,Orcus,4f726375-732e-46b6-9963-61645f706362,rev?*%
%TF.SameCoordinates,Original*%
%TF.FileFunction,Legend,Top*%
%TF.FilePolarity,Positive*%
%FSLAX46Y46*%
G04 Gerber Fmt 4.6, Leading zero omitted, Abs format (unit mm)*
G04 Created by KiCad (PCBNEW 9.0.2) date 2025-06-24 00:04:00*
%MOMM*%
%LPD*%
G01*
G04 APERTURE LIST*
%ADD10C,0.150000*%
%ADD11C,0.100000*%
%ADD12C,0.120000*%
%ADD13C,2.500000*%
G04 APERTURE END LIST*
D10*
X46784957Y-38866975D02*
X47499242Y-38866975D01*
X47499242Y-38866975D02*
X47642099Y-38914594D01*
X47642099Y-38914594D02*
X47737338Y-39009832D01*
X47737338Y-39009832D02*
X47784957Y-39152689D01*
X47784957Y-39152689D02*
X47784957Y-39247927D01*
X46784957Y-37962213D02*
X46784957Y-38152689D01*
X46784957Y-38152689D02*
X46832576Y-38247927D01*
X46832576Y-38247927D02*
X46880195Y-38295546D01*
X46880195Y-38295546D02*
X47023052Y-38390784D01*
X47023052Y-38390784D02*
X47213528Y-38438403D01*
X47213528Y-38438403D02*
X47594480Y-38438403D01*
X47594480Y-38438403D02*
X47689718Y-38390784D01*
X47689718Y-38390784D02*
X47737338Y-38343165D01*
X47737338Y-38343165D02*
X47784957Y-38247927D01*
X47784957Y-38247927D02*
X47784957Y-38057451D01*
X47784957Y-38057451D02*
X47737338Y-37962213D01*
X47737338Y-37962213D02*
X47689718Y-37914594D01*
X47689718Y-37914594D02*
X47594480Y-37866975D01*
X47594480Y-37866975D02*
X47356385Y-37866975D01*
X47356385Y-37866975D02*
X47261147Y-37914594D01*
X47261147Y-37914594D02*
X47213528Y-37962213D01*
X47213528Y-37962213D02*
X47165909Y-38057451D01*
X47165909Y-38057451D02*
X47165909Y-38247927D01*
X47165909Y-38247927D02*
X47213528Y-38343165D01*
X47213528Y-38343165D02*
X47261147Y-38390784D01*
X47261147Y-38390784D02*
X47356385Y-38438403D01*
X247446407Y-38866975D02*
X248160692Y-38866975D01*
X248160692Y-38866975D02*
X248303549Y-38914594D01*
X248303549Y-38914594D02*
X248398788Y-39009832D01*
X248398788Y-39009832D02*
X248446407Y-39152689D01*
X248446407Y-39152689D02*
X248446407Y-39247927D01*
X247446407Y-37914594D02*
X247446407Y-38390784D01*
X247446407Y-38390784D02*
X247922597Y-38438403D01*
X247922597Y-38438403D02*
X247874978Y-38390784D01*
X247874978Y-38390784D02*
X247827359Y-38295546D01*
X247827359Y-38295546D02*
X247827359Y-38057451D01*
X247827359Y-38057451D02*
X247874978Y-37962213D01*
X247874978Y-37962213D02*
X247922597Y-37914594D01*
X247922597Y-37914594D02*
X248017835Y-37866975D01*
X248017835Y-37866975D02*
X248255930Y-37866975D01*
X248255930Y-37866975D02*
X248351168Y-37914594D01*
X248351168Y-37914594D02*
X248398788Y-37962213D01*
X248398788Y-37962213D02*
X248446407Y-38057451D01*
X248446407Y-38057451D02*
X248446407Y-38295546D01*
X248446407Y-38295546D02*
X248398788Y-38390784D01*
X248398788Y-38390784D02*
X248351168Y-38438403D01*
D11*
X251313988Y-40210133D02*
X251923512Y-40210133D01*
X251618750Y-40514895D02*
X251618750Y-39905371D01*
X251313988Y-36710133D02*
X251923512Y-36710133D01*
X43351488Y-40535133D02*
X43961012Y-40535133D01*
X43656250Y-40839895D02*
X43656250Y-40230371D01*
X43351488Y-37035133D02*
X43961012Y-37035133D01*
D12*
%TO.C,J6*%
X58100138Y-38533642D02*
G75*
G02*
X48560138Y-38533642I-4770000J0D01*
G01*
X48560138Y-38533642D02*
G75*
G02*
X58100138Y-38533642I4770000J0D01*
G01*
%TO.C,J5*%
X246761588Y-38533642D02*
G75*
G02*
X237221588Y-38533642I-4770000J0D01*
G01*
X237221588Y-38533642D02*
G75*
G02*
X246761588Y-38533642I4770000J0D01*
G01*
%TD*%
D13*
%TO.C,J3*%
X251618750Y-38100000D03*
%TD*%
%TO.C,J1*%
X251618750Y-34600000D03*
%TD*%
%TO.C,J4*%
X43656250Y-38425000D03*
%TD*%
%TO.C,J2*%
X43656250Y-34925000D03*
%TD*%
M02*
