%TF.GenerationSoftware,KiCad,Pcbnew,9.0.2*%
%TF.CreationDate,2025-06-24T00:15:16-06:00*%
%TF.ProjectId,Orcus,4f726375-732e-46b6-9963-61645f706362,rev?*%
%TF.SameCoordinates,Original*%
%TF.FileFunction,Profile,NP*%
%FSLAX46Y46*%
G04 Gerber Fmt 4.6, Leading zero omitted, Abs format (unit mm)*
G04 Created by KiCad (PCBNEW 9.0.2) date 2025-06-24 00:15:16*
%MOMM*%
%LPD*%
G01*
G04 APERTURE LIST*
%TA.AperFunction,Profile*%
%ADD10C,0.200000*%
%TD*%
%TA.AperFunction,Profile*%
%ADD11C,0.050000*%
%TD*%
%TA.AperFunction,Profile*%
%ADD12C,0.120000*%
%TD*%
G04 APERTURE END LIST*
D10*
X202396930Y-112870643D02*
X255169194Y-116560839D01*
X24207786Y-119949999D02*
X18552588Y-93344385D01*
X102631945Y-105780420D02*
X92924796Y-112870643D01*
X92924796Y-112870643D02*
X40152532Y-116560839D01*
X40560138Y-32263642D02*
X106204971Y-32263642D01*
X106204971Y-32263642D02*
X114704971Y-40763642D01*
X189116755Y-32263642D02*
X180616755Y-40763642D01*
X35810138Y-59003642D02*
X35810138Y-65603642D01*
X271113940Y-119949999D02*
X276769138Y-93344385D01*
X35810138Y-59003642D02*
X35810138Y-46038642D01*
X35810138Y-46038642D02*
X40560138Y-46038642D01*
X114704971Y-40763642D02*
X142360863Y-40763642D01*
X40560138Y-46038642D02*
X40560138Y-32263642D01*
X259511588Y-59003642D02*
X259511588Y-46038642D01*
X276769138Y-93344385D02*
X259511588Y-89676179D01*
X255169194Y-116560839D02*
X271113940Y-119949999D01*
X192689781Y-105780420D02*
X202396930Y-112870643D01*
X35810138Y-89676179D02*
X35810138Y-65603642D01*
X165049275Y-93833926D02*
X165049275Y-105780420D01*
X259511588Y-46038642D02*
X254761588Y-46038642D01*
X152960863Y-40763642D02*
X152960863Y-43063642D01*
X254761588Y-32263642D02*
X189116755Y-32263642D01*
X130272451Y-105780420D02*
X102631945Y-105780420D01*
X130272451Y-93833926D02*
X130272451Y-105780420D01*
X142360863Y-40763642D02*
X142360863Y-43063642D01*
X165049275Y-105780420D02*
X192689781Y-105780420D01*
X18552588Y-93344385D02*
X35810138Y-89676179D01*
X254761588Y-46038642D02*
X254761588Y-32263642D01*
X180616755Y-40763642D02*
X152960863Y-40763642D01*
X259511588Y-89676179D02*
X259511588Y-65603642D01*
X259511588Y-65603642D02*
X259511588Y-59003642D01*
X40152532Y-116560839D02*
X24207786Y-119949999D01*
D11*
X152960863Y-43063642D02*
X142360863Y-43063642D01*
X130272451Y-93833926D02*
X165049275Y-93833926D01*
D12*
%TO.C,U3*%
X153611863Y-54189842D02*
X153611863Y-53148442D01*
X154297663Y-52462642D02*
X155897863Y-52462642D01*
X155897863Y-54875642D02*
X154297663Y-54875642D01*
X156278863Y-52843642D02*
X156278863Y-54494642D01*
X156786863Y-48474842D02*
X156786863Y-46798442D01*
X157472663Y-46112642D02*
X159149063Y-46112642D01*
X157472663Y-49160642D02*
X159149063Y-49160642D01*
X159834863Y-48474842D02*
X159834863Y-46798442D01*
X153611863Y-54189842D02*
G75*
G02*
X154297663Y-54875642I247753J-438047D01*
G01*
X154297663Y-52462642D02*
G75*
G02*
X153611863Y-53148442I-438047J-247753D01*
G01*
X155897863Y-52462642D02*
G75*
G02*
X156278863Y-52843642I1J-380999D01*
G01*
X156278863Y-54494642D02*
G75*
G02*
X155897863Y-54875642I-380999J-1D01*
G01*
X156786863Y-48474842D02*
G75*
G02*
X157472663Y-49160642I247753J-438047D01*
G01*
X157472663Y-46112642D02*
G75*
G02*
X156786863Y-46798442I-438047J-247753D01*
G01*
X159149063Y-49160642D02*
G75*
G02*
X159834863Y-48474842I438047J247753D01*
G01*
X159834863Y-46798442D02*
G75*
G02*
X159149063Y-46112642I-247750J438050D01*
G01*
%TO.C,U1*%
X132311863Y-54189842D02*
X132311863Y-53148442D01*
X132997663Y-52462642D02*
X134597863Y-52462642D01*
X134597863Y-54875642D02*
X132997663Y-54875642D01*
X134978863Y-52843642D02*
X134978863Y-54494642D01*
X135486863Y-48474842D02*
X135486863Y-46798442D01*
X136172663Y-46112642D02*
X137849063Y-46112642D01*
X136172663Y-49160642D02*
X137849063Y-49160642D01*
X138534863Y-48474842D02*
X138534863Y-46798442D01*
X132311863Y-54189842D02*
G75*
G02*
X132997663Y-54875642I247753J-438047D01*
G01*
X132997663Y-52462642D02*
G75*
G02*
X132311863Y-53148442I-438047J-247753D01*
G01*
X134597863Y-52462642D02*
G75*
G02*
X134978863Y-52843642I1J-380999D01*
G01*
X134978863Y-54494642D02*
G75*
G02*
X134597863Y-54875642I-380999J-1D01*
G01*
X135486863Y-48474842D02*
G75*
G02*
X136172663Y-49160642I247753J-438047D01*
G01*
X136172663Y-46112642D02*
G75*
G02*
X135486863Y-46798442I-438047J-247753D01*
G01*
X137849063Y-49160642D02*
G75*
G02*
X138534863Y-48474842I438047J247753D01*
G01*
X138534863Y-46798442D02*
G75*
G02*
X137849063Y-46112642I-247750J438050D01*
G01*
%TD*%
M02*
