%TF.GenerationSoftware,KiCad,Pcbnew,9.0.2*%
%TF.CreationDate,2025-06-24T08:44:03-06:00*%
%TF.ProjectId,Orcus,4f726375-732e-46b6-9963-61645f706362,rev?*%
%TF.SameCoordinates,Original*%
%TF.FileFunction,AssemblyDrawing,Top*%
%FSLAX46Y46*%
G04 Gerber Fmt 4.6, Leading zero omitted, Abs format (unit mm)*
G04 Created by KiCad (PCBNEW 9.0.2) date 2025-06-24 08:44:03*
%MOMM*%
%LPD*%
G01*
G04 APERTURE LIST*
%ADD10C,2.000000*%
%ADD11C,0.150000*%
%ADD12C,0.100000*%
G04 APERTURE END LIST*
D10*
X147660863Y-43063642D02*
X147660863Y-93833926D01*
D11*
X147115682Y-29881647D02*
X148115682Y-29548314D01*
X148115682Y-29548314D02*
X147115682Y-29214981D01*
X148068063Y-28929266D02*
X148115682Y-28834028D01*
X148115682Y-28834028D02*
X148115682Y-28643552D01*
X148115682Y-28643552D02*
X148068063Y-28548314D01*
X148068063Y-28548314D02*
X147972824Y-28500695D01*
X147972824Y-28500695D02*
X147925205Y-28500695D01*
X147925205Y-28500695D02*
X147829967Y-28548314D01*
X147829967Y-28548314D02*
X147782348Y-28643552D01*
X147782348Y-28643552D02*
X147782348Y-28786409D01*
X147782348Y-28786409D02*
X147734729Y-28881647D01*
X147734729Y-28881647D02*
X147639491Y-28929266D01*
X147639491Y-28929266D02*
X147591872Y-28929266D01*
X147591872Y-28929266D02*
X147496634Y-28881647D01*
X147496634Y-28881647D02*
X147449015Y-28786409D01*
X147449015Y-28786409D02*
X147449015Y-28643552D01*
X147449015Y-28643552D02*
X147496634Y-28548314D01*
X148068063Y-27643552D02*
X148115682Y-27738790D01*
X148115682Y-27738790D02*
X148115682Y-27929266D01*
X148115682Y-27929266D02*
X148068063Y-28024504D01*
X148068063Y-28024504D02*
X148020443Y-28072123D01*
X148020443Y-28072123D02*
X147925205Y-28119742D01*
X147925205Y-28119742D02*
X147639491Y-28119742D01*
X147639491Y-28119742D02*
X147544253Y-28072123D01*
X147544253Y-28072123D02*
X147496634Y-28024504D01*
X147496634Y-28024504D02*
X147449015Y-27929266D01*
X147449015Y-27929266D02*
X147449015Y-27738790D01*
X147449015Y-27738790D02*
X147496634Y-27643552D01*
X148115682Y-27072123D02*
X148068063Y-27167361D01*
X148068063Y-27167361D02*
X148020443Y-27214980D01*
X148020443Y-27214980D02*
X147925205Y-27262599D01*
X147925205Y-27262599D02*
X147639491Y-27262599D01*
X147639491Y-27262599D02*
X147544253Y-27214980D01*
X147544253Y-27214980D02*
X147496634Y-27167361D01*
X147496634Y-27167361D02*
X147449015Y-27072123D01*
X147449015Y-27072123D02*
X147449015Y-26929266D01*
X147449015Y-26929266D02*
X147496634Y-26834028D01*
X147496634Y-26834028D02*
X147544253Y-26786409D01*
X147544253Y-26786409D02*
X147639491Y-26738790D01*
X147639491Y-26738790D02*
X147925205Y-26738790D01*
X147925205Y-26738790D02*
X148020443Y-26786409D01*
X148020443Y-26786409D02*
X148068063Y-26834028D01*
X148068063Y-26834028D02*
X148115682Y-26929266D01*
X148115682Y-26929266D02*
X148115682Y-27072123D01*
X148115682Y-26310218D02*
X147449015Y-26310218D01*
X147639491Y-26310218D02*
X147544253Y-26262599D01*
X147544253Y-26262599D02*
X147496634Y-26214980D01*
X147496634Y-26214980D02*
X147449015Y-26119742D01*
X147449015Y-26119742D02*
X147449015Y-26024504D01*
X148068063Y-25310218D02*
X148115682Y-25405456D01*
X148115682Y-25405456D02*
X148115682Y-25595932D01*
X148115682Y-25595932D02*
X148068063Y-25691170D01*
X148068063Y-25691170D02*
X147972824Y-25738789D01*
X147972824Y-25738789D02*
X147591872Y-25738789D01*
X147591872Y-25738789D02*
X147496634Y-25691170D01*
X147496634Y-25691170D02*
X147449015Y-25595932D01*
X147449015Y-25595932D02*
X147449015Y-25405456D01*
X147449015Y-25405456D02*
X147496634Y-25310218D01*
X147496634Y-25310218D02*
X147591872Y-25262599D01*
X147591872Y-25262599D02*
X147687110Y-25262599D01*
X147687110Y-25262599D02*
X147782348Y-25738789D01*
D12*
X147660863Y-42563642D02*
X147660863Y-40224505D01*
X147660863Y-42563642D02*
X147074442Y-41437138D01*
X147660863Y-42563642D02*
X148247284Y-41437138D01*
X147660863Y-40224505D02*
X147660863Y-30601886D01*
D11*
X41009004Y-38269593D02*
X41009004Y-37507689D01*
X41389957Y-37888641D02*
X40628052Y-37888641D01*
X254460454Y-38269593D02*
X254460454Y-37507689D01*
X254841407Y-37888641D02*
X254079502Y-37888641D01*
X41009004Y-35019593D02*
X41009004Y-34257689D01*
X254460454Y-35019593D02*
X254460454Y-34257689D01*
X236446407Y-39176499D02*
X236446407Y-39652689D01*
X236446407Y-39652689D02*
X235446407Y-39652689D01*
X235922597Y-38843165D02*
X235922597Y-38509832D01*
X236446407Y-38366975D02*
X236446407Y-38843165D01*
X236446407Y-38843165D02*
X235446407Y-38843165D01*
X235446407Y-38843165D02*
X235446407Y-38366975D01*
X236446407Y-37938403D02*
X235446407Y-37938403D01*
X235446407Y-37938403D02*
X235446407Y-37700308D01*
X235446407Y-37700308D02*
X235494026Y-37557451D01*
X235494026Y-37557451D02*
X235589264Y-37462213D01*
X235589264Y-37462213D02*
X235684502Y-37414594D01*
X235684502Y-37414594D02*
X235874978Y-37366975D01*
X235874978Y-37366975D02*
X236017835Y-37366975D01*
X236017835Y-37366975D02*
X236208311Y-37414594D01*
X236208311Y-37414594D02*
X236303549Y-37462213D01*
X236303549Y-37462213D02*
X236398788Y-37557451D01*
X236398788Y-37557451D02*
X236446407Y-37700308D01*
X236446407Y-37700308D02*
X236446407Y-37938403D01*
X59784957Y-39176499D02*
X59784957Y-39652689D01*
X59784957Y-39652689D02*
X58784957Y-39652689D01*
X59261147Y-38843165D02*
X59261147Y-38509832D01*
X59784957Y-38366975D02*
X59784957Y-38843165D01*
X59784957Y-38843165D02*
X58784957Y-38843165D01*
X58784957Y-38843165D02*
X58784957Y-38366975D01*
X59784957Y-37938403D02*
X58784957Y-37938403D01*
X58784957Y-37938403D02*
X58784957Y-37700308D01*
X58784957Y-37700308D02*
X58832576Y-37557451D01*
X58832576Y-37557451D02*
X58927814Y-37462213D01*
X58927814Y-37462213D02*
X59023052Y-37414594D01*
X59023052Y-37414594D02*
X59213528Y-37366975D01*
X59213528Y-37366975D02*
X59356385Y-37366975D01*
X59356385Y-37366975D02*
X59546861Y-37414594D01*
X59546861Y-37414594D02*
X59642099Y-37462213D01*
X59642099Y-37462213D02*
X59737338Y-37557451D01*
X59737338Y-37557451D02*
X59784957Y-37700308D01*
X59784957Y-37700308D02*
X59784957Y-37938403D01*
D12*
%TO.C,LED*%
X246761588Y-38533642D02*
G75*
G02*
X237221588Y-38533642I-4770000J0D01*
G01*
X237221588Y-38533642D02*
G75*
G02*
X246761588Y-38533642I4770000J0D01*
G01*
X58100138Y-38533642D02*
G75*
G02*
X48560138Y-38533642I-4770000J0D01*
G01*
X48560138Y-38533642D02*
G75*
G02*
X58100138Y-38533642I4770000J0D01*
G01*
%TD*%
M02*
