M48
; DRILL file {KiCad 9.0.2} date 2025-07-04T08:31:10-0600
; FORMAT={-:-/ absolute / inch / decimal}
; #@! TF.CreationDate,2025-07-04T08:31:10-06:00
; #@! TF.GenerationSoftware,Kicad,Pcbnew,9.0.2
; #@! TF.FileFunction,Plated,1,2,PTH
FMAT,2
INCH
; #@! TA.AperFunction,Plated,PTH,ViaDrill
T1C0.0118
; #@! TA.AperFunction,Plated,PTH,ComponentDrill
T2C0.0315
; #@! TA.AperFunction,Plated,PTH,ComponentDrill
T3C0.0354
; #@! TA.AperFunction,Plated,PTH,ComponentDrill
T4C0.0394
; #@! TA.AperFunction,Plated,PTH,ComponentDrill
T5C0.0400
; #@! TA.AperFunction,Plated,PTH,ComponentDrill
T6C0.0579
%
G90
G05
T1
X3.2835Y-3.9353
X4.9688Y-1.75
X5.25Y-1.75
T2
X1.9618Y-1.4305
X1.9618Y-1.5171
X1.9618Y-1.6037
X9.665Y-1.4305
X9.665Y-1.5171
X9.665Y-1.6037
T3
X1.6904Y-1.3637
X1.6904Y-1.4917
X9.9365Y-1.3637
X9.9365Y-1.4917
T4
X5.0941Y-1.8629
X5.0941Y-1.9629
X5.0941Y-2.0629
X5.0941Y-2.1629
X5.0941Y-2.2629
X5.0941Y-2.3629
X5.0941Y-2.4629
X5.6941Y-1.8629
X5.6941Y-1.9629
X5.6941Y-2.0629
X5.6941Y-2.1629
X5.6941Y-2.2629
X5.6941Y-2.3629
X5.6941Y-2.4629
X5.9327Y-1.8629
X5.9327Y-1.9629
X5.9327Y-2.0629
X5.9327Y-2.1629
X5.9327Y-2.2629
X5.9327Y-2.3629
X5.9327Y-2.4629
X6.5327Y-1.8629
X6.5327Y-1.9629
X6.5327Y-2.0629
X6.5327Y-2.1629
X6.5327Y-2.2629
X6.5327Y-2.3629
X6.5327Y-2.4629
T5
X5.2191Y-2.0755
X5.2191Y-2.1505
X5.3441Y-1.8255
X5.3441Y-1.9255
X5.4441Y-1.8255
X5.4441Y-1.9255
X6.0577Y-2.0755
X6.0577Y-2.1505
X6.1827Y-1.8255
X6.1827Y-1.9255
X6.2827Y-1.8255
X6.2827Y-1.9255
T6
X1.3532Y-4.2852
X1.3931Y-4.0755
X1.5981Y-2.3743
X1.6475Y-3.042
X1.697Y-3.7097
X1.7464Y-4.3773
X1.8002Y-2.4431
X1.8497Y-3.1107
X1.8991Y-3.7784
X1.9485Y-4.4461
X2.2927Y-2.1607
X2.3421Y-2.8284
X2.3915Y-3.4961
X2.4533Y-4.3306
X2.4948Y-2.2295
X2.5442Y-2.8971
X2.5937Y-3.5648
X2.6555Y-4.3994
X3.0866Y-1.7525
X3.0866Y-2.4218
X3.0866Y-3.0911
X3.2835Y-1.8352
X3.2835Y-2.5045
X3.2835Y-3.1738
X3.7953Y-2.0872
X3.7953Y-2.7564
X3.7953Y-3.4257
X3.9921Y-2.1698
X3.9921Y-2.8391
X3.9921Y-3.5084
X4.5248Y-3.9721
X4.5371Y-3.3029
X4.5495Y-2.6337
X4.7202Y-4.0582
X4.7325Y-3.389
X4.7449Y-2.7198
X5.5785Y-3.2003
X5.6646Y-3.0049
X5.9623Y-3.0049
X6.0415Y-2.8067
X6.6837Y-2.6406
X6.6961Y-3.3098
X6.7084Y-3.979
X6.8819Y-2.7198
X6.8943Y-3.389
X6.9067Y-4.0582
X7.4379Y-2.0872
X7.4379Y-2.7564
X7.4379Y-3.4257
X7.6347Y-2.1698
X7.6347Y-2.8391
X7.6347Y-3.5084
X8.1465Y-1.7525
X8.1465Y-2.4218
X8.1465Y-3.0911
X8.3434Y-1.8352
X8.3434Y-2.5045
X8.3434Y-3.1738
X8.7808Y-4.3032
X8.8426Y-3.4686
X8.892Y-2.8009
X8.9414Y-2.1333
X8.9714Y-4.3994
X9.0332Y-3.5648
X9.0826Y-2.8971
X9.132Y-2.2295
X9.4877Y-4.3499
X9.5371Y-3.6822
X9.5866Y-3.0145
X9.636Y-2.3469
X9.6783Y-4.4461
X9.7277Y-3.7784
X9.7772Y-3.1107
X9.8266Y-2.4431
X10.2337Y-4.0755
X10.3555Y-3.9001
M30
