%TF.GenerationSoftware,KiCad,Pcbnew,9.0.2*%
%TF.CreationDate,2025-06-24T08:44:03-06:00*%
%TF.ProjectId,Orcus,4f726375-732e-46b6-9963-61645f706362,rev?*%
%TF.SameCoordinates,Original*%
%TF.FileFunction,Legend,Top*%
%TF.FilePolarity,Positive*%
%FSLAX46Y46*%
G04 Gerber Fmt 4.6, Leading zero omitted, Abs format (unit mm)*
G04 Created by KiCad (PCBNEW 9.0.2) date 2025-06-24 08:44:03*
%MOMM*%
%LPD*%
G01*
G04 APERTURE LIST*
%ADD10C,0.150000*%
%ADD11C,0.120000*%
G04 APERTURE END LIST*
D10*
X45009004Y-38269593D02*
X45009004Y-37507689D01*
X45389957Y-37888641D02*
X44628052Y-37888641D01*
X250460454Y-38269593D02*
X250460454Y-37507689D01*
X250841407Y-37888641D02*
X250079502Y-37888641D01*
X45009004Y-35019593D02*
X45009004Y-34257689D01*
X250460454Y-35019593D02*
X250460454Y-34257689D01*
X248446407Y-39176499D02*
X248446407Y-39652689D01*
X248446407Y-39652689D02*
X247446407Y-39652689D01*
X247922597Y-38843165D02*
X247922597Y-38509832D01*
X248446407Y-38366975D02*
X248446407Y-38843165D01*
X248446407Y-38843165D02*
X247446407Y-38843165D01*
X247446407Y-38843165D02*
X247446407Y-38366975D01*
X248446407Y-37938403D02*
X247446407Y-37938403D01*
X247446407Y-37938403D02*
X247446407Y-37700308D01*
X247446407Y-37700308D02*
X247494026Y-37557451D01*
X247494026Y-37557451D02*
X247589264Y-37462213D01*
X247589264Y-37462213D02*
X247684502Y-37414594D01*
X247684502Y-37414594D02*
X247874978Y-37366975D01*
X247874978Y-37366975D02*
X248017835Y-37366975D01*
X248017835Y-37366975D02*
X248208311Y-37414594D01*
X248208311Y-37414594D02*
X248303549Y-37462213D01*
X248303549Y-37462213D02*
X248398788Y-37557451D01*
X248398788Y-37557451D02*
X248446407Y-37700308D01*
X248446407Y-37700308D02*
X248446407Y-37938403D01*
X47784957Y-39176499D02*
X47784957Y-39652689D01*
X47784957Y-39652689D02*
X46784957Y-39652689D01*
X47261147Y-38843165D02*
X47261147Y-38509832D01*
X47784957Y-38366975D02*
X47784957Y-38843165D01*
X47784957Y-38843165D02*
X46784957Y-38843165D01*
X46784957Y-38843165D02*
X46784957Y-38366975D01*
X47784957Y-37938403D02*
X46784957Y-37938403D01*
X46784957Y-37938403D02*
X46784957Y-37700308D01*
X46784957Y-37700308D02*
X46832576Y-37557451D01*
X46832576Y-37557451D02*
X46927814Y-37462213D01*
X46927814Y-37462213D02*
X47023052Y-37414594D01*
X47023052Y-37414594D02*
X47213528Y-37366975D01*
X47213528Y-37366975D02*
X47356385Y-37366975D01*
X47356385Y-37366975D02*
X47546861Y-37414594D01*
X47546861Y-37414594D02*
X47642099Y-37462213D01*
X47642099Y-37462213D02*
X47737338Y-37557451D01*
X47737338Y-37557451D02*
X47784957Y-37700308D01*
X47784957Y-37700308D02*
X47784957Y-37938403D01*
D11*
%TO.C,+*%
X43935138Y-37888642D02*
G75*
G02*
X41935138Y-37888642I-1000000J0D01*
G01*
X41935138Y-37888642D02*
G75*
G02*
X43935138Y-37888642I1000000J0D01*
G01*
X253386588Y-37888642D02*
G75*
G02*
X251386588Y-37888642I-1000000J0D01*
G01*
X251386588Y-37888642D02*
G75*
G02*
X253386588Y-37888642I1000000J0D01*
G01*
%TO.C,-*%
X43935138Y-34638642D02*
G75*
G02*
X41935138Y-34638642I-1000000J0D01*
G01*
X41935138Y-34638642D02*
G75*
G02*
X43935138Y-34638642I1000000J0D01*
G01*
X253386588Y-34638642D02*
G75*
G02*
X251386588Y-34638642I-1000000J0D01*
G01*
X251386588Y-34638642D02*
G75*
G02*
X253386588Y-34638642I1000000J0D01*
G01*
%TO.C,LED*%
X246761588Y-38533642D02*
G75*
G02*
X237221588Y-38533642I-4770000J0D01*
G01*
X237221588Y-38533642D02*
G75*
G02*
X246761588Y-38533642I4770000J0D01*
G01*
X58100138Y-38533642D02*
G75*
G02*
X48560138Y-38533642I-4770000J0D01*
G01*
X48560138Y-38533642D02*
G75*
G02*
X58100138Y-38533642I4770000J0D01*
G01*
%TD*%
M02*
